<svg width="397" height="500" viewBox="0 0 397 500" fill="none" xmlns="http://www.w3.org/2000/svg">
<path opacity="0.4" d="M21.36 477.8L0 465.58L31.96 447.29L53.31 459.5L21.36 477.8Z" fill="#D6D8E5"/>
<path d="M21.8 453.17L4.10999 442.96L21.8 432.75L39.48 442.96L21.8 453.17Z" fill="#D6D8E5"/>
<path d="M21.8 473.59L4.10999 463.38V442.96L21.8 453.17V473.59Z" fill="#B1B6C4"/>
<path d="M39.4901 463.38L21.8 473.59V453.17L39.4901 442.96V463.38Z" fill="#C4C7D6"/>
<path d="M45.5699 457C47.0996 457.426 48.7358 457.228 50.1199 456.45C51.2199 456.45 57.1799 453.94 57.9899 456.08C58.6999 457.95 56.1199 459.69 54.7399 460.02C51.7399 460.75 49.4999 462.25 48.2899 462.51C47.8291 462.675 47.3348 462.725 46.8502 462.655C46.3657 462.586 45.9055 462.398 45.5099 462.11C44.6499 461.21 44.7299 458.07 45.5699 457Z" fill="#38226D"/>
<path d="M48.29 461.94C49.5 461.68 51.73 460.18 54.74 459.45C55.89 459.17 57.88 457.91 58.08 456.4C58.35 458.13 56.02 459.66 54.74 459.97C51.74 460.7 49.5 462.2 48.29 462.46C47.8292 462.625 47.3349 462.675 46.8503 462.605C46.3657 462.536 45.9056 462.348 45.51 462.06C45.3194 461.858 45.1849 461.61 45.12 461.34C45.5649 461.68 46.0834 461.912 46.6338 462.016C47.1842 462.12 47.7514 462.094 48.29 461.94Z" fill="#9C73FF"/>
<path d="M34.83 451.23C36.3597 451.656 37.9959 451.458 39.38 450.68C40.48 450.68 46.38 448.17 47.24 450.31C47.95 452.18 45.37 453.92 44 454.25C41 454.98 38.76 456.48 37.55 456.74C37.0892 456.905 36.5949 456.955 36.1103 456.885C35.6258 456.816 35.1656 456.628 34.77 456.34C33.91 455.49 34 452.35 34.83 451.23Z" fill="#38226D"/>
<path d="M37.55 456.22C38.76 455.96 40.99 454.46 44 453.73C45.15 453.45 47.14 452.19 47.34 450.68C47.61 452.41 45.28 453.94 44 454.25C41 454.98 38.76 456.48 37.55 456.74C37.0892 456.905 36.5949 456.955 36.1103 456.885C35.6257 456.816 35.1656 456.628 34.77 456.34C34.5816 456.14 34.4474 455.896 34.38 455.63C34.8265 455.967 35.3453 456.196 35.8955 456.299C36.4456 456.401 37.012 456.374 37.55 456.22Z" fill="#9C73FF"/>
<path d="M18.1 443.82C22.75 445.82 27.1 446.18 30.71 444.26L34.41 442.12C34.63 446.9 34.84 451.49 34.84 451.49C34.84 451.49 37.68 453.64 39.84 451.72C39.84 451.72 40.3 445.02 40.77 438.42L44.65 436.18C44.5565 436.533 44.5061 436.895 44.5 437.26C44.5 438.51 45.4 457.14 45.4 457.14C45.4 457.14 48.26 458.84 50.47 456.93C50.47 456.93 51.96 435.34 52.3 431.93C52.68 428.05 48.38 426.14 45.65 427.13L41.49 428.68L41.69 426.28C42.08 422.4 37.77 420.49 35.05 421.48C32.57 422.39 15.81 428.67 15.81 428.67C15.9143 430.283 16.1113 431.889 16.4 433.48L9.78001 432.92C9.43001 439.11 13.46 441.78 18.1 443.82ZM29.66 433.09L34.09 430.54C34.0162 430.852 33.9693 431.17 33.95 431.49L29.66 433.09Z" fill="#8C50FF"/>
<path d="M6.19995 414C6.19995 414 6.73995 422.23 7.81995 423.42C8.89995 424.61 12.56 425.42 12.56 425.42L15.37 430C15.37 430 12.8 415.32 12.24 415C11.68 414.68 6.19995 414 6.19995 414Z" fill="#FFCEA9"/>
<path d="M11.61 404.85C10.9285 404.532 10.1545 404.473 9.43283 404.685C8.71118 404.896 8.09152 405.364 7.68998 406C6.68998 407.71 5.57998 413.6 5.47998 414.6C5.89562 415.161 6.44622 415.609 7.08076 415.901C7.71531 416.193 8.41327 416.32 9.10998 416.27L11.61 404.85Z" fill="#EDEDED"/>
<path d="M12.6 405C14.02 405.07 15.08 405.43 15.26 405C15.4125 404.267 15.5194 403.526 15.58 402.78C15.42 402.36 15.28 401.92 15.28 401.92C13.49 400.82 12.93 398.92 12.69 396.64C12.29 392.79 14.37 389.43 18.21 389.03C21.83 388.65 24.49 391.19 25.21 394.68C25.59 396.4 26.35 399.68 25.32 402.49C24.75 404.07 24.01 405.33 23.32 405.57C22.6036 405.555 21.8889 405.495 21.18 405.39C21.18 405.39 20.99 406.46 20.86 407.14C20.73 407.82 20.77 408.19 22.14 409.03C23.51 409.87 20.08 411.6 17.84 411.43C15.6 411.26 13.08 409.91 12.39 408.43C11.56 406.81 11.62 404.91 12.6 405Z" fill="#FFCEA9"/>
<path d="M48.6599 430.15C48.6591 430.353 48.6052 430.552 48.5034 430.727C48.4016 430.903 48.2556 431.049 48.0799 431.15L37.2299 437.41C37.0539 437.513 36.8538 437.567 36.6499 437.567C36.4461 437.567 36.2459 437.513 36.0699 437.41L20.8699 428.63C20.6929 428.53 20.5458 428.385 20.4438 428.209C20.3418 428.033 20.2887 427.833 20.2899 427.63V427.55L48.6599 430.15Z" fill="#E5E5E5"/>
<path d="M48.0799 431.15L37.2299 437.41C37.0552 437.516 36.8543 437.572 36.6499 437.57V430.15H48.6499C48.6501 430.352 48.5977 430.55 48.4977 430.726C48.3977 430.901 48.2537 431.047 48.0799 431.15Z" fill="#E5E5E5"/>
<path d="M37.0599 436.84C36.9375 436.913 36.7975 436.952 36.6549 436.952C36.5123 436.952 36.3724 436.913 36.2499 436.84L20.4399 427.72C20.2399 427.6 20.2399 427.41 20.4399 427.3L32.0799 420.57L48.6599 430.15L37.0599 436.84Z" fill="#F4F4F4"/>
<path d="M26.9299 430.15L27.0099 430.19L32.0799 433.12L34.8599 431.51L34.9399 431.47L29.7899 428.5L26.9299 430.15Z" fill="#BFBFBF"/>
<path d="M27.0099 430.19L32.0799 433.12L34.8599 431.51L29.7899 428.59L27.0099 430.19Z" fill="#E5E5E5"/>
<path d="M44.3599 430.62L45.0899 431.04C45.1252 431.059 45.1648 431.069 45.2049 431.069C45.2451 431.069 45.2847 431.059 45.3199 431.04L46.0199 430.64C46.0899 430.64 46.0999 430.54 46.0199 430.51L45.2899 430.08C45.254 430.063 45.2147 430.054 45.1749 430.054C45.1352 430.054 45.0959 430.063 45.0599 430.08L44.3599 430.49C44.3099 430.53 44.2999 430.59 44.3599 430.62Z" fill="#3A2C6D"/>
<path d="M43.3299 430L44.0599 430.42C44.0952 430.439 44.1347 430.449 44.1749 430.449C44.2151 430.449 44.2546 430.439 44.2899 430.42L44.9899 430.02C45.0599 430.02 45.0599 429.92 44.9899 429.89L44.2599 429.47C44.2246 429.451 44.1851 429.441 44.1449 429.441C44.1047 429.441 44.0652 429.451 44.0299 429.47L43.3299 429.87C43.2799 429.93 43.2699 430 43.3299 430Z" fill="#3A2C6D"/>
<path d="M42.29 429.43L43.02 429.85C43.0577 429.867 43.0986 429.876 43.14 429.876C43.1814 429.876 43.2223 429.867 43.26 429.85L43.95 429.45C44.02 429.45 44.03 429.35 43.95 429.31L43.22 428.89C43.1847 428.871 43.1452 428.861 43.105 428.861C43.0648 428.861 43.0253 428.871 42.99 428.89L42.29 429.29C42.24 429.33 42.23 429.39 42.29 429.43Z" fill="#3A2C6D"/>
<path d="M41.26 428.83L41.99 429.25C42.0259 429.267 42.0652 429.276 42.105 429.276C42.1447 429.276 42.184 429.267 42.22 429.25L42.92 428.85C42.99 428.85 43 428.75 42.92 428.71L42.19 428.29C42.1523 428.273 42.1114 428.264 42.07 428.264C42.0286 428.264 41.9877 428.273 41.95 428.29L41.26 428.69C41.21 428.73 41.2 428.79 41.26 428.83Z" fill="#3A2C6D"/>
<path d="M40.2199 428.23L40.9599 428.65C40.9952 428.669 41.0347 428.679 41.0749 428.679C41.1151 428.679 41.1546 428.669 41.1899 428.65L41.8799 428.25C41.9499 428.25 41.9599 428.15 41.8799 428.12L41.1499 427.69C41.114 427.673 41.0747 427.664 41.0349 427.664C40.9952 427.664 40.9559 427.673 40.9199 427.69L40.2199 428.1C40.1699 428.14 40.1599 428.2 40.2199 428.23Z" fill="#3A2C6D"/>
<path d="M39.1899 427.63L39.9199 428.06C39.9559 428.077 39.9951 428.086 40.0349 428.086C40.0747 428.086 40.1139 428.077 40.1499 428.06L40.8499 427.65C40.9199 427.65 40.9299 427.55 40.8499 427.52L40.1199 427.1C40.0828 427.081 40.0417 427.071 39.9999 427.071C39.9581 427.071 39.917 427.081 39.8799 427.1L39.1899 427.5C39.1399 427.54 39.1299 427.6 39.1899 427.63Z" fill="#3A2C6D"/>
<path d="M38.16 427L38.89 427.42C38.926 427.437 38.9652 427.446 39.005 427.446C39.0448 427.446 39.084 427.437 39.12 427.42L39.82 427.02C39.89 427.02 39.89 426.92 39.82 426.88L39.09 426.46C39.054 426.443 39.0147 426.434 38.975 426.434C38.9352 426.434 38.896 426.443 38.86 426.46L38.16 426.86C38.1 426.94 38.1 427 38.16 427Z" fill="#3A2C6D"/>
<path d="M37.1199 426.44L37.8499 426.86C37.8852 426.879 37.9248 426.889 37.9649 426.889C38.0051 426.889 38.0447 426.879 38.08 426.86L38.7799 426.46C38.8499 426.46 38.8599 426.36 38.7799 426.33L38.0499 425.9C38.014 425.883 37.9747 425.874 37.935 425.874C37.8952 425.874 37.8559 425.883 37.8199 425.9L37.1199 426.31C37.0699 426.35 37.0599 426.41 37.1199 426.44Z" fill="#3A2C6D"/>
<path d="M36.0899 425.84L36.8199 426.26C36.8552 426.279 36.8947 426.289 36.9349 426.289C36.9751 426.289 37.0146 426.279 37.0499 426.26L37.7499 425.86C37.8199 425.86 37.8199 425.76 37.7499 425.73L36.9999 425.3C36.9646 425.281 36.9251 425.271 36.8849 425.271C36.8447 425.271 36.8052 425.281 36.7699 425.3L36.0699 425.7C35.9999 425.75 35.9999 425.81 36.0899 425.84Z" fill="#3A2C6D"/>
<path d="M35.05 425.25L35.78 425.67C35.8176 425.687 35.8586 425.696 35.9 425.696C35.9414 425.696 35.9823 425.687 36.02 425.67L36.71 425.27C36.78 425.27 36.79 425.17 36.71 425.13L36 424.7C35.9647 424.681 35.9251 424.671 35.885 424.671C35.8448 424.671 35.8052 424.681 35.77 424.7L35.07 425.1C35 425.15 35 425.21 35.05 425.25Z" fill="#3A2C6D"/>
<path d="M33.9999 424.65L34.7299 425.07C34.7658 425.087 34.8051 425.096 34.8449 425.096C34.8846 425.096 34.9239 425.087 34.9599 425.07L35.6599 424.67C35.7299 424.67 35.7399 424.57 35.6599 424.53L34.9999 424.1C34.9622 424.083 34.9213 424.074 34.8799 424.074C34.8385 424.074 34.7976 424.083 34.7599 424.1L34.0699 424.5C33.9999 424.55 33.9999 424.61 33.9999 424.65Z" fill="#3A2C6D"/>
<path d="M32.9999 424.05L33.7399 424.47C33.7752 424.489 33.8147 424.499 33.8549 424.499C33.8951 424.499 33.9347 424.489 33.9699 424.47L34.6699 424.07C34.7299 424.07 34.7399 423.97 34.6699 423.94L33.9399 423.51C33.9039 423.493 33.8647 423.484 33.8249 423.484C33.7852 423.484 33.7459 423.493 33.7099 423.51L33.0099 423.92C32.9299 424 32.9299 424 32.9999 424.05Z" fill="#3A2C6D"/>
<path d="M31.9999 423.45L32.7299 423.88C32.7659 423.897 32.8052 423.906 32.8449 423.906C32.8847 423.906 32.924 423.897 32.9599 423.88L33.6599 423.47C33.7299 423.47 33.7399 423.37 33.6599 423.34L32.9299 422.92C32.8929 422.901 32.8517 422.891 32.8099 422.891C32.7682 422.891 32.727 422.901 32.6899 422.92L31.9999 423.32C31.8999 423.36 31.8899 423.42 31.9999 423.45Z" fill="#3A2C6D"/>
<path d="M30.4199 422.57L31.6499 423.28C31.6859 423.297 31.7251 423.306 31.7649 423.306C31.8046 423.306 31.8439 423.297 31.8799 423.28L32.5799 422.88C32.6499 422.88 32.6499 422.78 32.5799 422.74L31.3599 422C31.3239 421.983 31.2846 421.974 31.2449 421.974C31.2051 421.974 31.1659 421.983 31.1299 422L30.4299 422.41C30.4194 422.409 30.4088 422.411 30.3989 422.414C30.3889 422.418 30.3797 422.423 30.3719 422.43C30.364 422.437 30.3575 422.445 30.3529 422.455C30.3483 422.464 30.3455 422.474 30.3449 422.485C30.3442 422.495 30.3456 422.506 30.3491 422.516C30.3525 422.526 30.3578 422.535 30.3648 422.543C30.3717 422.551 30.3802 422.557 30.3896 422.562C30.3991 422.567 30.4094 422.569 30.4199 422.57Z" fill="#3A2C6D"/>
<path d="M41.8199 430.31L42.5599 430.73C42.5952 430.749 42.6347 430.759 42.6749 430.759C42.7151 430.759 42.7546 430.749 42.7899 430.73L43.4899 430.33C43.5499 430.33 43.5599 430.23 43.4899 430.2L42.7599 429.78C42.7246 429.761 42.6851 429.751 42.6449 429.751C42.6047 429.751 42.5652 429.761 42.5299 429.78L41.8299 430.18C41.7699 430.22 41.7699 430.28 41.8199 430.31Z" fill="#3A2C6D"/>
<path d="M40.79 429.71L41.52 430.14C41.556 430.157 41.5952 430.166 41.635 430.166C41.6747 430.166 41.714 430.157 41.75 430.14L42.45 429.73C42.52 429.73 42.53 429.63 42.45 429.6L41.72 429.18C41.6829 429.161 41.6418 429.151 41.6 429.151C41.5582 429.151 41.5171 429.161 41.48 429.18L40.79 429.58C40.74 429.62 40.73 429.68 40.79 429.71Z" fill="#3A2C6D"/>
<path d="M39.75 429.12L40.48 429.54C40.5176 429.557 40.5586 429.566 40.6 429.566C40.6413 429.566 40.6823 429.557 40.72 429.54L41.41 429.14C41.48 429.14 41.49 429.04 41.41 429L40.68 428.58C40.644 428.563 40.6047 428.554 40.565 428.554C40.5252 428.554 40.4859 428.563 40.45 428.58L39.75 428.98C39.7 429 39.69 429.08 39.75 429.12Z" fill="#3A2C6D"/>
<path d="M38.7199 428.52L39.4499 428.94C39.4859 428.957 39.5252 428.966 39.5649 428.966C39.6047 428.966 39.644 428.957 39.6799 428.94L40.3799 428.54C40.4499 428.54 40.4499 428.44 40.3799 428.4L39.6499 427.98C39.614 427.963 39.5747 427.954 39.5349 427.954C39.4952 427.954 39.4559 427.963 39.4199 427.98L38.7199 428.38C38.6599 428.42 38.6599 428.48 38.7199 428.52Z" fill="#3A2C6D"/>
<path d="M37.6899 427.92L38.4199 428.35C38.4559 428.367 38.4951 428.376 38.5349 428.376C38.5747 428.376 38.6139 428.367 38.6499 428.35L39.3499 427.94C39.4199 427.94 39.4299 427.84 39.3499 427.81L38.6199 427.39C38.5828 427.371 38.5417 427.361 38.4999 427.361C38.4581 427.361 38.417 427.371 38.3799 427.39L37.6899 427.79C37.6399 427.83 37.6299 427.89 37.6899 427.92Z" fill="#3A2C6D"/>
<path d="M36.65 427.33L37.38 427.75C37.4177 427.767 37.4586 427.776 37.5 427.776C37.5414 427.776 37.5823 427.767 37.62 427.75L38.31 427.35C38.38 427.35 38.39 427.25 38.31 427.21L37.58 426.79C37.544 426.773 37.5047 426.764 37.465 426.764C37.4252 426.764 37.3859 426.773 37.35 426.79L36.65 427.19C36.6 427.23 36.59 427.29 36.65 427.33Z" fill="#3A2C6D"/>
<path d="M35.62 426.73L36.35 427.15C36.3859 427.167 36.4252 427.176 36.465 427.176C36.5047 427.176 36.544 427.167 36.58 427.15L37.28 426.75C37.35 426.75 37.35 426.65 37.28 426.61L36.55 426.19C36.514 426.173 36.4747 426.164 36.435 426.164C36.3952 426.164 36.3559 426.173 36.32 426.19L35.62 426.59C35.56 426.63 35.56 426.69 35.62 426.73Z" fill="#3A2C6D"/>
<path d="M34.5799 426.13L35.3099 426.55C35.3452 426.569 35.3847 426.579 35.4249 426.579C35.4651 426.579 35.5046 426.569 35.5399 426.55L36.2399 426.15C36.3099 426.15 36.3199 426.05 36.2399 426.02L35.5099 425.59C35.4722 425.573 35.4313 425.564 35.3899 425.564C35.3485 425.564 35.3076 425.573 35.2699 425.59L34.5799 426C34.5299 426 34.5199 426.1 34.5799 426.13Z" fill="#3A2C6D"/>
<path d="M33.54 425.53L34.28 425.95C34.3153 425.969 34.3548 425.979 34.395 425.979C34.4352 425.979 34.4747 425.969 34.51 425.95L35.21 425.55C35.27 425.55 35.28 425.45 35.21 425.42L34.48 425C34.4447 424.981 34.4052 424.971 34.365 424.971C34.3248 424.971 34.2853 424.981 34.25 425L33.55 425.4C33.49 425.44 33.49 425.5 33.54 425.53Z" fill="#3A2C6D"/>
<path d="M32.51 424.93L33.24 425.36C33.2759 425.377 33.3152 425.386 33.355 425.386C33.3947 425.386 33.434 425.377 33.47 425.36L34.17 424.95C34.24 424.95 34.25 424.85 34.17 424.82L33.44 424.4C33.4029 424.381 33.3617 424.371 33.32 424.371C33.2782 424.371 33.237 424.381 33.2 424.4L32.51 424.8C32.46 424.84 32.45 424.9 32.51 424.93Z" fill="#3A2C6D"/>
<path d="M31.4699 424.34L32.1999 424.76C32.2376 424.777 32.2785 424.786 32.3199 424.786C32.3613 424.786 32.4022 424.777 32.4399 424.76L33.1299 424.36C33.1999 424.36 33.2099 424.26 33.1299 424.22L32.3999 423.8C32.364 423.783 32.3247 423.774 32.2849 423.774C32.2452 423.774 32.2059 423.783 32.1699 423.8L31.4699 424.2C31.4199 424.24 31.4099 424.3 31.4699 424.34Z" fill="#3A2C6D"/>
<path d="M30.4399 423.74L31.1699 424.16C31.2059 424.177 31.2451 424.186 31.2849 424.186C31.3247 424.186 31.3639 424.177 31.3999 424.16L32.0999 423.76C32.1699 423.76 32.1699 423.66 32.0999 423.62L31.3699 423.2C31.3339 423.183 31.2947 423.174 31.2549 423.174C31.2151 423.174 31.1759 423.183 31.1399 423.2L30.4399 423.6C30.3799 423.64 30.3799 423.7 30.4399 423.74Z" fill="#3A2C6D"/>
<path d="M42.8599 430.91L44.0899 431.62C44.1259 431.637 44.1652 431.646 44.2049 431.646C44.2447 431.646 44.284 431.637 44.3199 431.62L45.0199 431.22C45.0899 431.22 45.0999 431.12 45.0199 431.08L43.7899 430.37C43.7523 430.353 43.7113 430.344 43.6699 430.344C43.6285 430.344 43.5876 430.353 43.5499 430.37L42.8599 430.78C42.8099 430.82 42.7999 430.88 42.8599 430.91Z" fill="#3A2C6D"/>
<path d="M30.35 422.6L31.08 423.02C31.14 423.02 31.14 423.11 31.08 423.15L30.34 423.57C30.3084 423.589 30.2721 423.6 30.235 423.6C30.1979 423.6 30.1616 423.589 30.13 423.57H30.07C30.0388 423.555 30.0046 423.547 29.97 423.547C29.9354 423.547 29.9012 423.555 29.87 423.57L29.09 424.02C29.0552 424.035 29.0178 424.042 28.98 424.042C28.9422 424.042 28.9048 424.035 28.87 424.02L28.41 423.75C28.35 423.75 28.35 423.66 28.41 423.62L29.14 423.2L29.29 423.12L29.4 423.05L29.51 422.99L30.13 422.63C30.1607 422.606 30.1973 422.59 30.2359 422.585C30.2746 422.58 30.314 422.585 30.35 422.6Z" fill="#3A2C6D"/>
<path d="M40.3499 432.93L41.0799 433.35C41.1152 433.369 41.1547 433.379 41.1949 433.379C41.2351 433.379 41.2747 433.369 41.3099 433.35L42.0099 432.95C42.0799 432.95 42.0799 432.85 42.0099 432.82L41.2799 432.4C41.2447 432.381 41.2051 432.371 41.1649 432.371C41.1247 432.371 41.0852 432.381 41.0499 432.4L40.3499 432.8C40.2999 432.84 40.2899 432.9 40.3499 432.93Z" fill="#3A2C6D"/>
<path d="M39.3199 432.34L40.0499 432.76C40.0859 432.777 40.1251 432.786 40.1649 432.786C40.2047 432.786 40.2439 432.777 40.2799 432.76L40.9799 432.36C41.0499 432.36 41.0499 432.26 40.9799 432.22L40.2499 431.8C40.2139 431.783 40.1747 431.774 40.1349 431.774C40.0951 431.774 40.0559 431.783 40.0199 431.8L39.3199 432.2C39.2599 432.24 39.2599 432.3 39.3199 432.34Z" fill="#3A2C6D"/>
<path d="M38.28 431.74L39.02 432.16C39.0553 432.179 39.0948 432.189 39.135 432.189C39.1752 432.189 39.2147 432.179 39.25 432.16L39.95 431.76C40.01 431.76 40.02 431.66 39.95 431.63L39.22 431.21C39.1847 431.191 39.1452 431.181 39.105 431.181C39.0648 431.181 39.0253 431.191 38.99 431.21L38.29 431.62C38.23 431.65 38.23 431.71 38.28 431.74Z" fill="#3A2C6D"/>
<path d="M29.5 426.67L30.23 427.09C30.267 427.109 30.3082 427.119 30.35 427.119C30.3917 427.119 30.4329 427.109 30.47 427.09L31.16 426.69C31.23 426.69 31.24 426.59 31.16 426.56L30.43 426.13C30.394 426.113 30.3547 426.104 30.315 426.104C30.2752 426.104 30.2359 426.113 30.2 426.13L29.5 426.54C29.45 426.58 29.44 426.64 29.5 426.67Z" fill="#3A2C6D"/>
<path d="M28.4699 426.08L29.1999 426.5C29.2359 426.517 29.2752 426.526 29.3149 426.526C29.3547 426.526 29.394 426.517 29.4299 426.5L30.1299 426.09C30.1999 426.09 30.2099 426 30.1299 425.96L29.3999 425.54C29.3629 425.521 29.3217 425.511 29.2799 425.511C29.2381 425.511 29.197 425.521 29.1599 425.54L28.4699 425.94C28.4199 426 28.4099 426 28.4699 426.08Z" fill="#3A2C6D"/>
<path d="M27.4399 425.48L28.1699 425.9C28.2052 425.919 28.2447 425.929 28.2849 425.929C28.3251 425.929 28.3646 425.919 28.3999 425.9L29.0999 425.5C29.1699 425.5 29.1799 425.4 29.0999 425.37L28.3699 424.94C28.3322 424.923 28.2913 424.914 28.2499 424.914C28.2085 424.914 28.1676 424.923 28.1299 424.94L27.4399 425.35C27.3899 425.39 27.3799 425.45 27.4399 425.48Z" fill="#3A2C6D"/>
<path d="M26.4099 424.88L27.1399 425.31C27.1759 425.327 27.2152 425.336 27.2549 425.336C27.2947 425.336 27.334 425.327 27.3699 425.31L28.0699 424.9C28.1399 424.9 28.1399 424.8 28.0699 424.77L27.3299 424.35C27.2947 424.331 27.2551 424.321 27.2149 424.321C27.1747 424.321 27.1352 424.331 27.0999 424.35L26.3999 424.75C26.3599 424.79 26.3499 424.85 26.4099 424.88Z" fill="#3A2C6D"/>
<path d="M37 431L38 431.58C38.0377 431.597 38.0786 431.606 38.12 431.606C38.1614 431.606 38.2023 431.597 38.24 431.58L38.93 431.18C39 431.18 39.01 431.08 38.93 431.04L37.93 430.47C37.8947 430.451 37.8552 430.441 37.815 430.441C37.7748 430.441 37.7353 430.451 37.7 430.47L37 430.87C36.94 430.9 36.93 431 37 431Z" fill="#3A2C6D"/>
<path d="M30.53 427.27L31.53 427.84C31.5653 427.859 31.6048 427.869 31.645 427.869C31.6852 427.869 31.7247 427.859 31.76 427.84L32.46 427.44C32.53 427.44 32.54 427.34 32.46 427.3L31.46 426.73C31.424 426.713 31.3847 426.704 31.345 426.704C31.3052 426.704 31.266 426.713 31.23 426.73L30.53 427.13C30.48 427.17 30.47 427.23 30.53 427.27Z" fill="#3A2C6D"/>
<path d="M31.83 428L36.69 430.81C36.726 430.827 36.7652 430.836 36.805 430.836C36.8447 430.836 36.884 430.827 36.92 430.81L37.62 430.41C37.69 430.41 37.69 430.31 37.62 430.27L32.77 427.47C32.7329 427.451 32.6918 427.441 32.65 427.441C32.6082 427.441 32.567 427.451 32.53 427.47L31.84 427.87C31.78 427.92 31.77 428 31.83 428Z" fill="#3A2C6D"/>
<path d="M40.54 430.73L41.27 431.15C41.3053 431.169 41.3448 431.179 41.385 431.179C41.4252 431.179 41.4647 431.169 41.5 431.15L42.2 430.75C42.27 430.75 42.28 430.65 42.2 430.61L41.47 430.19C41.4323 430.173 41.3914 430.164 41.35 430.164C41.3086 430.164 41.2677 430.173 41.23 430.19L40.54 430.59C40.49 430.63 40.48 430.69 40.54 430.73Z" fill="#3A2C6D"/>
<path d="M39.51 430.13L40.24 430.55C40.2752 430.569 40.3148 430.579 40.355 430.579C40.3951 430.579 40.4347 430.569 40.47 430.55L41.17 430.15C41.24 430.15 41.24 430.05 41.17 430.02L40.44 429.6C40.4047 429.581 40.3652 429.571 40.325 429.571C40.2848 429.571 40.2452 429.581 40.21 429.6L39.51 430C39.46 430 39.45 430.1 39.51 430.13Z" fill="#3A2C6D"/>
<path d="M38.4699 429.54L39.2099 429.96C39.2459 429.977 39.2852 429.986 39.3249 429.986C39.3647 429.986 39.404 429.977 39.4399 429.96L40.1399 429.56C40.1999 429.56 40.2099 429.46 40.1399 429.42L39.4099 429C39.374 428.983 39.3347 428.974 39.2949 428.974C39.2552 428.974 39.2159 428.983 39.1799 429L38.4799 429.4C38.4199 429.44 38.4199 429.5 38.4699 429.54Z" fill="#3A2C6D"/>
<path d="M37.4399 428.94L38.1699 429.36C38.2052 429.379 38.2447 429.389 38.2849 429.389C38.3251 429.389 38.3646 429.379 38.3999 429.36L39.0999 428.96C39.1699 428.96 39.1799 428.86 39.0999 428.82L38.3699 428.4C38.3339 428.383 38.2947 428.374 38.2549 428.374C38.2151 428.374 38.1759 428.383 38.1399 428.4L37.4399 428.81C37.3899 428.85 37.3799 428.91 37.4399 428.94Z" fill="#3A2C6D"/>
<path d="M36.41 428.34L37.14 428.76C37.1753 428.779 37.2148 428.789 37.255 428.789C37.2952 428.789 37.3347 428.779 37.37 428.76L38.07 428.35C38.14 428.35 38.15 428.25 38.07 428.22L37.34 427.8C37.3029 427.781 37.2618 427.771 37.22 427.771C37.1782 427.771 37.137 427.781 37.1 427.8L36.41 428.2C36.36 428.25 36.35 428.31 36.41 428.34Z" fill="#3A2C6D"/>
<path d="M35.38 427.75L36.11 428.17C36.1459 428.187 36.1852 428.196 36.225 428.196C36.2647 428.196 36.304 428.187 36.34 428.17L37.04 427.77C37.1 427.77 37.11 427.67 37.04 427.63L36.31 427.21C36.274 427.193 36.2347 427.184 36.195 427.184C36.1552 427.184 36.1159 427.193 36.08 427.21L35.38 427.61C35.32 427.65 35.32 427.71 35.38 427.75Z" fill="#3A2C6D"/>
<path d="M34.3399 427.15L35.0699 427.57C35.107 427.589 35.1481 427.599 35.1899 427.599C35.2317 427.599 35.2729 427.589 35.3099 427.57L35.9999 427.17C36.0699 427.17 36.0799 427.07 35.9999 427.04L35.2699 426.61C35.2339 426.593 35.1947 426.584 35.1549 426.584C35.1152 426.584 35.0759 426.593 35.0399 426.61L34.3399 427.02C34.2899 427.06 34.2799 427.12 34.3399 427.15Z" fill="#3A2C6D"/>
<path d="M33.3099 426.55L33.9999 427C34.0359 427.017 34.0751 427.026 34.1149 427.026C34.1546 427.026 34.1939 427.017 34.2299 427L34.9299 426.59C34.9999 426.59 35.0099 426.49 34.9299 426.46L34.1999 426.04C34.1628 426.021 34.1217 426.011 34.0799 426.011C34.0381 426.011 33.9969 426.021 33.9599 426.04L33.2699 426.44C33.2599 426.46 33.2499 426.52 33.3099 426.55Z" fill="#3A2C6D"/>
<path d="M32.28 426L33.01 426.42C33.046 426.437 33.0852 426.446 33.125 426.446C33.1647 426.446 33.204 426.437 33.24 426.42L33.94 426.02C34.01 426.02 34.01 425.92 33.94 425.88L33.21 425.46C33.174 425.443 33.1347 425.434 33.095 425.434C33.0552 425.434 33.016 425.443 32.98 425.46L32.28 425.86C32.22 425.86 32.22 425.92 32.28 426Z" fill="#3A2C6D"/>
<path d="M31.2399 425.36L31.9699 425.78C32.007 425.799 32.0482 425.809 32.0899 425.809C32.1317 425.809 32.1729 425.799 32.2099 425.78L32.8999 425.38C32.9699 425.38 32.9799 425.28 32.8999 425.25L32.1699 424.82C32.134 424.803 32.0947 424.794 32.0549 424.794C32.0152 424.794 31.9759 424.803 31.9399 424.82L31.2399 425.23C31.1899 425.27 31.1799 425.33 31.2399 425.36Z" fill="#3A2C6D"/>
<path d="M30.2099 424.76L30.9399 425.19C30.9759 425.207 31.0152 425.216 31.0549 425.216C31.0947 425.216 31.1339 425.207 31.1699 425.19L31.8699 424.78C31.9399 424.78 31.9499 424.68 31.8699 424.65L31.1399 424.23C31.1029 424.211 31.0617 424.201 31.0199 424.201C30.9781 424.201 30.937 424.211 30.8999 424.23L30.2099 424.63C30.1599 424.67 30.1499 424.73 30.2099 424.76Z" fill="#3A2C6D"/>
<path d="M29.1799 424.17L29.9099 424.59C29.9459 424.607 29.9851 424.616 30.0249 424.616C30.0646 424.616 30.1039 424.607 30.1399 424.59L30.8399 424.19C30.9099 424.19 30.9099 424.09 30.8399 424.05L30.1099 423.63C30.0739 423.613 30.0346 423.604 29.9949 423.604C29.9551 423.604 29.9159 423.613 29.8799 423.63L29.1799 424.03C29.1199 424.07 29.1199 424.13 29.1799 424.17Z" fill="#3A2C6D"/>
<path d="M41.5699 431.33L43.0899 432.2C43.1259 432.217 43.1651 432.226 43.2049 432.226C43.2447 432.226 43.2839 432.217 43.3199 432.2L44.0099 431.8C44.0799 431.8 44.0899 431.7 44.0099 431.66L42.4999 430.79C42.4646 430.771 42.4251 430.761 42.3849 430.761C42.3447 430.761 42.3052 430.771 42.2699 430.79L41.5699 431.19C41.5199 431.23 41.5099 431.29 41.5699 431.33Z" fill="#3A2C6D"/>
<path d="M40.05 431.6L40.78 432.03C40.8159 432.047 40.8552 432.056 40.895 432.056C40.9347 432.056 40.974 432.047 41.01 432.03L41.71 431.62C41.78 431.62 41.79 431.52 41.71 431.49L40.98 431.07C40.9447 431.051 40.9051 431.041 40.865 431.041C40.8248 431.041 40.7852 431.051 40.75 431.07L40.05 431.47C40 431.51 40 431.57 40.05 431.6Z" fill="#3A2C6D"/>
<path d="M38.9999 431L39.7299 431.42C39.7658 431.437 39.8051 431.446 39.8449 431.446C39.8846 431.446 39.9239 431.437 39.9599 431.42L40.6599 431.02C40.7299 431.02 40.7399 430.92 40.6599 430.88L39.9199 430.46C39.8839 430.443 39.8446 430.434 39.8049 430.434C39.7651 430.434 39.7258 430.443 39.6899 430.46L38.9999 430.86C38.9999 430.91 38.9999 431 38.9999 431Z" fill="#3A2C6D"/>
<path d="M37.9999 430.41L38.7299 430.83C38.7652 430.849 38.8047 430.859 38.8449 430.859C38.8851 430.859 38.9246 430.849 38.9599 430.83L39.6599 430.43C39.7199 430.43 39.7299 430.33 39.6599 430.3L38.9299 429.87C38.8939 429.853 38.8546 429.844 38.8149 429.844C38.7751 429.844 38.7359 429.853 38.6999 429.87L37.9999 430.28C37.9299 430.32 37.9299 430.38 37.9999 430.41Z" fill="#3A2C6D"/>
<path d="M36.9999 429.81L37.7299 430.24C37.7676 430.257 37.8085 430.266 37.8499 430.266C37.8913 430.266 37.9323 430.257 37.9699 430.24L38.6599 429.83C38.7299 429.83 38.7399 429.73 38.6599 429.7L37.9299 429.28C37.8947 429.261 37.8551 429.251 37.8149 429.251C37.7748 429.251 37.7352 429.261 37.6999 429.28L36.9999 429.68C36.8999 429.72 36.8899 429.78 36.9999 429.81Z" fill="#3A2C6D"/>
<path d="M35.9199 429.22L36.6499 429.64C36.6859 429.657 36.7251 429.666 36.7649 429.666C36.8046 429.666 36.8439 429.657 36.8799 429.64L37.5799 429.24C37.6499 429.24 37.6599 429.14 37.5799 429.1L36.8499 428.68C36.8122 428.663 36.7713 428.654 36.7299 428.654C36.6885 428.654 36.6476 428.663 36.6099 428.68L35.9199 429.08C35.8699 429.12 35.8599 429.18 35.9199 429.22Z" fill="#3A2C6D"/>
<path d="M34.89 428.62L35.62 429.04C35.6552 429.059 35.6948 429.069 35.735 429.069C35.7752 429.069 35.8147 429.059 35.85 429.04L36.55 428.64C36.62 428.64 36.62 428.54 36.55 428.51L35.82 428.09C35.7847 428.071 35.7452 428.061 35.705 428.061C35.6648 428.061 35.6252 428.071 35.59 428.09L34.89 428.49C34.83 428.53 34.83 428.59 34.89 428.62Z" fill="#3A2C6D"/>
<path d="M33.8499 428L34.5799 428.42C34.6176 428.437 34.6585 428.446 34.6999 428.446C34.7413 428.446 34.7822 428.437 34.8199 428.42L35.5099 428.02C35.5799 428.02 35.5899 427.92 35.5099 427.88L34.7799 427.46C34.7447 427.441 34.7051 427.431 34.6649 427.431C34.6247 427.431 34.5852 427.441 34.5499 427.46L33.8499 427.86C33.7999 427.93 33.7899 428 33.8499 428Z" fill="#3A2C6D"/>
<path d="M32.8199 427.43L33.5499 427.85C33.5852 427.869 33.6247 427.879 33.6649 427.879C33.7051 427.879 33.7446 427.869 33.7799 427.85L34.4799 427.45C34.5499 427.45 34.5599 427.35 34.4799 427.31L33.7499 426.89C33.7122 426.873 33.6713 426.864 33.6299 426.864C33.5885 426.864 33.5476 426.873 33.5099 426.89L32.8199 427.3C32.7699 427.33 32.7599 427.39 32.8199 427.43Z" fill="#3A2C6D"/>
<path d="M31.7899 426.83L32.5199 427.25C32.5557 427.268 32.5951 427.277 32.6349 427.277C32.6748 427.277 32.7142 427.268 32.7499 427.25L33.4499 426.84C33.5199 426.84 33.5199 426.74 33.4499 426.71L32.7099 426.29C32.6747 426.271 32.6351 426.261 32.5949 426.261C32.5548 426.261 32.5152 426.271 32.4799 426.29L31.7799 426.69C31.7399 426.74 31.7299 426.8 31.7899 426.83Z" fill="#3A2C6D"/>
<path d="M30.76 426.24L31.49 426.66C31.5259 426.677 31.5652 426.686 31.605 426.686C31.6447 426.686 31.684 426.677 31.72 426.66L32.42 426.26C32.48 426.26 32.49 426.16 32.42 426.12L31.69 425.7C31.654 425.683 31.6147 425.674 31.575 425.674C31.5352 425.674 31.4959 425.683 31.46 425.7L30.76 426.1C30.7 426.14 30.7 426.2 30.76 426.24Z" fill="#3A2C6D"/>
<path d="M29.7199 425.64L30.4499 426.06C30.487 426.079 30.5281 426.089 30.5699 426.089C30.6117 426.089 30.6529 426.079 30.6899 426.06L31.3799 425.66C31.4499 425.66 31.4599 425.56 31.3799 425.53L30.6499 425.1C30.614 425.083 30.5747 425.074 30.5349 425.074C30.4952 425.074 30.4559 425.083 30.4199 425.1L29.7199 425.51C29.6699 425.55 29.6599 425.61 29.7199 425.64Z" fill="#3A2C6D"/>
<path d="M27.41 424.31L29.41 425.47C29.446 425.487 29.4852 425.496 29.525 425.496C29.5647 425.496 29.604 425.487 29.64 425.47L30.34 425.06C30.41 425.06 30.42 424.96 30.34 424.93L28.34 423.77C28.3029 423.751 28.2618 423.741 28.22 423.741C28.1782 423.741 28.137 423.751 28.1 423.77L27.41 424.17C27.36 424.21 27.35 424.27 27.41 424.31Z" fill="#3A2C6D"/>
<path d="M41.0799 432.2L42.0799 432.78C42.1159 432.797 42.1551 432.806 42.1949 432.806C42.2347 432.806 42.2739 432.797 42.3099 432.78L43.0099 432.37C43.0799 432.37 43.0899 432.27 43.0099 432.24L42.0099 431.66C41.9739 431.643 41.9347 431.634 41.8949 431.634C41.8551 431.634 41.8159 431.643 41.7799 431.66L41.0799 432.07C40.9999 432.11 40.9999 432.17 41.0799 432.2Z" fill="#3A2C6D"/>
<path d="M48.66 430.15L32.08 420.57V407.57L32.21 407.27L32.34 407.21C32.5141 407.107 32.7127 407.053 32.915 407.053C33.1172 407.053 33.3158 407.107 33.49 407.21L48.66 415.96C48.8331 416.063 48.9766 416.21 49.0764 416.385C49.1763 416.56 49.2292 416.758 49.23 416.96V429.2C49.12 429.79 49 429.94 48.66 430.15Z" fill="#E5E5E5"/>
<path d="M47.14 417.51L32.08 408V407.57L32.21 407.27L32.34 407.21C32.5141 407.107 32.7127 407.053 32.915 407.053C33.1172 407.053 33.3158 407.107 33.49 407.21L48.66 415.96C48.8466 416.066 48.9965 416.227 49.09 416.42L47.14 417.51Z" fill="#E5E5E5"/>
<path d="M32.4599 407.24L48.3799 416.43C48.4637 416.479 48.5334 416.549 48.5824 416.633C48.6314 416.717 48.6581 416.813 48.6599 416.91V430.15L32.0799 420.57V407.46C32.0787 407.415 32.0897 407.371 32.1116 407.331C32.1336 407.292 32.1657 407.26 32.2046 407.237C32.2435 407.214 32.2877 407.203 32.3326 407.203C32.3776 407.204 32.4215 407.217 32.4599 407.24Z" fill="#DCEEFF"/>
<path d="M32.4599 407.24L48.3799 416.43C48.4637 416.479 48.5334 416.549 48.5824 416.633C48.6314 416.717 48.6581 416.813 48.6599 416.91V430.15L32.0799 420.57V407.46C32.0787 407.415 32.0897 407.371 32.1116 407.331C32.1336 407.292 32.1657 407.26 32.2046 407.237C32.2435 407.214 32.2877 407.203 32.3326 407.203C32.3776 407.204 32.4215 407.217 32.4599 407.24Z" fill="#F4F4F4"/>
<path d="M48.66 430.15V429.67L32.08 420.1V420.57L48.66 430.15Z" fill="#DBDBDB"/>
<path d="M32.5099 419.88V407.93L32.7099 408.04V419.78L32.5099 419.88Z" fill="#1E3779"/>
<path d="M32.71 408.04V419.78L48.13 428.65V416.94L32.71 408.04Z" fill="#3A2C6D"/>
<path d="M32.5099 419.88L48.1299 428.89V428.65L32.7099 419.78L32.5099 419.88Z" fill="#031F60"/>
<path d="M14.6599 405.17C14.2599 406.17 15.2699 407.35 17.9399 408.17C20.6099 408.99 20.8499 407.93 20.8499 407.93C22.6308 408.728 24.3667 409.623 26.0499 410.61C27.6499 411.73 28.3599 414.98 28.5799 420.46C28.8299 426.8 28.8499 436.2 28.6399 437.83C28.6399 437.83 25.6399 440.83 21.8099 440.5C17.9799 440.17 11.5099 436.79 9.94993 434.17C9.94993 428.61 10.6399 427.7 9.73993 424.5C7.67993 417.17 6.58993 414.17 7.59993 409.29C8.41993 405.29 9.59993 404.78 11.1699 404.82C12.3386 404.875 13.5035 404.992 14.6599 405.17Z" fill="#F4F4F4"/>
<path d="M34.89 427.27C31.74 428.07 31 426.08 30.59 424.44C29.59 420.44 29.05 416.86 28.3 414.6C27.42 411.94 26.5 411.51 25.2 410.99C23.69 410.38 22.38 411.67 22.88 415.06C23.5036 418.997 24.4707 422.872 25.77 426.64C26.23 428.336 27.1184 429.886 28.35 431.14C29.98 432.46 32.43 432.4 36.13 431.48C38.3 430.741 40.4069 429.828 42.43 428.75C43.23 428.38 43.85 428.13 45.43 427.41C46.9952 426.726 48.3687 425.668 49.43 424.33C50.23 423.16 50.34 422.61 50.18 422.33C50.02 422.05 49.6 422.07 49.18 422.56C48.5593 423.388 47.7936 424.096 46.92 424.65C46.92 424.65 47.92 423.65 48.45 422.96C48.9357 422.351 49.336 421.678 49.64 420.96C49.93 420.28 49.34 419.36 48.89 419.84C48.44 420.32 48.24 420.84 47.42 421.84C46.9918 422.361 46.5015 422.828 45.96 423.23C46.4674 422.548 46.9189 421.825 47.31 421.07C47.6609 420.464 47.8309 419.77 47.8 419.07C47.8 418.72 47.27 418.3 46.8 418.97C46.313 419.925 45.7083 420.815 45 421.62C44.28 422.37 43.67 422.8 43.65 422.62C43.63 422.44 44.09 422 44.34 421.14C44.59 420.28 44.34 419.35 43.86 419.25C43.38 419.15 43.47 419.17 43.09 419.99C42.5562 420.824 42.0785 421.693 41.66 422.59C41.4133 423.428 40.9672 424.193 40.36 424.82C39.6 425.61 37.89 426.52 34.89 427.27Z" fill="#FFCEA9"/>
<path d="M24 410.45C26.1 410.14 27.59 411.09 28.52 414.27C29.45 417.45 30.09 420.07 30.09 420.07C29.2599 421.272 27.9999 422.11 26.57 422.41C24.06 423.02 23.15 421.82 23.15 421.82C23.15 421.82 22.45 418.48 22.02 416.21C21.59 413.94 21.44 410.83 24 410.45Z" fill="#EDEDED"/>
<path d="M25.08 394.14C25.08 394.14 28.4 389.09 21.2 388.06C16.01 387.32 12.67 390.65 12.29 394.27C11.92 397.73 14.05 401.32 15.58 402.75C17.0917 403.135 18.6926 402.942 20.07 402.21C20.1558 401.266 20.1892 400.318 20.17 399.37C20.17 399.37 17.64 394.05 25.08 394.14Z" fill="#3A2C6D"/>
<path d="M39.4899 458.05V442.88L27.4399 449.91L32.0799 459.5L39.4899 458.05Z" fill="#C4C7D6"/>
<path d="M31.59 443.75L36.21 441.07L39.48 442.96L34.69 445.68L31.59 443.75Z" fill="#D6D8E5"/>
<path opacity="0.4" d="M222.1 375L165.18 342.14C161.07 339.77 161.59 335.63 166.33 332.89L203.21 311.6L275 353.08L238.13 374.37C233.38 377.11 226.21 377.4 222.1 375Z" fill="#D6D8E5"/>
<path d="M226.26 372.59L169.33 339.72C165.23 337.35 165.75 333.22 170.48 330.48L207.36 309.19L279.15 350.63L242.27 371.93C237.53 374.66 230.36 375 226.26 372.59Z" fill="#B1B4C4"/>
<path d="M279.15 350.63V348.46L275.84 350.37L279.15 350.63Z" fill="#B1B4C4"/>
<path d="M166.56 335.81V333.6L169.97 335.01L166.56 335.81Z" fill="#B1B4C4"/>
<path d="M226.26 370.42L169.33 337.55C165.23 335.18 165.75 331.04 170.48 328.31L207.36 307L279.15 348.45L242.27 369.74C237.53 372.49 230.36 372.78 226.26 370.42Z" fill="#D6D8E5"/>
<path d="M207.56 307.11L198.67 277.63L271.24 319.26L279.15 348.46L207.56 307.11Z" fill="#9EA1AF"/>
<path d="M277.05 349.67L279.15 348.46L276 346L277.05 349.67Z" fill="#9EA1AF"/>
<path d="M205.27 308.22L196.38 278.74L268.95 320.37L277.05 349.67L205.27 308.22Z" fill="#B1B4C4"/>
<path d="M389.49 399.35L108.58 237.17C104.64 234.89 101.45 228.79 101.45 223.54V6.25001C101.45 1.00001 104.64 -1.41999 108.58 0.860006L389.49 163C393.43 165.27 396.62 171.37 396.62 176.63V394C396.62 399.21 393.43 401.63 389.49 399.35Z" fill="#C4C7D6"/>
<path d="M390.93 401.59L394.05 399.8L392.7 390.57L390.93 401.59Z" fill="#C4C7D6"/>
<path d="M100.94 2.18999L104 0.429993L108.4 2.93999C108.4 2.93999 103.71 3.64999 103.6 3.61999C103.49 3.58999 100.94 2.18999 100.94 2.18999Z" fill="#B1B4C4"/>
<path d="M386.91 400.84L106 238.66C102.06 236.38 98.86 230.28 98.86 225.03V7.74003C98.86 2.48003 102.06 0.0700278 106 2.34003L386.9 164.52C390.84 166.8 394.04 172.9 394.04 178.16V395.44C394.05 400.7 390.85 403.11 386.91 400.84Z" fill="#E4E7F2"/>
<path d="M386.42 401.12L105.51 238.94C101.57 236.66 98.38 230.56 98.38 225.31V8.00001C98.38 2.75001 101.57 0.330006 105.51 2.61001L386.42 164.81C390.36 167.08 393.55 173.18 393.55 178.44V395.73C393.55 401 390.36 403.4 386.42 401.12Z" fill="#201D38"/>
<path opacity="0.3" d="M389.69 387.91L101.94 221.78L102.09 8.88999C102.09 6.70999 103.62 5.82999 105.51 6.88999L386.42 169.1C387.416 169.748 388.244 170.622 388.839 171.651C389.433 172.679 389.776 173.834 389.84 175.02L389.69 387.91Z" fill="url(#paint0_linear_309_4)"/>
<path d="M276.62 142.08L257.55 131.07V124.19L276.62 135.2V142.08Z" fill="#A298E2"/>
<path d="M320.7 167.55L280.19 144.14V137.26L320.7 160.67V167.55Z" fill="#F4CE2C"/>
<path d="M276.62 164.09L257.55 153.09V146.21L276.62 157.21V164.09Z" fill="#A298E2"/>
<path d="M293.61 174.07L280.19 166.16V159.28L293.61 167.19V174.07Z" fill="#4D3BFF"/>
<path d="M276.62 175.1L257.55 164.09V157.21L276.62 168.22V175.1Z" fill="#A298E2"/>
<path d="M302.83 190.23L280.19 177.16V170.28L302.83 183.35V190.23Z" fill="#4D3BFF"/>
<path d="M276.62 186.1L257.55 175.1V168.22L276.62 179.23V186.1Z" fill="#A298E2"/>
<path d="M339.9 222.56L280.19 188.17V181.29L339.9 215.69V222.56Z" fill="#FF8657"/>
<path d="M276.62 153.09L257.55 142.08V135.2L276.62 146.21V153.09Z" fill="#A298E2"/>
<path d="M354.57 198.14L280.19 155.15V148.27L354.57 191.26V198.14Z" fill="#A298E2"/>
<path d="M276.62 197.11L257.55 186.1V179.22L276.62 190.23V197.11Z" fill="#A298E2"/>
<path d="M344.53 237.01L280.19 199.18V192.3L344.53 230.13V237.01Z" fill="#C33AFC"/>
<path d="M276.62 219.13L257.55 208.12V201.24L276.62 212.25V219.13Z" fill="#A298E2"/>
<path d="M355.26 264.53L280.19 221.19V214.31L355.26 257.65V264.53Z" fill="#A298E2"/>
<path d="M276.62 230.13L257.55 219.13V212.25L276.62 223.25V230.13Z" fill="#A298E2"/>
<path d="M302.83 245.27L280.19 232.19V225.32L302.83 238.39V245.27Z" fill="#C33AFC"/>
<path d="M276.62 241.14L257.55 230.13V223.25L276.62 234.26V241.14Z" fill="#A298E2"/>
<path d="M326.45 270.03L280.19 243.2V236.32L326.45 263.15V270.03Z" fill="#4D3BFF"/>
<path d="M276.62 208.12L257.55 197.11V190.23L276.62 201.24V208.12Z" fill="#A298E2"/>
<path d="M288.53 215L280.19 210.18V203.3L288.53 208.12V215Z" fill="#4D3BFF"/>
<path d="M276.62 252.15L257.55 241.14V234.26L276.62 245.27V252.15Z" fill="#A298E2"/>
<path d="M310.05 271.41L280.19 254.21V247.33L310.05 264.53V271.41Z" fill="#C33AFC"/>
<path d="M276.62 274.16L257.55 263.15V256.27L276.62 267.28V274.16Z" fill="#A298E2"/>
<path d="M323.76 301.06L280.19 276.22V269.34L323.76 294.18V301.06Z" fill="#FF8657"/>
<path d="M276.62 285.17L257.55 274.16V267.28L276.62 278.29V285.17Z" fill="#A298E2"/>
<path d="M285.63 290.67L280.19 287.23V280.35L285.63 283.79V290.67Z" fill="#A298E2"/>
<path d="M276.62 296.17L257.55 285.17V278.29L276.62 289.29V296.17Z" fill="#A298E2"/>
<path d="M305.18 312.63L280.19 298.24V291.36L305.18 305.75V312.63Z" fill="#F4CE2C"/>
<path d="M276.62 263.15L257.55 252.15V245.26L276.62 256.27V263.15Z" fill="#A298E2"/>
<path d="M314.96 285.17L280.19 265.21V258.34L314.96 278.29V285.17Z" fill="#4D3BFF"/>
<path d="M153.28 73.29L134.21 62.28V55.4L153.28 66.41V73.29Z" fill="#A298E2"/>
<path d="M237.88 122.13L156.85 75.35V68.47L237.88 115.25V122.13Z" fill="#C33AFC"/>
<path d="M153.28 95.3L134.21 84.29V77.41L153.28 88.42V95.3Z" fill="#A298E2"/>
<path d="M210.47 128.32L156.85 97.36V90.48L210.47 121.44V128.32Z" fill="#F4CE2C"/>
<path d="M153.28 106.31L134.21 95.3V88.42L153.28 99.43V106.31Z" fill="#A298E2"/>
<path d="M223.58 146.89L156.85 108.37V101.49L223.58 140.01V146.89Z" fill="#FF8657"/>
<path d="M153.28 117.31L134.21 106.31V99.4301L153.28 110.43V117.31Z" fill="#A298E2"/>
<path d="M203.32 146.21L156.85 119.38V112.5L203.32 139.33V146.21Z" fill="#A298E2"/>
<path d="M153.28 84.29L134.21 73.28V66.41L153.28 77.41V84.29Z" fill="#A298E2"/>
<path d="M197.36 109.75L156.85 86.36V79.48L197.36 102.87V109.75Z" fill="#4D3BFF"/>
<path d="M153.28 128.32L134.21 117.31V110.43L153.28 121.44V128.32Z" fill="#A298E2"/>
<path d="M180.68 144.14L156.85 130.38V123.5L180.68 137.26V144.14Z" fill="#C33AFC"/>
<path d="M153.28 150.33L134.21 139.32V132.45L153.28 143.45V150.33Z" fill="#A298E2"/>
<path d="M231.92 195.74L156.85 152.4V145.52L231.92 188.86V195.74Z" fill="#F4CE2C"/>
<path d="M153.28 161.34L134.21 150.33V143.45L153.28 154.46V161.34Z" fill="#A298E2"/>
<path d="M179.49 176.47L156.85 163.4V156.52L179.49 169.59V176.47Z" fill="#FF8657"/>
<path d="M153.28 172.35L134.21 161.34V154.46L153.28 165.47V172.35Z" fill="#A298E2"/>
<path d="M223.58 212.93L156.85 174.41V167.53L223.58 206.06V212.93Z" fill="#A298E2"/>
<path d="M153.28 139.33L134.21 128.32V121.44L153.28 132.45V139.33Z" fill="#A298E2"/>
<path d="M220 177.85L156.85 141.39V134.51L220 170.97V177.85Z" fill="#4D3BFF"/>
<path d="M153.28 183.35L134.21 172.34V165.47L153.28 176.47V183.35Z" fill="#A298E2"/>
<path d="M165.19 190.23L156.85 185.42V178.54L165.19 183.35V190.23Z" fill="#C33AFC"/>
<path d="M153.28 205.37L134.21 194.36V187.48L153.28 198.49V205.37Z" fill="#A298E2"/>
<path d="M172.34 216.37L156.85 207.43V200.55L172.34 209.49V216.37Z" fill="#F4CE2C"/>
<path d="M153.28 216.37L134.21 205.37V198.49L153.28 209.49V216.37Z" fill="#A298E2"/>
<path d="M197.36 241.83L156.85 218.44V211.56L197.36 234.95V241.83Z" fill="#FF8657"/>
<path d="M153.28 227.38L134.21 216.37V209.49L153.28 220.5V227.38Z" fill="#A298E2"/>
<path d="M221.19 266.59L156.85 229.44V222.56L221.19 259.71V266.59Z" fill="#A298E2"/>
<path d="M153.28 194.36L134.21 183.35V176.47L153.28 187.48V194.36Z" fill="#A298E2"/>
<path d="M237.88 243.2L156.85 196.42V189.54L237.88 236.32V243.2Z" fill="#4D3BFF"/>
<path opacity="0.4" d="M299.75 500C322.857 500 341.59 489.183 341.59 475.84C341.59 462.497 322.857 451.68 299.75 451.68C276.642 451.68 257.91 462.497 257.91 475.84C257.91 489.183 276.642 500 299.75 500Z" fill="#D6D8E5"/>
<path d="M345.7 472.41V408L262.19 410.1L262.37 469.5C260.81 476.65 264.77 484.12 274.28 489.61C290.62 499.04 317.11 499.05 333.45 489.61C341.66 484.84 345.74 478.62 345.7 472.41Z" fill="#A6CE28"/>
<path d="M303.86 432.13C326.968 432.13 345.7 421.313 345.7 407.97C345.7 394.627 326.968 383.81 303.86 383.81C280.752 383.81 262.02 394.627 262.02 407.97C262.02 421.313 280.752 432.13 303.86 432.13Z" fill="#BCD64D"/>
<path d="M339.09 408C339.09 411.93 335.82 416.06 330.14 419.35C323.94 422.91 315.47 425.11 306.55 425.47C305.66 425.47 304.77 425.53 303.87 425.53C293.97 425.53 284.4 423.27 277.59 419.35C271.91 416.06 268.64 411.93 268.64 408C268.64 404.07 271.91 399.94 277.59 396.65C284.4 392.72 293.97 390.46 303.86 390.46C304.76 390.46 305.66 390.46 306.55 390.52C315.47 390.88 323.94 393.08 330.14 396.65C335.82 399.91 339.09 404 339.09 408Z" fill="#28221C"/>
<path opacity="0.07" d="M339.09 408C339.09 411.93 335.82 416.06 330.14 419.35C323.94 422.91 315.47 425.11 306.55 425.47C297.63 425.11 289.15 422.91 282.96 419.35C277.27 416 274 411.9 274 408C274 404.1 277.26 399.94 282.94 396.65C289.14 393.08 297.62 390.88 306.54 390.52C315.46 390.88 323.93 393.08 330.13 396.65C335.82 399.91 339.09 404 339.09 408Z" fill="white"/>
<path d="M339.58 437.81L330.7 432.67L326.38 435.17L330.7 437.67V439.31L339.03 444.11L338.78 445.65C339.99 446.65 344.3 454.65 344.3 454.65L344.6 454.37V475.1C344.6 480.54 341.41 478.7 340.05 477.91L330.7 472.51L326.38 475L330.7 477.49V479.13L340.05 484.53C340.995 485.097 342.001 485.553 343.05 485.89L342.49 488.49L347.33 485.76H347.4H347.47C349.47 484.58 350.32 481.71 350.32 478.49V456.74C350.36 447.55 343.31 440.34 339.58 437.81Z" fill="#8DA01F"/>
<path d="M335.73 487.06L326.38 481.66V475L335.73 480.4C337.09 481.18 340.28 483.03 340.28 477.58V455.93C340.28 450.81 335.65 447.27 334.86 446.71L326.38 441.81V435.17L335.26 440.31C339 442.84 346 450.06 346 459.25V480.92C346 486.77 343.33 491.44 335.73 487.06Z" fill="#99B524"/>
<path opacity="0.4" d="M41.3701 372.01C57.2814 372.01 70.1801 364.56 70.1801 355.37C70.1801 346.18 57.2814 338.73 41.3701 338.73C25.4587 338.73 12.5601 346.18 12.5601 355.37C12.5601 364.56 25.4587 372.01 41.3701 372.01Z" fill="#D6D8E5"/>
<path d="M45.48 368.93C61.3914 368.93 74.29 361.48 74.29 352.29C74.29 343.1 61.3914 335.65 45.48 335.65C29.5687 335.65 16.67 343.1 16.67 352.29C16.67 361.48 29.5687 368.93 45.48 368.93Z" fill="#D6D8E5"/>
<path d="M6.91003 295.41L16.99 353.44H74.22L84.05 295.83L6.91003 295.41Z" fill="#D6D8E5"/>
<path d="M45.48 316.98C66.8037 316.98 84.09 307 84.09 294.69C84.09 282.38 66.8037 272.4 45.48 272.4C24.1563 272.4 6.87 282.38 6.87 294.69C6.87 307 24.1563 316.98 45.48 316.98Z" fill="#E4E6EF"/>
<path d="M45.48 312.06C36.02 312.06 27.2 309.98 20.64 306.19C15.01 302.95 11.79 298.75 11.79 294.69C11.79 290.63 15.01 286.43 20.64 283.19C27.19 279.4 36.02 277.32 45.48 277.32C54.94 277.32 63.77 279.4 70.32 283.19C75.95 286.43 79.17 290.63 79.17 294.69C79.17 298.75 76 303 70.32 306.19C63.77 310 55 312.06 45.48 312.06Z" fill="#28221C"/>
<path d="M62.09 277.13C62.6364 269.631 61.4423 262.107 58.601 255.146C55.7596 248.185 51.3478 241.975 45.71 237L45.6 236.89V237.1C39.957 242.075 35.5412 248.288 32.6979 255.253C29.8546 262.219 28.6609 269.747 29.21 277.25L7.12 275.12C16.44 310.23 45.71 307.21 45.71 307.21V307.14C47.92 307.31 75.22 308.72 84.15 275.04L62.09 277.13Z" fill="#99B524"/>
<path d="M45.71 307.21C45.71 307.21 43.71 279.87 7.03002 261.46C7.00002 261.46 -1.65998 306.88 45.71 307.21Z" fill="#A6CE28"/>
<path d="M45.48 307.21C45.48 307.21 47.48 279.87 84.16 261.46C84.16 261.46 92.85 306.88 45.48 307.21Z" fill="#A6CE28"/>
<defs>
<linearGradient id="paint0_linear_309_4" x1="101.94" y1="197.18" x2="389.84" y2="197.18" gradientUnits="userSpaceOnUse">
<stop offset="0.21" stop-color="white" stop-opacity="0"/>
<stop offset="1" stop-color="white" stop-opacity="0.2"/>
</linearGradient>
</defs>
</svg>
