<svg width="421" height="118" viewBox="0 0 421 118" fill="none" xmlns="http://www.w3.org/2000/svg">
<path d="M31.527 29.7151C38.0337 29.7151 43.687 31.9818 48.487 36.5151L42.247 43.0751C40.4337 41.6351 38.7537 40.5951 37.207 39.9551C35.7137 39.3151 34.007 38.9951 32.087 38.9951C28.3537 38.9951 25.4737 40.5418 23.447 43.6351C21.4204 46.6751 20.407 51.7151 20.407 58.7551C20.407 63.8218 20.7537 67.7951 21.447 70.6751C22.1404 73.5018 23.1804 75.5018 24.567 76.6751C25.9537 77.8485 27.7937 78.4351 30.087 78.4351C32.487 78.4351 34.6204 77.8485 36.487 76.6751V63.7151H30.327L29.127 54.6751H48.647V82.1151C46.0337 83.9285 43.127 85.3418 39.927 86.3551C36.727 87.3685 33.527 87.8751 30.327 87.8751C22.487 87.8751 16.647 85.4751 12.807 80.6751C9.02037 75.8218 7.12704 68.5151 7.12704 58.7551C7.12704 52.4618 8.1937 47.1285 10.327 42.7551C12.4604 38.3818 15.367 35.1285 19.047 32.9951C22.727 30.8085 26.887 29.7151 31.527 29.7151ZM73.2745 42.6751C79.2479 42.6751 83.9145 44.6218 87.2745 48.5151C90.6879 52.3551 92.3945 57.9551 92.3945 65.3151C92.3945 72.3551 90.6879 77.8751 87.2745 81.8751C83.8612 85.8751 79.1945 87.8751 73.2745 87.8751C67.3012 87.8751 62.6345 85.9285 59.2745 82.0351C55.9145 78.1418 54.2345 72.5418 54.2345 65.2351C54.2345 58.1418 55.9145 52.6218 59.2745 48.6751C62.6879 44.6751 67.3545 42.6751 73.2745 42.6751ZM73.2745 51.7951C71.0879 51.7951 69.4879 52.8351 68.4745 54.9151C67.4612 56.9951 66.9545 60.4351 66.9545 65.2351C66.9545 70.1418 67.4612 73.6351 68.4745 75.7151C69.4879 77.7951 71.0879 78.8351 73.2745 78.8351C75.4612 78.8351 77.0612 77.7951 78.0745 75.7151C79.1412 73.5818 79.6745 70.1151 79.6745 65.3151C79.6745 60.4085 79.1679 56.9418 78.1545 54.9151C77.1412 52.8351 75.5145 51.7951 73.2745 51.7951ZM116.009 42.6751C121.982 42.6751 126.649 44.6218 130.009 48.5151C133.422 52.3551 135.129 57.9551 135.129 65.3151C135.129 72.3551 133.422 77.8751 130.009 81.8751C126.596 85.8751 121.929 87.8751 116.009 87.8751C110.036 87.8751 105.369 85.9285 102.009 82.0351C98.6489 78.1418 96.9689 72.5418 96.9689 65.2351C96.9689 58.1418 98.6489 52.6218 102.009 48.6751C105.422 44.6751 110.089 42.6751 116.009 42.6751ZM116.009 51.7951C113.822 51.7951 112.222 52.8351 111.209 54.9151C110.196 56.9951 109.689 60.4351 109.689 65.2351C109.689 70.1418 110.196 73.6351 111.209 75.7151C112.222 77.7951 113.822 78.8351 116.009 78.8351C118.196 78.8351 119.796 77.7951 120.809 75.7151C121.876 73.5818 122.409 70.1151 122.409 65.3151C122.409 60.4085 121.902 56.9418 120.889 54.9151C119.876 52.8351 118.249 51.7951 116.009 51.7951ZM176.743 27.1551V86.5151H165.863L165.303 81.7951C162.583 85.8485 158.983 87.8751 154.503 87.8751C149.757 87.8751 146.13 85.9018 143.623 81.9551C141.117 77.9551 139.863 72.3818 139.863 65.2351C139.863 60.7551 140.503 56.8085 141.783 53.3951C143.117 49.9818 144.957 47.3418 147.303 45.4751C149.703 43.6085 152.45 42.6751 155.543 42.6751C159.117 42.6751 162.077 43.9818 164.423 46.5951V25.8751L176.743 27.1551ZM158.423 78.8351C159.65 78.8351 160.743 78.4885 161.703 77.7951C162.663 77.0485 163.57 75.9285 164.423 74.4351V55.1551C163.57 53.9818 162.717 53.1285 161.863 52.5951C161.063 52.0085 160.103 51.7151 158.983 51.7151C154.717 51.7151 152.583 56.2218 152.583 65.2351C152.583 70.3018 153.09 73.8485 154.103 75.8751C155.117 77.8485 156.557 78.8351 158.423 78.8351ZM228.097 42.6751C231.137 42.6751 233.564 43.7951 235.377 46.0351C237.244 48.2751 238.177 51.2885 238.177 55.0751V86.5151H226.017V56.6751C226.017 53.4751 225.057 51.8751 223.137 51.8751C221.27 51.8751 219.484 53.5551 217.777 56.9151V86.5151H205.617V56.6751C205.617 53.4751 204.684 51.8751 202.817 51.8751C201.75 51.8751 200.79 52.3018 199.937 53.1551C199.084 54.0085 198.23 55.2618 197.377 56.9151V86.5151H185.137V44.0351H195.937L196.737 49.0751C199.67 44.8085 203.35 42.6751 207.777 42.6751C209.91 42.6751 211.75 43.2618 213.297 44.4351C214.844 45.5551 215.99 47.2085 216.737 49.3951C218.284 47.1551 219.964 45.4751 221.777 44.3551C223.644 43.2351 225.75 42.6751 228.097 42.6751ZM263.353 42.6751C269.326 42.6751 273.993 44.6218 277.353 48.5151C280.766 52.3551 282.473 57.9551 282.473 65.3151C282.473 72.3551 280.766 77.8751 277.353 81.8751C273.939 85.8751 269.273 87.8751 263.353 87.8751C257.379 87.8751 252.713 85.9285 249.353 82.0351C245.993 78.1418 244.313 72.5418 244.313 65.2351C244.313 58.1418 245.993 52.6218 249.353 48.6751C252.766 44.6751 257.433 42.6751 263.353 42.6751ZM263.353 51.7951C261.166 51.7951 259.566 52.8351 258.553 54.9151C257.539 56.9951 257.033 60.4351 257.033 65.2351C257.033 70.1418 257.539 73.6351 258.553 75.7151C259.566 77.7951 261.166 78.8351 263.353 78.8351C265.539 78.8351 267.139 77.7951 268.153 75.7151C269.219 73.5818 269.753 70.1151 269.753 65.3151C269.753 60.4085 269.246 56.9418 268.233 54.9151C267.219 52.8351 265.593 51.7951 263.353 51.7951ZM313.687 84.5151C312.247 85.5818 310.567 86.4085 308.647 86.9951C306.78 87.5818 304.887 87.8751 302.967 87.8751C298.647 87.8751 295.394 86.6485 293.207 84.1951C291.02 81.7418 289.927 78.3018 289.927 73.8751V52.5951H284.807V44.0351H289.927V34.8351L302.247 33.3951V44.0351H310.967L309.687 52.5951H302.247V73.7151C302.247 76.6485 303.367 78.1151 305.607 78.1151C306.834 78.1151 308.167 77.7151 309.607 76.9151L313.687 84.5151ZM329.332 44.0351V86.5151H317.012V44.0351H329.332ZM323.092 21.8751C325.172 21.8751 326.879 22.5418 328.212 23.8751C329.599 25.2085 330.292 26.8618 330.292 28.8351C330.292 30.8618 329.599 32.5418 328.212 33.8751C326.879 35.2085 325.172 35.8751 323.092 35.8751C321.012 35.8751 319.305 35.2085 317.972 33.8751C316.639 32.5418 315.972 30.8618 315.972 28.8351C315.972 26.8618 316.639 25.2085 317.972 23.8751C319.305 22.5418 321.012 21.8751 323.092 21.8751ZM354.915 42.6751C360.889 42.6751 365.555 44.6218 368.915 48.5151C372.329 52.3551 374.035 57.9551 374.035 65.3151C374.035 72.3551 372.329 77.8751 368.915 81.8751C365.502 85.8751 360.835 87.8751 354.915 87.8751C348.942 87.8751 344.275 85.9285 340.915 82.0351C337.555 78.1418 335.875 72.5418 335.875 65.2351C335.875 58.1418 337.555 52.6218 340.915 48.6751C344.329 44.6751 348.995 42.6751 354.915 42.6751ZM354.915 51.7951C352.729 51.7951 351.129 52.8351 350.115 54.9151C349.102 56.9951 348.595 60.4351 348.595 65.2351C348.595 70.1418 349.102 73.6351 350.115 75.7151C351.129 77.7951 352.729 78.8351 354.915 78.8351C357.102 78.8351 358.702 77.7951 359.715 75.7151C360.782 73.5818 361.315 70.1151 361.315 65.3151C361.315 60.4085 360.809 56.9418 359.795 54.9151C358.782 52.8351 357.155 51.7951 354.915 51.7951ZM403.65 42.6751C406.956 42.6751 409.543 43.7951 411.41 46.0351C413.33 48.2218 414.29 51.2351 414.29 55.0751V86.5151H401.97V56.7551C401.97 54.9951 401.703 53.7685 401.17 53.0751C400.69 52.3285 399.943 51.9551 398.93 51.9551C397.863 51.9551 396.823 52.4085 395.81 53.3151C394.85 54.1685 393.836 55.4485 392.77 57.1551V86.5151H380.45V44.0351H391.25L392.13 49.0751C393.676 46.9418 395.383 45.3418 397.25 44.2751C399.116 43.2085 401.25 42.6751 403.65 42.6751Z" fill="#F9C907"/>
<path d="M29.527 28.2C36.0337 28.2 41.687 30.4667 46.487 35L40.247 41.56C38.4337 40.12 36.7537 39.08 35.207 38.44C33.7137 37.8 32.007 37.48 30.087 37.48C26.3537 37.48 23.4737 39.0267 21.447 42.12C19.4204 45.16 18.407 50.2 18.407 57.24C18.407 62.3067 18.7537 66.28 19.447 69.16C20.1404 71.9867 21.1804 73.9867 22.567 75.16C23.9537 76.3333 25.7937 76.92 28.087 76.92C30.487 76.92 32.6204 76.3333 34.487 75.16V62.2H28.327L27.127 53.16H46.647V80.6C44.0337 82.4133 41.127 83.8267 37.927 84.84C34.727 85.8533 31.527 86.36 28.327 86.36C20.487 86.36 14.647 83.96 10.807 79.16C7.02037 74.3067 5.12704 67 5.12704 57.24C5.12704 50.9467 6.1937 45.6133 8.32704 41.24C10.4604 36.8667 13.367 33.6133 17.047 31.48C20.727 29.2933 24.887 28.2 29.527 28.2ZM71.2745 41.16C77.2479 41.16 81.9145 43.1067 85.2745 47C88.6879 50.84 90.3945 56.44 90.3945 63.8C90.3945 70.84 88.6879 76.36 85.2745 80.36C81.8612 84.36 77.1945 86.36 71.2745 86.36C65.3012 86.36 60.6345 84.4133 57.2745 80.52C53.9145 76.6267 52.2345 71.0267 52.2345 63.72C52.2345 56.6267 53.9145 51.1067 57.2745 47.16C60.6879 43.16 65.3545 41.16 71.2745 41.16ZM71.2745 50.28C69.0879 50.28 67.4879 51.32 66.4745 53.4C65.4612 55.48 64.9545 58.92 64.9545 63.72C64.9545 68.6267 65.4612 72.12 66.4745 74.2C67.4879 76.28 69.0879 77.32 71.2745 77.32C73.4612 77.32 75.0612 76.28 76.0745 74.2C77.1412 72.0667 77.6745 68.6 77.6745 63.8C77.6745 58.8933 77.1679 55.4267 76.1545 53.4C75.1412 51.32 73.5145 50.28 71.2745 50.28ZM114.009 41.16C119.982 41.16 124.649 43.1067 128.009 47C131.422 50.84 133.129 56.44 133.129 63.8C133.129 70.84 131.422 76.36 128.009 80.36C124.596 84.36 119.929 86.36 114.009 86.36C108.036 86.36 103.369 84.4133 100.009 80.52C96.6489 76.6267 94.9689 71.0267 94.9689 63.72C94.9689 56.6267 96.6489 51.1067 100.009 47.16C103.422 43.16 108.089 41.16 114.009 41.16ZM114.009 50.28C111.822 50.28 110.222 51.32 109.209 53.4C108.196 55.48 107.689 58.92 107.689 63.72C107.689 68.6267 108.196 72.12 109.209 74.2C110.222 76.28 111.822 77.32 114.009 77.32C116.196 77.32 117.796 76.28 118.809 74.2C119.876 72.0667 120.409 68.6 120.409 63.8C120.409 58.8933 119.902 55.4267 118.889 53.4C117.876 51.32 116.249 50.28 114.009 50.28ZM174.743 25.64V85H163.863L163.303 80.28C160.583 84.3333 156.983 86.36 152.503 86.36C147.757 86.36 144.13 84.3867 141.623 80.44C139.117 76.44 137.863 70.8667 137.863 63.72C137.863 59.24 138.503 55.2933 139.783 51.88C141.117 48.4667 142.957 45.8267 145.303 43.96C147.703 42.0933 150.45 41.16 153.543 41.16C157.117 41.16 160.077 42.4667 162.423 45.08V24.36L174.743 25.64ZM156.423 77.32C157.65 77.32 158.743 76.9733 159.703 76.28C160.663 75.5333 161.57 74.4133 162.423 72.92V53.64C161.57 52.4667 160.717 51.6133 159.863 51.08C159.063 50.4933 158.103 50.2 156.983 50.2C152.717 50.2 150.583 54.7067 150.583 63.72C150.583 68.7867 151.09 72.3333 152.103 74.36C153.117 76.3333 154.557 77.32 156.423 77.32ZM226.097 41.16C229.137 41.16 231.564 42.28 233.377 44.52C235.244 46.76 236.177 49.7733 236.177 53.56V85H224.017V55.16C224.017 51.96 223.057 50.36 221.137 50.36C219.27 50.36 217.484 52.04 215.777 55.4V85H203.617V55.16C203.617 51.96 202.684 50.36 200.817 50.36C199.75 50.36 198.79 50.7867 197.937 51.64C197.084 52.4933 196.23 53.7467 195.377 55.4V85H183.137V42.52H193.937L194.737 47.56C197.67 43.2933 201.35 41.16 205.777 41.16C207.91 41.16 209.75 41.7467 211.297 42.92C212.844 44.04 213.99 45.6933 214.737 47.88C216.284 45.64 217.964 43.96 219.777 42.84C221.644 41.72 223.75 41.16 226.097 41.16ZM261.353 41.16C267.326 41.16 271.993 43.1067 275.353 47C278.766 50.84 280.473 56.44 280.473 63.8C280.473 70.84 278.766 76.36 275.353 80.36C271.939 84.36 267.273 86.36 261.353 86.36C255.379 86.36 250.713 84.4133 247.353 80.52C243.993 76.6267 242.313 71.0267 242.313 63.72C242.313 56.6267 243.993 51.1067 247.353 47.16C250.766 43.16 255.433 41.16 261.353 41.16ZM261.353 50.28C259.166 50.28 257.566 51.32 256.553 53.4C255.539 55.48 255.033 58.92 255.033 63.72C255.033 68.6267 255.539 72.12 256.553 74.2C257.566 76.28 259.166 77.32 261.353 77.32C263.539 77.32 265.139 76.28 266.153 74.2C267.219 72.0667 267.753 68.6 267.753 63.8C267.753 58.8933 267.246 55.4267 266.233 53.4C265.219 51.32 263.593 50.28 261.353 50.28ZM311.687 83C310.247 84.0667 308.567 84.8933 306.647 85.48C304.78 86.0667 302.887 86.36 300.967 86.36C296.647 86.36 293.394 85.1333 291.207 82.68C289.02 80.2267 287.927 76.7867 287.927 72.36V51.08H282.807V42.52H287.927V33.32L300.247 31.88V42.52H308.967L307.687 51.08H300.247V72.2C300.247 75.1333 301.367 76.6 303.607 76.6C304.834 76.6 306.167 76.2 307.607 75.4L311.687 83ZM327.332 42.52V85H315.012V42.52H327.332ZM321.092 20.36C323.172 20.36 324.879 21.0267 326.212 22.36C327.599 23.6933 328.292 25.3467 328.292 27.32C328.292 29.3467 327.599 31.0267 326.212 32.36C324.879 33.6933 323.172 34.36 321.092 34.36C319.012 34.36 317.305 33.6933 315.972 32.36C314.639 31.0267 313.972 29.3467 313.972 27.32C313.972 25.3467 314.639 23.6933 315.972 22.36C317.305 21.0267 319.012 20.36 321.092 20.36ZM352.915 41.16C358.889 41.16 363.555 43.1067 366.915 47C370.329 50.84 372.035 56.44 372.035 63.8C372.035 70.84 370.329 76.36 366.915 80.36C363.502 84.36 358.835 86.36 352.915 86.36C346.942 86.36 342.275 84.4133 338.915 80.52C335.555 76.6267 333.875 71.0267 333.875 63.72C333.875 56.6267 335.555 51.1067 338.915 47.16C342.329 43.16 346.995 41.16 352.915 41.16ZM352.915 50.28C350.729 50.28 349.129 51.32 348.115 53.4C347.102 55.48 346.595 58.92 346.595 63.72C346.595 68.6267 347.102 72.12 348.115 74.2C349.129 76.28 350.729 77.32 352.915 77.32C355.102 77.32 356.702 76.28 357.715 74.2C358.782 72.0667 359.315 68.6 359.315 63.8C359.315 58.8933 358.809 55.4267 357.795 53.4C356.782 51.32 355.155 50.28 352.915 50.28ZM401.65 41.16C404.956 41.16 407.543 42.28 409.41 44.52C411.33 46.7067 412.29 49.72 412.29 53.56V85H399.97V55.24C399.97 53.48 399.703 52.2533 399.17 51.56C398.69 50.8133 397.943 50.44 396.93 50.44C395.863 50.44 394.823 50.8933 393.81 51.8C392.85 52.6533 391.836 53.9333 390.77 55.64V85H378.45V42.52H389.25L390.13 47.56C391.676 45.4267 393.383 43.8267 395.25 42.76C397.116 41.6933 399.25 41.16 401.65 41.16Z" fill="#08556C"/>
</svg>
