<svg width="129" height="133" viewBox="0 0 129 133" fill="none" xmlns="http://www.w3.org/2000/svg">
<path fill-rule="evenodd" clip-rule="evenodd" d="M78.7993 2.43664C79.5929 3.42259 79.998 4.75282 80.8078 7.41377L98.4975 65.5424C91.8529 62.0932 84.7212 59.678 77.3485 58.3802L65.8307 19.4463C65.7389 19.1357 65.549 18.8633 65.2895 18.6696C65.03 18.476 64.7148 18.3716 64.3911 18.372C64.0673 18.3725 63.7524 18.4778 63.4934 18.6721C63.2345 18.8665 63.0454 19.1395 62.9544 19.4503L51.5762 58.3605C44.1702 59.6523 37.0057 62.0713 30.332 65.5333L48.1083 7.40066C48.9206 4.74425 49.3268 3.41654 50.1209 2.43211C50.8218 1.56322 51.7334 0.888343 52.769 0.471804C53.9421 0 55.3308 0 58.1079 0H70.8043C73.5848 0 74.9751 0 76.1492 0.472812C77.1854 0.890952 78.0975 1.56693 78.7993 2.43664V2.43664Z" fill="black"/>
<path fill-rule="evenodd" clip-rule="evenodd" d="M80.9157 68.3086C77.9996 70.8032 72.179 72.5044 65.4745 72.5044C57.2457 72.5044 50.3487 69.9418 48.518 66.495C47.864 68.4709 47.7173 70.7311 47.7173 72.1753C47.7173 72.1753 47.286 79.2665 52.2167 84.1982C52.2168 83.5893 52.3367 82.9863 52.5698 82.4238C52.8028 81.8613 53.1443 81.3501 53.5748 80.9196C54.0052 80.4891 54.5163 80.1476 55.0787 79.9146C55.6411 79.6816 56.2439 79.5618 56.8526 79.5618C61.2402 79.5618 61.2351 83.3907 61.2316 86.4978L61.2311 86.775C61.2311 91.4905 64.1124 95.5331 68.2102 97.2378C67.5795 95.9392 67.2528 94.514 67.2548 93.0702C67.2548 88.5725 69.8942 86.8975 72.962 84.9508C75.4034 83.4023 78.1155 81.6819 79.9845 78.2306C80.991 76.3713 81.5166 74.2897 81.5133 72.1753C81.5146 70.8635 81.313 69.5593 80.9157 68.3091V68.3086Z" fill="#FF5D01"/>
<path fill-rule="evenodd" clip-rule="evenodd" d="M80.9157 68.3086C77.9996 70.8032 72.179 72.5044 65.4745 72.5044C57.2457 72.5044 50.3487 69.9418 48.518 66.495C47.864 68.4709 47.7173 70.7311 47.7173 72.1753C47.7173 72.1753 47.286 79.2665 52.2167 84.1982C52.2168 83.5893 52.3367 82.9863 52.5698 82.4238C52.8028 81.8613 53.1443 81.3501 53.5748 80.9196C54.0052 80.4891 54.5163 80.1476 55.0787 79.9146C55.6411 79.6816 56.2439 79.5618 56.8526 79.5618C61.2402 79.5618 61.2351 83.3907 61.2316 86.4978L61.2311 86.775C61.2311 91.4905 64.1124 95.5331 68.2102 97.2378C67.5795 95.9392 67.2528 94.514 67.2548 93.0702C67.2548 88.5725 69.8942 86.8975 72.962 84.9508C75.4034 83.4023 78.1155 81.6819 79.9845 78.2306C80.991 76.3713 81.5166 74.2897 81.5133 72.1753C81.5146 70.8635 81.313 69.5593 80.9157 68.3091V68.3086Z" fill="url(#paint0_linear_201_19)"/>
<path fill-rule="evenodd" clip-rule="evenodd" d="M14.1164 111.721C22.1154 111.721 26.311 114.584 26.311 119.996V125.271C26.314 127.768 26.3563 129.154 26.507 130.468L26.5382 130.73C26.5931 131.167 26.6602 131.603 26.7423 132.078H22.8602C22.6642 130.823 22.5861 129.45 22.5861 127.998C20.2727 131.254 16.3125 132.823 9.76369 132.823C3.84279 132.823 0 130.665 0 126.939C0 125.174 0.744774 123.644 2.07811 122.664C3.49005 121.644 5.33284 120.938 10.3124 120.663L22.5468 119.958V119.565C22.5468 116.427 19.41 114.584 14.1164 114.584C8.74428 114.584 5.48955 116.114 4.86219 119.016H0.745781C1.37314 114.701 6.39205 111.72 14.1169 111.72L14.1164 111.721ZM43.7764 111.721C50.5206 111.721 54.8729 113.525 56.8336 116.584L53.6575 118.114C51.7754 115.682 48.9127 114.584 43.4231 114.584C38.6002 114.584 36.3649 115.643 36.3649 117.682C36.3649 119.29 37.8161 120.036 40.4037 120.232L49.9326 120.977C55.0301 121.409 57.0296 123.056 57.0296 126.272C57.0296 130.156 53.7749 132.823 45.6584 132.823C38.4828 132.823 34.2868 130.783 31.8947 127.175L34.9928 125.488C36.7574 128.351 40.4037 129.92 46.1679 129.92C50.9127 129.92 53.3047 128.822 53.3047 126.508C53.3047 124.9 52.3634 124.272 49.2659 124.036L39.8156 123.291C35.1495 122.899 32.6793 121.252 32.6793 117.84C32.6793 114.035 36.8355 111.72 43.7764 111.72V111.721ZM114.923 111.721C123.275 111.721 129 115.956 129 122.272C129 128.587 123.275 132.823 114.923 132.823C106.571 132.823 100.846 128.587 100.846 122.272C100.846 115.956 106.571 111.72 114.923 111.72V111.721ZM68.817 105.837V112.465H78.62V115.407H68.817V124.507C68.817 127.88 70.6603 129.214 74.0712 129.214C75.6787 129.214 77.3264 128.979 78.6986 128.665V131.842C77.718 132.274 75.4831 132.627 73.6404 132.627C66.3861 132.627 65.0528 128.743 65.0528 124.861V115.407H58.8966V112.466H65.0528V107.367L68.817 105.837V105.837ZM96.6341 111.877C97.6923 111.877 98.3988 111.916 99.2222 112.113V115.721C98.3202 115.564 97.6535 115.486 96.5948 115.486C93.4973 115.486 91.7326 116.349 90.36 117.878C88.7918 119.526 88.2426 121.918 88.2426 124.743V132.078H84.5177V112.466H87.9684V118.153C89.1052 114.348 92.4381 111.877 96.6341 111.877V111.877ZM22.5468 122.507L11.0577 123.213C5.52886 123.566 3.9602 124.586 3.9602 126.861C3.9602 128.979 6.46965 130.038 11.0184 130.038C17.7239 130.038 22.5468 127.528 22.5468 123.409V122.507ZM114.923 114.819C108.767 114.819 104.806 117.722 104.806 122.272C104.806 126.821 108.767 129.724 114.923 129.724C121.04 129.724 125.04 126.821 125.04 122.272C125.04 117.722 121.04 114.819 114.923 114.819Z" fill="black"/>
<defs>
<linearGradient id="paint0_linear_201_19" x1="94.0461" y1="53.8917" x2="79.2118" y2="84.9359" gradientUnits="userSpaceOnUse">
<stop stop-color="#FF1639"/>
<stop offset="1" stop-color="#FF1639" stop-opacity="0"/>
</linearGradient>
</defs>
</svg>
