<svg width="169" height="67" viewBox="0 0 1069 657" fill="none" xmlns="http://www.w3.org/2000/svg">
  <g>
<path d="M338.2 591.85V596.17H313V561.44H337.51V565.76H317.96V576.43H335.37V580.65H317.96V591.86H338.2V591.85Z" fill="#2C336B"></path>
<path d="M361.709 596.16L354.119 586.09L346.429 596.16H341.119L351.489 582.72L341.619 569.87H346.929L354.169 579.35L361.359 569.87H366.569L356.649 582.72L367.119 596.16H361.709Z" fill="#2C336B"></path>
<path d="M372.4 563.92C371.79 563.32 371.48 562.6 371.48 561.74C371.48 560.88 371.79 560.14 372.4 559.53C373.01 558.92 373.78 558.61 374.71 558.61C375.64 558.61 376.4 558.9 377.02 559.48C377.63 560.06 377.94 560.78 377.94 561.64C377.94 562.53 377.63 563.29 377.02 563.9C376.41 564.51 375.64 564.82 374.71 564.82C373.79 564.81 373.02 564.51 372.4 563.92ZM372.33 569.87H377.09V596.16H372.33V569.87Z" fill="#2C336B"></path>
<path d="M387.51 595.59C385.53 595.01 383.97 594.28 382.85 593.38L384.83 589.61C385.99 590.44 387.39 591.1 389.05 591.59C390.7 592.09 392.37 592.33 394.06 592.33C398.23 592.33 400.31 591.14 400.31 588.76C400.31 587.97 400.03 587.34 399.47 586.87C398.91 586.41 398.2 586.07 397.36 585.85C396.52 585.64 395.32 585.4 393.76 585.13C391.64 584.8 389.92 584.42 388.58 583.99C387.24 583.56 386.09 582.83 385.13 581.81C384.17 580.79 383.69 579.35 383.69 577.49C383.69 575.11 384.68 573.2 386.67 571.76C388.65 570.32 391.32 569.6 394.66 569.6C396.41 569.6 398.17 569.82 399.92 570.25C401.67 570.68 403.11 571.26 404.24 571.99L402.21 575.76C400.06 574.37 397.53 573.68 394.62 573.68C392.6 573.68 391.06 574.01 390.01 574.67C388.95 575.33 388.42 576.21 388.42 577.3C388.42 578.16 388.72 578.84 389.31 579.33C389.9 579.82 390.64 580.19 391.52 580.42C392.4 580.65 393.63 580.92 395.22 581.21C397.34 581.57 399.05 581.96 400.35 582.38C401.66 582.79 402.77 583.5 403.7 584.49C404.63 585.48 405.09 586.87 405.09 588.66C405.09 591.04 404.07 592.93 402.04 594.34C400.01 595.75 397.24 596.45 393.73 596.45C391.56 596.46 389.49 596.17 387.51 595.59Z" fill="#2C336B"></path>
<path d="M425.81 594.63C425.12 595.23 424.26 595.68 423.23 595.99C422.2 596.3 421.15 596.46 420.05 596.46C417.4 596.46 415.35 595.75 413.9 594.33C412.44 592.91 411.72 590.87 411.72 588.23V573.79H407.26V569.87H411.72V564.12H416.48V569.87H424.02V573.79H416.48V588.03C416.48 589.45 416.83 590.54 417.55 591.3C418.26 592.06 419.28 592.44 420.6 592.44C422.05 592.44 423.3 592.03 424.32 591.2L425.81 594.63Z" fill="#2C336B"></path>
<path d="M454.33 584.61H433C433.3 586.93 434.31 588.79 436.05 590.19C437.79 591.6 439.94 592.3 442.52 592.3C445.66 592.3 448.19 591.24 450.11 589.13L452.74 592.21C451.55 593.6 450.07 594.66 448.3 595.38C446.53 596.11 444.55 596.47 442.37 596.47C439.59 596.47 437.13 595.9 434.98 594.76C432.83 593.62 431.17 592.02 429.99 589.97C428.82 587.92 428.23 585.6 428.23 583.02C428.23 580.47 428.8 578.18 429.94 576.12C431.08 574.07 432.65 572.47 434.65 571.33C436.65 570.19 438.91 569.62 441.42 569.62C443.93 569.62 446.17 570.19 448.14 571.33C450.11 572.47 451.65 574.07 452.75 576.12C453.86 578.17 454.41 580.52 454.41 583.16C454.43 583.53 454.4 584.01 454.33 584.61ZM435.71 575.73C434.17 577.12 433.27 578.94 433.01 581.19H449.88C449.61 578.97 448.71 577.16 447.18 575.76C445.64 574.35 443.73 573.65 441.45 573.65C439.15 573.64 437.24 574.34 435.71 575.73Z" fill="#2C336B"></path>
<path d="M469.269 570.81C470.889 570.02 472.859 569.62 475.169 569.62V574.23C474.899 574.2 474.539 574.18 474.079 574.18C471.499 574.18 469.469 574.95 467.999 576.49C466.529 578.03 465.789 580.22 465.789 583.06V596.16H461.029V569.87H465.589V574.29C466.419 572.77 467.649 571.61 469.269 570.81Z" fill="#2C336B"></path>
<path d="M518.379 584.61H497.049C497.349 586.93 498.359 588.79 500.099 590.19C501.839 591.6 503.989 592.3 506.569 592.3C509.709 592.3 512.239 591.24 514.159 589.13L516.789 592.21C515.599 593.6 514.119 594.66 512.349 595.38C510.579 596.11 508.599 596.47 506.419 596.47C503.639 596.47 501.179 595.9 499.029 594.76C496.879 593.62 495.219 592.02 494.039 589.97C492.869 587.92 492.279 585.6 492.279 583.02C492.279 580.47 492.849 578.18 493.989 576.12C495.129 574.07 496.699 572.47 498.699 571.33C500.699 570.19 502.959 569.62 505.469 569.62C507.979 569.62 510.219 570.19 512.189 571.33C514.159 572.47 515.699 574.07 516.799 576.12C517.909 578.17 518.459 580.52 518.459 583.16C518.479 583.53 518.439 584.01 518.379 584.61ZM499.749 575.73C498.209 577.12 497.309 578.94 497.049 581.19H513.919C513.649 578.97 512.749 577.16 511.219 575.76C509.679 574.35 507.769 573.65 505.489 573.65C503.199 573.64 501.289 574.34 499.749 575.73Z" fill="#2C336B"></path>
<path d="M547.08 572.53C549.05 574.46 550.03 577.3 550.03 581.04V596.17H545.27V581.59C545.27 579.04 544.66 577.13 543.43 575.84C542.21 574.55 540.45 573.91 538.17 573.91C535.59 573.91 533.56 574.66 532.07 576.17C530.58 577.68 529.84 579.83 529.84 582.64V596.18H525.08V569.89H529.64V573.86C530.6 572.5 531.9 571.46 533.53 570.73C535.17 570 537.03 569.64 539.11 569.64C542.46 569.62 545.11 570.59 547.08 572.53Z" fill="#2C336B"></path>
<path d="M560.199 595.59C558.219 595.01 556.659 594.28 555.539 593.38L557.519 589.61C558.679 590.44 560.079 591.1 561.739 591.59C563.389 592.09 565.059 592.33 566.749 592.33C570.919 592.33 572.999 591.14 572.999 588.76C572.999 587.97 572.719 587.34 572.159 586.87C571.599 586.41 570.889 586.07 570.049 585.85C569.209 585.64 568.009 585.4 566.449 585.13C564.329 584.8 562.609 584.42 561.269 583.99C559.929 583.56 558.779 582.83 557.819 581.81C556.859 580.79 556.379 579.35 556.379 577.49C556.379 575.11 557.369 573.2 559.359 571.76C561.339 570.32 564.009 569.6 567.349 569.6C569.099 569.6 570.859 569.82 572.609 570.25C574.359 570.68 575.799 571.26 576.929 571.99L574.899 575.76C572.749 574.37 570.219 573.68 567.309 573.68C565.289 573.68 563.749 574.01 562.699 574.67C561.639 575.33 561.109 576.21 561.109 577.3C561.109 578.16 561.409 578.84 561.999 579.33C562.589 579.82 563.329 580.19 564.209 580.42C565.089 580.65 566.319 580.92 567.909 581.21C570.029 581.57 571.739 581.96 573.039 582.38C574.349 582.79 575.459 583.5 576.389 584.49C577.319 585.48 577.779 586.87 577.779 588.66C577.779 591.04 576.759 592.93 574.729 594.34C572.699 595.75 569.929 596.45 566.419 596.45C564.249 596.46 562.179 596.17 560.199 595.59Z" fill="#2C336B"></path>
<path d="M607.379 584.61H586.049C586.349 586.93 587.359 588.79 589.099 590.19C590.839 591.6 592.989 592.3 595.569 592.3C598.709 592.3 601.239 591.24 603.159 589.13L605.789 592.21C604.599 593.6 603.119 594.66 601.349 595.38C599.579 596.11 597.599 596.47 595.419 596.47C592.639 596.47 590.179 595.9 588.029 594.76C585.879 593.62 584.219 592.02 583.039 589.97C581.869 587.92 581.279 585.6 581.279 583.02C581.279 580.47 581.849 578.18 582.989 576.12C584.129 574.07 585.699 572.47 587.699 571.33C589.699 570.19 591.959 569.62 594.469 569.62C596.979 569.62 599.219 570.19 601.189 571.33C603.159 572.47 604.699 574.07 605.799 576.12C606.909 578.17 607.459 580.52 607.459 583.16C607.479 583.53 607.439 584.01 607.379 584.61ZM588.749 575.73C587.209 577.12 586.309 578.94 586.049 581.19H602.919C602.649 578.97 601.749 577.16 600.219 575.76C598.679 574.35 596.769 573.65 594.489 573.65C592.199 573.64 590.289 574.34 588.749 575.73Z" fill="#2C336B"></path>
<path d="M654.83 572.5C656.76 574.42 657.73 577.26 657.73 581.03V596.16H652.97V581.58C652.97 579.03 652.38 577.12 651.21 575.83C650.04 574.54 648.36 573.9 646.17 573.9C643.76 573.9 641.84 574.65 640.42 576.16C639 577.67 638.29 579.82 638.29 582.63V596.17H633.53V581.59C633.53 579.04 632.94 577.13 631.77 575.84C630.6 574.55 628.92 573.91 626.73 573.91C624.32 573.91 622.4 574.66 620.98 576.17C619.56 577.68 618.85 579.83 618.85 582.64V596.18H614.09V569.89H618.65V573.81C619.61 572.45 620.87 571.42 622.42 570.71C623.97 570 625.74 569.64 627.73 569.64C629.78 569.64 631.6 570.05 633.19 570.88C634.78 571.71 636 572.91 636.86 574.5C637.85 572.98 639.23 571.79 641 570.93C642.77 570.07 644.76 569.64 646.98 569.64C650.27 569.62 652.89 570.58 654.83 572.5Z" fill="#2C336B"></path>
<path d="M687.3 571.31C689.32 572.43 690.9 574.01 692.04 576.02C693.18 578.04 693.75 580.37 693.75 583.02C693.75 585.67 693.18 588.01 692.04 590.04C690.9 592.07 689.32 593.65 687.3 594.78C685.28 595.9 683 596.47 680.45 596.47C678.5 596.47 676.71 596.09 675.09 595.33C673.47 594.57 672.13 593.46 671.07 592.01V596.18H666.51V559.37H671.27V573.86C672.33 572.47 673.65 571.42 675.24 570.71C676.83 570 678.56 569.64 680.45 569.64C683 569.62 685.28 570.19 687.3 571.31ZM684.59 591.13C685.93 590.35 686.99 589.26 687.76 587.86C688.54 586.45 688.93 584.84 688.93 583.02C688.93 581.2 688.54 579.59 687.76 578.18C686.98 576.77 685.92 575.69 684.59 574.93C683.25 574.17 681.74 573.79 680.05 573.79C678.4 573.79 676.89 574.17 675.54 574.93C674.18 575.69 673.13 576.77 672.37 578.18C671.61 579.59 671.23 581.2 671.23 583.02C671.23 584.84 671.61 586.45 672.37 587.86C673.13 589.27 674.19 590.36 675.54 591.13C676.9 591.91 678.4 592.3 680.05 592.3C681.74 592.29 683.26 591.91 684.59 591.13Z" fill="#2C336B"></path>
<path d="M700.34 559.35H705.1V596.16H700.34V559.35Z" fill="#2C336B"></path>
<path d="M737.85 584.61H716.52C716.82 586.93 717.83 588.79 719.57 590.19C721.31 591.6 723.46 592.3 726.04 592.3C729.18 592.3 731.71 591.24 733.63 589.13L736.26 592.21C735.07 593.6 733.59 594.66 731.82 595.38C730.05 596.11 728.07 596.47 725.89 596.47C723.11 596.47 720.65 595.9 718.5 594.76C716.35 593.62 714.69 592.02 713.51 589.97C712.34 587.92 711.75 585.6 711.75 583.02C711.75 580.47 712.32 578.18 713.46 576.12C714.6 574.07 716.17 572.47 718.17 571.33C720.17 570.19 722.43 569.62 724.94 569.62C727.45 569.62 729.69 570.19 731.66 571.33C733.63 572.47 735.17 574.07 736.27 576.12C737.38 578.17 737.93 580.52 737.93 583.16C737.95 583.53 737.92 584.01 737.85 584.61ZM719.22 575.73C717.68 577.12 716.78 578.94 716.52 581.19H733.39C733.12 578.97 732.22 577.16 730.69 575.76C729.15 574.35 727.24 573.65 724.96 573.65C722.67 573.64 720.76 574.34 719.22 575.73Z" fill="#2C336B"></path>
<path d="M212.1 306.39V342.15H259.17V350.47H212.1V389.09H202.48V298.08H264.89V306.4H212.1V306.39Z" fill="#2C336B"></path>
<path d="M290.639 385.25C285.349 382.26 281.189 378.12 278.159 372.83C275.119 367.54 273.609 361.56 273.609 354.89C273.609 348.22 275.129 342.24 278.159 336.95C281.189 331.67 285.349 327.55 290.639 324.6C295.929 321.65 301.869 320.18 308.449 320.18C315.039 320.18 320.979 321.65 326.269 324.6C331.549 327.55 335.689 331.67 338.679 336.95C341.669 342.24 343.169 348.22 343.169 354.89C343.169 361.57 341.679 367.55 338.679 372.83C335.689 378.12 331.549 382.25 326.269 385.25C320.979 388.24 315.039 389.74 308.449 389.74C301.859 389.74 295.919 388.24 290.639 385.25ZM321.519 378.23C325.379 376.02 328.389 372.88 330.559 368.8C332.729 364.73 333.809 360.09 333.809 354.89C333.809 349.69 332.729 345.05 330.559 340.98C328.389 336.91 325.379 333.76 321.519 331.55C317.659 329.34 313.309 328.24 308.449 328.24C303.599 328.24 299.239 329.34 295.389 331.55C291.529 333.76 288.499 336.9 286.289 340.98C284.079 345.06 282.979 349.69 282.979 354.89C282.979 360.09 284.089 364.73 286.289 368.8C288.499 372.88 291.529 376.02 295.389 378.23C299.249 380.44 303.599 381.54 308.449 381.54C313.299 381.55 317.659 380.44 321.519 378.23Z" fill="#2C336B"></path>
<path d="M417.34 327.65C422.41 332.64 424.95 339.89 424.95 349.43V389.09H415.72V350.34C415.72 343.23 413.94 337.81 410.39 334.09C406.83 330.37 401.76 328.5 395.18 328.5C387.81 328.5 381.98 330.69 377.69 335.07C373.4 339.45 371.25 345.49 371.25 353.21V389.09H362.02V320.7H370.86V333.31C373.38 329.15 376.86 325.92 381.33 323.62C385.79 321.32 390.97 320.18 396.87 320.18C405.45 320.18 412.27 322.67 417.34 327.65Z" fill="#2C336B"></path>
<path d="M512.71 292.61V389.08H503.87V375.56C501.09 380.16 497.43 383.67 492.88 386.09C488.33 388.52 483.19 389.73 477.47 389.73C471.05 389.73 465.25 388.26 460.05 385.31C454.85 382.36 450.77 378.25 447.83 372.96C444.88 367.67 443.41 361.65 443.41 354.89C443.41 348.13 444.88 342.11 447.83 336.82C450.78 331.53 454.85 327.44 460.05 324.53C465.25 321.63 471.06 320.18 477.47 320.18C483.02 320.18 488.02 321.33 492.49 323.62C496.95 325.92 500.62 329.28 503.48 333.7V292.62H512.71V292.61ZM491.19 378.23C495.05 376.02 498.08 372.88 500.29 368.8C502.5 364.73 503.6 360.09 503.6 354.89C503.6 349.69 502.5 345.05 500.29 340.98C498.08 336.91 495.05 333.76 491.19 331.55C487.33 329.34 483.02 328.24 478.25 328.24C473.4 328.24 469.04 329.34 465.19 331.55C461.33 333.76 458.3 336.9 456.09 340.98C453.88 345.06 452.78 349.69 452.78 354.89C452.78 360.09 453.89 364.73 456.09 368.8C458.3 372.88 461.33 376.02 465.19 378.23C469.05 380.44 473.4 381.54 478.25 381.54C483.02 381.55 487.33 380.44 491.19 378.23Z" fill="#2C336B"></path>
<path d="M582.911 326.87C587.681 331.34 590.06 337.94 590.06 346.7V389.09H581.221V378.43C579.141 381.99 576.08 384.76 572.05 386.75C568.02 388.74 563.23 389.74 557.69 389.74C550.06 389.74 543.99 387.92 539.49 384.28C534.98 380.64 532.73 375.83 532.73 369.85C532.73 364.04 534.83 359.36 539.04 355.81C543.24 352.26 549.94 350.48 559.13 350.48H580.841V346.32C580.841 340.43 579.191 335.94 575.901 332.86C572.611 329.78 567.801 328.24 561.471 328.24C557.131 328.24 552.97 328.95 548.99 330.39C545 331.82 541.581 333.79 538.721 336.3L534.56 329.41C538.03 326.46 542.19 324.19 547.04 322.58C551.89 320.98 557.01 320.18 562.38 320.18C571.3 320.18 578.151 322.41 582.911 326.87ZM572.51 378.88C576.24 376.5 579.011 373.05 580.831 368.54V357.36H559.38C547.68 357.36 541.831 361.44 541.831 369.58C541.831 373.57 543.34 376.71 546.38 379.01C549.41 381.31 553.66 382.46 559.12 382.46C564.32 382.46 568.79 381.26 572.51 378.88Z" fill="#2C336B"></path>
<path d="M651.18 384.93C649.44 386.49 647.3 387.68 644.74 388.5C642.18 389.32 639.52 389.74 636.74 389.74C630.32 389.74 625.38 388.01 621.92 384.54C618.45 381.07 616.72 376.17 616.72 369.85V328.5H604.5V320.7H616.72V305.75H625.95V320.7H646.75V328.5H625.95V369.33C625.95 373.4 626.97 376.5 629.01 378.63C631.04 380.76 633.97 381.82 637.79 381.82C639.7 381.82 641.54 381.52 643.32 380.91C645.1 380.3 646.63 379.44 647.93 378.31L651.18 384.93Z" fill="#2C336B"></path>
<path d="M667.819 303.79C666.519 302.49 665.869 300.93 665.869 299.11C665.869 297.38 666.519 295.86 667.819 294.56C669.119 293.26 670.719 292.61 672.629 292.61C674.539 292.61 676.139 293.24 677.439 294.5C678.739 295.76 679.389 297.25 679.389 298.99C679.389 300.9 678.739 302.5 677.439 303.8C676.139 305.1 674.539 305.75 672.629 305.75C670.719 305.74 669.119 305.09 667.819 303.79ZM667.949 320.7H677.179V389.09H667.949V320.7Z" fill="#2C336B"></path>
<path d="M713.059 385.25C707.769 382.26 703.609 378.12 700.579 372.83C697.539 367.54 696.029 361.56 696.029 354.89C696.029 348.22 697.549 342.24 700.579 336.95C703.609 331.67 707.769 327.55 713.059 324.6C718.349 321.65 724.289 320.18 730.869 320.18C737.459 320.18 743.399 321.65 748.689 324.6C753.969 327.55 758.109 331.67 761.099 336.95C764.089 342.24 765.589 348.22 765.589 354.89C765.589 361.57 764.099 367.55 761.099 372.83C758.099 378.11 753.969 382.25 748.689 385.25C743.399 388.24 737.459 389.74 730.869 389.74C724.289 389.74 718.349 388.24 713.059 385.25ZM743.939 378.23C747.799 376.02 750.809 372.88 752.979 368.8C755.149 364.73 756.229 360.09 756.229 354.89C756.229 349.69 755.149 345.05 752.979 340.98C750.809 336.91 747.799 333.76 743.939 331.55C740.079 329.34 735.729 328.24 730.869 328.24C726.019 328.24 721.659 329.34 717.809 331.55C713.949 333.76 710.919 336.9 708.709 340.98C706.499 345.06 705.399 349.69 705.399 354.89C705.399 360.09 706.509 364.73 708.709 368.8C710.919 372.88 713.949 376.02 717.809 378.23C721.669 380.44 726.019 381.54 730.869 381.54C735.729 381.55 740.079 380.44 743.939 378.23Z" fill="#2C336B"></path>
<path d="M839.769 327.65C844.839 332.64 847.379 339.89 847.379 349.43V389.09H838.149V350.34C838.149 343.23 836.369 337.81 832.819 334.09C829.259 330.37 824.189 328.5 817.609 328.5C810.239 328.5 804.409 330.69 800.119 335.07C795.829 339.45 793.679 345.49 793.679 353.21V389.09H784.449V320.7H793.289V333.31C795.809 329.15 799.289 325.92 803.759 323.62C808.219 321.32 813.399 320.18 819.299 320.18C827.869 320.18 834.699 322.67 839.769 327.65Z" fill="#2C336B"></path>
<path d="M63.55 509.96C60.17 508.92 59 507.23 59 503.85V494.62C59 490.72 60.56 489.16 65.11 490.59C70.57 492.54 79.93 494.1 86.56 494.1C96.57 494.1 100.99 490.85 100.99 485.13C100.99 480.32 97.87 477.07 88.9 473.69L81.1 470.83C65.63 464.98 60.04 456.01 60.04 442.62C60.04 424.55 73.95 414.93 96.05 414.93C105.54 414.93 112.69 417.01 117.89 418.83C121.66 420.13 122.83 421.95 122.05 425.85L120.23 434.17C119.32 437.68 117.5 438.59 113.86 437.29C108.79 435.73 102.55 434.3 96.31 434.3C87.86 434.3 83.18 437.03 83.18 442.88C83.18 447.82 86.17 451.07 95.14 454.45L102.94 457.44C118.54 463.29 124 471.74 124 485.39C124 504.89 107.62 513.47 86.68 513.47C77.99 513.47 69.53 512.04 63.55 509.96Z" fill="#2C336B"></path>
<path d="M139.621 483.95V457.69H133.511C129.871 457.69 128.311 456.13 128.311 452.49V445.08C128.311 441.44 129.871 439.88 133.511 439.88H139.621V429.22C139.621 425.06 140.661 423.11 144.041 422.46L150.801 421.03C153.011 420.51 154.961 420.12 156.391 420.12C159.641 420.12 160.811 421.68 160.811 425.32V439.88H176.931C180.571 439.88 182.131 441.44 182.131 445.08V452.49C182.131 456.13 180.571 457.69 176.931 457.69H160.811V483.3C160.811 491.23 162.891 495 169.911 495C173.551 495 176.671 493.96 178.621 493.96C181.091 493.96 182.131 495.26 182.131 498.38V505.14C182.131 508.78 180.961 510.47 176.931 511.9C174.201 512.68 170.171 513.33 166.661 513.33C148.071 513.34 139.621 505.67 139.621 483.95Z" fill="#2C336B"></path>
<path d="M191.5 475.24V465.88C191.5 462.11 193.19 460.55 196.83 460.55H229.98C233.75 460.55 235.31 462.11 235.31 465.88V475.24C235.31 479.01 233.75 480.57 229.98 480.57H196.83C193.18 480.57 191.5 479.01 191.5 475.24Z" fill="#2C336B"></path>
<path d="M252.221 506.71V421.68C252.221 417.91 253.781 416.35 257.421 416.35H284.201C308.771 416.35 320.991 425.84 320.991 443.39C320.991 453.01 316.961 459.51 309.291 463.67C319.171 467.57 323.591 474.85 323.591 485.12C323.591 502.54 311.371 512.03 286.801 512.03H257.421C253.781 512.04 252.221 510.48 252.221 506.71ZM283.941 456.78C293.171 456.78 298.111 452.88 298.111 444.95C298.111 437.15 293.171 433.25 283.941 433.25H274.061V456.78H283.941ZM286.541 495.13C295.771 495.13 300.711 491.23 300.711 483.43C300.711 475.5 295.771 471.6 286.541 471.6H274.061V495.13H286.541Z" fill="#2C336B"></path>
<path d="M333.471 492.66C333.471 477.06 346.341 469.78 376.891 469.65V468.87C376.891 460.29 372.471 456.26 362.851 456.26C357.131 456.26 352.321 457.43 346.211 459.64C342.311 461.07 340.491 460.16 339.581 456.52L337.891 450.02C336.981 446.64 337.891 444.56 341.271 443C347.381 440.4 358.041 438.32 366.891 438.32C387.561 438.32 398.221 448.72 398.221 468.35V506.7C398.221 510.47 396.791 512.03 393.021 512.03H384.571C380.931 512.03 379.371 510.34 379.371 506.57V505.01C373.781 510.6 365.851 513.46 356.231 513.46C342.061 513.47 333.471 505.54 333.471 492.66ZM376.901 493.97V482.66C359.351 482.92 353.761 485.52 353.761 491.76C353.761 496.31 356.751 498.78 362.861 498.78C367.411 498.78 373.521 497.08 376.901 493.97Z" fill="#2C336B"></path>
<path d="M413.699 506.71V445.09C413.699 441.45 415.259 439.89 418.899 439.89H427.349C430.989 439.89 432.549 441.32 432.549 445.09V448.86C436.839 443.53 446.459 438.59 452.699 438.59C456.599 438.59 458.159 440.15 458.159 443.92V455.88C458.159 459.65 456.469 461.21 452.829 461.21C446.719 461.21 439.569 460.43 434.889 459.78V506.71C434.889 510.48 433.459 512.04 429.689 512.04H418.899C415.259 512.04 413.699 510.48 413.699 506.71Z" fill="#2C336B"></path>
<path d="M474.15 483.95V457.69H468.04C464.4 457.69 462.84 456.13 462.84 452.49V445.08C462.84 441.44 464.4 439.88 468.04 439.88H474.15V429.22C474.15 425.06 475.19 423.11 478.57 422.46L485.33 421.03C487.54 420.51 489.49 420.12 490.92 420.12C494.17 420.12 495.34 421.68 495.34 425.32V439.88H511.46C515.1 439.88 516.66 441.44 516.66 445.08V452.49C516.66 456.13 515.1 457.69 511.46 457.69H495.34V483.3C495.34 491.23 497.42 495 504.44 495C508.08 495 511.2 493.96 513.15 493.96C515.62 493.96 516.66 495.26 516.66 498.38V505.14C516.66 508.78 515.49 510.47 511.46 511.9C508.73 512.68 504.7 513.33 501.19 513.33C482.61 513.34 474.15 505.67 474.15 483.95Z" fill="#2C336B"></path>
<path d="M527.85 506.71V421.68C527.85 417.91 529.41 416.35 533.05 416.35H543.84C547.61 416.35 549.04 417.91 549.04 421.68V444.56C553.98 440.92 560.74 438.32 568.54 438.32C585.44 438.32 593.63 448.33 593.63 468.87V506.7C593.63 510.47 592.07 512.03 588.3 512.03H577.64C573.87 512.03 572.31 510.47 572.31 506.7V470.69C572.31 460.68 569.19 456.39 561.91 456.39C557.62 456.39 552.68 458.08 549.04 461.2V506.7C549.04 510.47 547.61 512.03 543.84 512.03H533.05C529.41 512.04 527.85 510.48 527.85 506.71Z" fill="#2C336B"></path>
<path d="M606.51 476.41C606.51 451.71 619.12 438.32 642.39 438.32C660.85 438.32 672.42 447.16 672.42 461.2C672.42 473.81 664.36 480.31 647.85 481.48L628.35 482.78C629.39 491.75 634.33 495.78 645.51 495.78C651.36 495.78 657.73 494.61 663.19 492.4C667.48 490.58 670.34 491.49 670.34 495.39V502.54C670.34 505.92 668.78 508.26 665.14 509.69C659.68 511.9 650.58 513.46 642.78 513.46C618.08 513.47 606.51 501.77 606.51 476.41ZM623.02 430.65L622.89 430.26C622.63 429.48 622.5 428.7 622.5 428.05C622.5 425.84 623.8 424.28 627.05 422.98L647.33 414.27C650.45 413.1 652.92 412.45 655 412.45C660.2 412.45 662.67 416.22 662.67 420.25C662.67 424.28 660.2 427.27 655.65 428.05L632.9 432.99C630.95 433.25 629.39 433.38 628.22 433.38C625.36 433.38 623.8 432.6 623.02 430.65ZM640.05 469C648.5 468.35 652.4 466.27 652.4 461.46C652.4 456.78 648.5 454.05 642 454.05C633.55 454.05 628.74 459.64 628.22 469.91L640.05 469Z" fill="#2C336B"></path>
<path d="M684.65 490.97V421.68C684.65 417.91 686.21 416.35 689.85 416.35H700.64C704.41 416.35 705.84 417.91 705.84 421.68V488.76C705.84 493.44 707.53 495.39 711.3 495.39C712.47 495.39 712.99 495.26 713.64 495.26C716.5 495.26 717.54 496.56 717.54 499.81V506.44C717.54 509.95 716.11 511.51 712.34 512.42C710.13 513.07 707.4 513.2 705.06 513.2C690.37 513.21 684.65 506.97 684.65 490.97Z" fill="#2C336B"></path>
<path d="M724.311 476.41C724.311 451.71 736.921 438.32 760.191 438.32C778.651 438.32 790.221 447.16 790.221 461.2C790.221 473.81 782.161 480.31 765.651 481.48L746.151 482.78C747.191 491.75 752.131 495.78 763.311 495.78C769.161 495.78 775.531 494.61 780.991 492.4C785.281 490.58 788.141 491.49 788.141 495.39V502.54C788.141 505.92 786.581 508.26 782.941 509.69C777.481 511.9 768.381 513.46 760.581 513.46C735.881 513.47 724.311 501.77 724.311 476.41ZM757.851 469C766.301 468.35 770.201 466.27 770.201 461.46C770.201 456.78 766.301 454.05 759.801 454.05C751.351 454.05 746.541 459.64 746.021 469.91L757.851 469Z" fill="#2C336B"></path>
<path d="M802.449 506.71V445.09C802.449 441.45 804.009 439.89 807.649 439.89H815.969C819.869 439.89 821.299 441.32 821.299 444.96V446C826.629 441.32 834.819 438.33 842.879 438.33C851.979 438.33 858.089 441.32 862.119 447.17C869.139 441.32 877.459 438.33 886.299 438.33C903.069 438.33 911.129 448.34 911.129 468.88V506.71C911.129 510.48 909.699 512.04 905.929 512.04H895.139C891.499 512.04 889.809 510.48 889.809 506.71V471.48C889.809 460.69 886.949 456.4 879.929 456.4C876.029 456.4 871.479 458.09 866.799 461.34C867.189 463.94 867.449 466.8 867.449 469.66V506.71C867.449 510.48 865.889 512.04 862.119 512.04H851.329C847.689 512.04 846.129 510.48 846.129 506.71V471.48C846.129 460.69 843.269 456.4 836.119 456.4C832.089 456.4 827.279 458.09 823.639 461.21V506.71C823.639 510.48 822.209 512.04 818.439 512.04H807.649C804.009 512.04 802.449 510.48 802.449 506.71Z" fill="#2C336B"></path>
<path d="M921.41 534.79C917.38 533.36 916.34 531.67 916.34 528.42V521.92C916.34 518.67 917.25 517.5 919.85 517.5C921.54 517.5 923.36 518.02 925.96 518.02C932.85 518.02 938.7 515.16 944.16 507.23C932.59 488.25 920.36 454.97 920.36 444.56C920.36 441.31 922.05 439.88 925.17 439.88H935.83C940.38 439.88 942.2 441.31 942.85 444.82C945.45 460.42 951.04 477.06 956.5 489.15C961.96 477.32 967.16 461.07 970.15 444.82C970.8 441.18 972.62 439.88 977.04 439.88H987.05C990.17 439.88 991.86 441.31 991.86 444.56C991.86 454.7 980.29 486.68 969.24 506.06C957.67 525.69 946.88 535.83 930.37 535.83C926.61 535.83 923.88 535.57 921.41 534.79Z" fill="#2C336B"></path>
  </g>
  <g>
    <path d="M525.167 98.62C540.101 98.62 552.207 86.6795 552.207 71.95C552.207 57.2206 540.101 45.28 525.167 45.28C510.233 45.28 498.127 57.2206 498.127 71.95C498.127 86.6795 510.233 98.62 525.167 98.62Z" fill="#CA4492"></path>
    <path d="M401.776 98.62C416.71 98.62 428.816 86.6795 428.816 71.95C428.816 57.2206 416.71 45.28 401.776 45.28C386.843 45.28 374.736 57.2206 374.736 71.95C374.736 86.6795 386.843 98.62 401.776 98.62Z" fill="#3763AD"></path>
    <path d="M652.286 98.62C667.22 98.62 679.326 86.6795 679.326 71.95C679.326 57.2206 667.22 45.28 652.286 45.28C637.352 45.28 625.246 57.2206 625.246 71.95C625.246 86.6795 637.352 98.62 652.286 98.62Z" fill="#F6A44F"></path>
    <path d="M452.327 146.45C440.037 166.84 429.927 192.71 420.007 205.21C400.287 230.09 382.097 207.93 376.047 194.37C365.707 160.16 370.037 124.17 400.477 117.83C424.727 112.76 440.347 126.13 452.327 146.45Z" fill="#3763AD"></path>
    <path d="M487.636 227.75C476.726 246.82 462.786 260.26 438.626 260.26C410.826 260.26 386.246 228.2 376.066 194.37C382.116 207.93 400.306 230.09 420.026 205.21C429.946 192.71 440.056 166.85 452.346 146.45C466.306 170.16 475.416 203.35 487.636 227.75Z" fill="#A5CBED"></path>
    <path d="M562.677 227.75C553.297 246.63 541.997 260.26 525.157 260.26C508.307 260.26 497.017 246.63 487.637 227.75C500.387 205.43 509.037 175.38 525.157 150.19C541.277 175.37 549.927 205.43 562.677 227.75Z" fill="#DE7AAF"></path>
    <path d="M525.156 150.19C509.036 175.38 500.386 205.43 487.636 227.75C475.426 203.36 466.306 170.16 452.336 146.45C470.096 116.96 492.376 98.98 525.156 150.19Z" fill="#CA4492"></path>
    <path d="M674.328 194.29C664.148 228.12 639.558 260.26 611.688 260.26C587.528 260.26 573.588 246.82 562.678 227.75C574.928 203.36 584.008 170.16 598.018 146.45C610.268 166.84 620.378 192.71 630.298 205.21C650.058 230.13 668.278 207.85 674.328 194.29Z" fill="#F8B795"></path>
    <path d="M674.328 194.29C668.278 207.85 650.048 230.13 630.298 205.2C620.378 192.7 610.268 166.84 598.018 146.44C609.998 126.12 625.628 112.76 649.858 117.82C680.268 124.17 684.628 160.12 674.328 194.29Z" fill="#F6A44F"></path>
    <path d="M598.016 146.45C584.006 170.16 574.926 203.36 562.676 227.75C549.926 205.43 541.276 175.38 525.156 150.19C557.926 98.98 580.216 116.96 598.016 146.45Z" fill="#CA4492"></path>
  </g>
</svg>
