<svg width="39" height="39" viewBox="0 0 396 396" fill="none" xmlns="http://www.w3.org/2000/svg">
<path d="M199.847 268.96C228.46 246.449 266.545 230.116 310.428 248.408C327.9 213.267 324.712 167.055 300.255 131.247C280.093 101.759 243.8 78.0081 192.316 81.3201C244.536 142.512 233.607 224.493 199.847 268.96Z" fill="#ED1345"/>
<path d="M71.1803 302.772C47.8479 273.963 35 237.648 35 200.532C35 110.912 107.909 38 197.524 38C287.149 38 360.075 110.912 360.075 200.532C360.075 220.733 356.415 240.436 349.188 259.081L335.823 253.907C342.396 236.923 345.72 218.957 345.72 200.532C345.72 118.827 279.241 52.3373 197.524 52.3373C115.827 52.3373 49.3527 118.827 49.3527 200.532C49.3527 234.374 61.0609 267.481 82.3193 293.751L71.1803 302.772Z" fill="#918F90"/>
<path d="M184.965 266.229C166.698 255.137 146.595 246.869 119.907 257.991C162.995 221.133 196.085 171.732 201.52 118.253C223.504 171.504 212.613 230.651 184.965 266.229Z" fill="#1EB5C6"/>
<path d="M294.38 357.672C282.795 357.672 276.749 350.656 272.341 345.527C268.133 340.643 265.895 338.296 261.021 338.296C256.176 338.296 253.92 340.643 249.743 345.52C245.332 350.656 239.303 357.672 227.704 357.672C216.139 357.672 210.109 350.656 205.693 345.52C201.505 340.643 199.264 338.296 194.407 338.296C189.556 338.296 187.319 340.643 183.141 345.52C178.725 350.656 172.697 357.672 161.118 357.672C149.535 357.672 143.506 350.644 139.09 345.52C134.914 340.643 132.675 338.296 127.86 338.296C123 338.296 120.772 340.643 116.582 345.52C112.167 350.656 106.136 357.672 94.5573 357.672C82.9885 357.672 76.9458 350.656 72.5302 345.52C68.338 340.643 66.1156 338.296 61.2562 338.296V324.117C72.85 324.117 78.8781 331.153 83.2932 336.279C87.4693 341.148 89.6989 343.504 94.5573 343.504C99.4172 343.504 101.626 341.148 105.832 336.279C110.232 331.153 116.275 324.117 127.86 324.117C139.425 324.117 145.453 331.153 149.855 336.279C154.045 341.148 156.26 343.504 161.118 343.504C165.978 343.504 168.188 341.148 172.379 336.279C176.779 331.153 182.821 324.117 194.407 324.117C205.984 324.117 212.028 331.153 216.444 336.279C220.632 341.148 222.857 343.504 227.704 343.504C232.561 343.504 234.805 341.148 238.983 336.272C243.397 331.153 249.435 324.117 261.021 324.117C272.62 324.117 278.661 331.153 283.073 336.272C287.291 341.148 289.519 343.504 294.38 343.504C299.253 343.504 301.492 341.148 305.696 336.272C310.111 331.153 316.149 324.117 327.747 324.117V338.296C322.875 338.296 320.649 340.643 316.445 345.527C312.012 350.656 305.972 357.672 294.38 357.672Z" fill="#1EB5C6"/>
<path d="M295.407 314.876C283.685 314.876 277.601 307.776 273.119 302.591C268.871 297.656 266.601 295.288 261.688 295.288C256.773 295.288 254.519 297.656 250.271 302.582C245.816 307.776 239.723 314.876 227.997 314.876C216.303 314.876 210.191 307.776 205.739 302.582C201.505 297.656 199.252 295.288 194.333 295.288C189.419 295.288 187.179 297.656 182.945 302.582C178.493 307.776 172.393 314.876 160.67 314.876C148.975 314.876 142.866 307.755 138.407 302.572C134.18 297.656 131.935 295.288 127.049 295.288C122.137 295.288 119.879 297.656 115.65 302.582C111.192 307.776 105.097 314.876 93.374 314.876C81.6661 314.876 75.5806 307.776 71.113 302.582C66.8786 297.656 70.0682 288.767 65.165 288.767L59.7098 280.949C71.4182 280.949 77.5276 288.053 81.986 293.237C86.2193 298.17 88.4708 300.539 93.374 300.539C98.2864 300.539 100.529 298.17 104.786 293.237C109.23 288.053 115.326 280.949 127.049 280.949C138.742 280.949 144.843 288.053 149.295 293.237C153.53 298.17 155.773 300.539 160.67 300.539C165.586 300.539 167.829 298.17 172.073 293.237C176.516 288.053 182.627 280.949 194.333 280.949C206.044 280.949 212.144 288.053 216.608 293.237C220.841 298.17 223.095 300.539 227.997 300.539C232.908 300.539 235.169 298.17 239.409 293.237C243.871 288.053 249.981 280.949 261.688 280.949C273.408 280.949 279.509 288.053 283.991 293.237C288.228 298.17 290.508 300.539 295.407 300.539C300.336 300.539 302.601 298.17 306.849 293.237C311.32 288.041 317.432 280.949 329.141 280.949V295.288C324.224 295.288 321.973 297.656 317.711 302.591C313.24 307.776 307.128 314.876 295.407 314.876Z" fill="#918F90"/>
</svg>
