<svg xmlns="http://www.w3.org/2000/svg" width="30" height="30" viewBox="0 0 24 24"><g fill="none" fill-rule="evenodd" clip-rule="evenodd"><path fill="#0c6fff" d="M11.677 9c.33.4.77.3 1.11-.06a.81.81 0 0 0-.19-1.11a.75.75 0 0 0-.92 1.17m2.39 0c.33.4.77.3 1.11-.06a.81.81 0 0 0-.19-1.08a.75.75 0 0 0-.92 1.14m-2.56-5.189c.33.4.77.31 1.11-.05a.82.82 0 0 0-.19-1.11a.75.75 0 0 0-.92 1.16m3.48-.05a.82.82 0 0 0-.19-1.11a.75.75 0 0 0-.92 1.16c.35.4.79.31 1.11-.05"/><path fill="#020202" d="M22.656 5.91c1.65-.85 1.79-4.559-.12-5.439c-1.72-.8-8.46-.36-10.32-.27a.36.36 0 0 0 0 .71c1.59 0 8.41-.2 9.84.52c.87.44.84 2.16.42 3c-.26.51-.27.51-2.66.67c-1.54.09-7.55.36-7.89.36a3.4 3.4 0 0 1-1.26-.17c-1.679-.82-1.13-4.29.44-4.19a.31.31 0 0 0 .33-.29c.05-.74-2.199-.44-2.529 2.13a3.1 3.1 0 0 0 1.22 3.06c-1.64.9-2 4.32 0 5.41c.39.182.81.287 1.24.31c.88.09 9.68 0 11-.41c1.689-.6 2.049-4.31.289-5.4m-.27 3.84c-.26.51-.27.51-2.65.66c-1.36.08-7.57.37-7.9.36a3.4 3.4 0 0 1-1.26-.17c-1.699-.82-1.14-4.26.42-4.19c1.41.09 7 0 8.49-.1a8.1 8.1 0 0 1 2.5.43c.86.44.83 2.16.4 3.01"/><path fill="#0c6fff" d="M4.988 17.49a5.3 5.3 0 0 0-.15-1.57c-.5-1.5-2-1.05-2.74-1.06c-.55 0-2.27-.12-2 .56a.31.31 0 0 0 .4.17c.496-.067 1-.05 1.49.05c1 .1 1.7-.17 1.81.71v5.81c0 .69-.06.88-1.17 1a9.3 9.3 0 0 1-2-.09a.35.35 0 1 0-.13.69a10 10 0 0 0 2.18.24c1 0 1.68-.15 2-1c.36-.07.31-5.41.31-5.51"/><path fill="#020202" d="M20.986 18.46a1.56 1.56 0 0 0-1.37-.94a1.88 1.88 0 0 0-2.63-2a8.4 8.4 0 0 0-2.49 1.81c-.5.42-1.43 1.09-1.84 1.39l-.13.11a7.1 7.1 0 0 1-2.08-.37c-.13-.05-.26-.05-.28-.14s.06-.2.18-.36c1.24-1.69 2.81-2.28 1.7-4c-.84-1.28-3.089-.06-4.339.82l-1.83 1.12a.36.36 0 0 0 .33.63l1.9-1.12c.65-.42 2.76-1.62 3.15-1c.67 1.09-.51 1.3-1.75 2.9c-.62.79-.48 1.33-.11 1.71a4.3 4.3 0 0 0 1.86.75c2.35.59 6.3-.72 7.16-.9c.69-.14 1.19-.46 1.49.11s-1 1.28-1.51 1.59c-2.89 2-7.94 1.93-11.26 1.16c-.1 0-.06 0-1.27.28c-1 .5-.7.83 0 .68l1.18-.26c3.67.94 8.74 1.15 12-.9c1.21-.77 2.6-1.76 1.94-3.07m-2.16-.86c-1.93.41-2.91.84-4.63 1.07c-.09 0 .19-.08.9-.49c1-.63 2.34-2 3.11-1.69a.94.94 0 0 1 .59 1.11z"/></g></svg>
