<svg width="192" height="192" viewBox="0 0 192 192" fill="none" xmlns="http://www.w3.org/2000/svg">
<path d="M169.343 64C156.998 35.7455 128.805 16 95.9996 16C63.1944 16 35.0012 35.7455 22.6562 64" stroke="#08556C" stroke-width="1.67" stroke-linecap="round" stroke-linejoin="round"/>
<path d="M96 56C81.1892 70.5192 72 90.7524 72 113.132C72 115.133 72.0736 117.118 72.218 119.083C86.9012 133.587 96 153.731 96 176C96 153.731 105.099 133.587 119.782 119.083C119.926 117.118 120 115.133 120 113.132C120 90.7524 110.811 70.5192 96 56Z" fill="#00DC82" stroke="#08556C" stroke-width="1.67" stroke-linecap="round" stroke-linejoin="round"/>
<path d="M16 96C16 140.183 51.8172 176 96 176C96 153.731 86.9012 133.587 72.218 119.083C57.7696 104.811 37.9136 96 16 96Z" fill="#00DC82" stroke="#08556C" stroke-width="1.67" stroke-linecap="round" stroke-linejoin="round"/>
<path d="M176 96C176 140.183 140.183 176 96 176C96 153.731 105.099 133.587 119.782 119.083C134.23 104.811 154.086 96 176 96Z" fill="#00DC82" stroke="#08556C" stroke-width="1.67" stroke-linecap="round" stroke-linejoin="round"/>
</svg>
