<svg width="110" height="20" viewBox="0 0 110 20" fill="none" xmlns="http://www.w3.org/2000/svg">
    <g clip-path="url(#clip0_207_25158)">
    <path d="M91.5651 6.37624H84.5156L91.3275 13.1881L84.5156 20H91.5651L98.377 13.1881L91.5651 6.37624Z" fill="black"/>
    <path d="M102.218 6.37624H95.1689L101.981 13.1881L95.1689 20H102.218L109.03 13.1881L102.218 6.37624Z" fill="black"/>
    <path d="M2.37662 6.05941H6.45583L4.07959 19.604H0.00038147L2.37662 6.05941ZM2.61424 2.45545C2.85187 1.14851 4.07959 0 5.42612 0C6.77266 0 7.68355 1.10891 7.48553 2.45545C7.28751 3.80198 6.02018 4.91089 4.63405 4.91089C3.24791 4.91089 2.41622 3.72277 2.61424 2.45545ZM21.5053 11.2871L20.04 19.604H16.0004L17.3469 11.8812C17.6637 10.1386 16.7133 9.42574 15.4063 9.42574C14.0598 9.42574 12.8321 10.2178 12.436 12.0396L11.0895 19.604H7.04989L9.42612 6.05941H13.5053L13.3073 7.32673C14.2182 6.29703 15.7628 5.66337 17.3073 5.66337C20.04 5.70297 22.139 7.68317 21.5053 11.2871ZM37.4261 12.8317C37.3865 13.1485 37.2281 13.901 36.9905 14.4554H27.2875C27.5251 15.9604 28.7925 16.3564 30.0598 16.3564C31.2083 16.3564 32.1192 16.0396 32.9113 15.2871L35.7628 17.6238C34.1786 19.2079 32.3172 20 29.8222 20C25.1489 20 22.6935 16.6337 23.3667 12.5941C23.6779 10.6669 24.6666 8.91403 26.1549 7.6508C27.6432 6.38756 29.5334 5.69687 31.4855 5.70297C35.3667 5.70297 38.1786 8.71287 37.4261 12.8317ZM33.5845 11.3663C33.4657 9.86139 32.3964 9.26733 31.1291 9.26733C30.4354 9.25486 29.7535 9.44738 29.1688 9.82076C28.584 10.1941 28.1225 10.7318 27.842 11.3663H33.5845ZM49.0697 5.78218L48.2776 10.3762C46.6935 10.1386 44.1192 10.6931 43.6439 13.4653L43.6836 13.3069L42.5746 19.604H38.535L40.9113 6.05941H44.9905L44.5548 8.51485C45.3865 6.65347 47.1687 5.78218 49.0697 5.78218ZM54.5746 14.7723C54.3766 16 55.3667 16.0792 57.1885 15.9208L56.5548 19.604C51.6836 20.1584 49.8618 18.5347 50.535 14.7723L51.3667 9.9802H49.1885L49.9014 6.05941H52.04L52.5152 3.48515L56.7925 2.25743L56.1192 6.05941H58.9311L58.2182 9.9802H55.4459L54.5746 14.7723ZM61.5053 6.05941H65.5845L63.2083 19.604H59.1291L61.5053 6.05941ZM61.743 2.45545C61.941 1.14851 63.2083 0 64.5548 0C65.9014 0 66.8123 1.10891 66.6143 2.45545C66.4162 3.80198 65.1489 4.91089 63.7628 4.91089C62.3766 4.91089 61.5053 3.72277 61.743 2.45545ZM82.4162 6.05941L80.04 19.604H75.9608L76.1192 18.6931C74.9605 19.6044 73.5125 20.0683 72.04 20C67.6439 20 65.9806 16.198 66.6935 12.5149C67.3271 9.0297 70.0994 5.70297 74.2974 5.70297C76.0796 5.70297 77.3469 6.41584 78.0994 7.52475L78.337 6.09901H82.4162V6.05941ZM77.1885 12.8713C77.5449 10.8119 76.436 9.54455 74.5746 9.54455C73.6539 9.53718 72.7625 9.86769 72.0691 10.4735C71.3757 11.0793 70.9285 11.9183 70.8123 12.8317C70.4558 14.8515 71.5251 16.1188 73.4261 16.1188C75.2479 16.1584 76.8321 14.8911 77.1885 12.8713Z" fill="black"/>
    </g>
    <defs>
    <clipPath id="clip0_207_25158">
    <rect width="109.03" height="20" fill="black"/>
    </clipPath>
    </defs>
    </svg>