<svg id="Calque_1" data-name="Calque 1" xmlns="http://www.w3.org/2000/svg" viewBox="0 0 1181 350.8"><polygon points="1181.34 40.65 593.44 40.65 593.44 73.35 1028.04 73.35 987.74 105.95 593.44 105.95 593.44 138.55 871.04 138.55 830.74 171.25 593.44 171.25 593.44 203.85 714.34 203.85 674.14 236.45 593.44 236.45 593.44 269.15 684.74 269.15 765.24 203.85 841.24 203.85 921.84 138.55 998.34 138.55 1078.84 73.35 1181.34 73.25 1181.34 40.65" style="fill:#1d1d1b"/><polygon points="1181.34 301.75 746.14 301.75 786.34 269.05 1181.34 269.05 1181.34 236.45 902.74 236.45 943.04 203.85 1181.34 203.85 1181.34 171.25 1059.74 171.25 1100.04 138.55 1181.34 138.55 1181.34 105.95 1089.44 105.95 1008.84 171.25 932.34 171.25 851.84 236.45 775.84 236.45 695.24 301.75 593.44 301.75 593.44 334.35 1181.34 334.35 1181.34 301.75" style="fill:#1d1d1b"/><path d="M204.64,249.65c-18.4,0-19.4-12.6-19.4-32.2,0-17.9.7-32.3,19.9-32.3,12.6,0,17.5,6.1,17.5,18v1.4h-9.5v-1.1c0-5.2-1.1-10.9-8.3-10.9-9.4,0-9.9,9.6-9.9,24.4,0,17.8.7,25.6,9.5,25.6,7.9,0,9-6,9-12.2V229H223v1.6C223.14,243.35,217.24,249.65,204.64,249.65Z" style="fill:#010000"/><path d="M240.24,227.85v3.4c0,7.3,1,12,6.6,12,5.4,0,6.4-4.5,6.4-8.9h8.5c-.4,9.9-4.5,15-15,15-14.3,0-15.6-9.8-15.6-21.6s1.3-23.7,16.1-23.7c11.8,0,14.2,7.4,14.6,16.6.1,2.3.1,4.8.1,7.2Zm12.8-11.1c-.4-3.6-1.8-6.5-5.9-6.5-4.3,0-6,2.8-6.5,6.9a31.43,31.43,0,0,0-.3,5.4h13C253.14,220.45,253.24,218.65,253,216.75Z" style="fill:#010000"/><path d="M294.24,248.45V220c0-4.7-.1-9.7-5.8-9.7-5.3,0-7.2,6.1-7.2,10.5v27.7h-8.9v-35.2c0-2.8-.1-5.4-.3-8.2h9v5.2a12.56,12.56,0,0,1,10.9-6.3c8.7,0,11.3,5.8,11.3,13.4v30.9h-9Z" style="fill:#010000"/><path d="M328.34,248.85c-8.8,0-11.1-2.9-11.1-11.3v-26.3h-6v-6.1h6v-7.7l8.9-3.8v11.4h7.2v6.1h-7.2v25.2c0,4.4.8,5.9,4.6,5.9a16,16,0,0,0,3-.3v6.5A31.17,31.17,0,0,1,328.34,248.85Z" style="fill:#010000"/><path d="M360.44,212.35c-6.9,0-9.5,4.3-9.5,10.7v25.4H342V213c0-1.1-.3-6.7-.3-7.8h8.6l.3,5.7a11.45,11.45,0,0,1,10.7-6.5,3.44,3.44,0,0,1,.9.1v8.2A5.66,5.66,0,0,0,360.44,212.35Z" style="fill:#010000"/><path d="M376.24,227.85v3.4c0,7.3,1,12,6.6,12,5.4,0,6.4-4.5,6.4-8.9h8.5c-.4,9.9-4.5,15-15,15-14.3,0-15.6-9.8-15.6-21.6s1.3-23.7,16.1-23.7c11.8,0,14.2,7.4,14.6,16.6.1,2.3.1,4.8.1,7.2Zm12.8-11.1c-.4-3.6-1.8-6.5-5.9-6.5-4.3,0-6,2.8-6.5,6.9a31.43,31.43,0,0,0-.3,5.4h13C389.14,220.45,389.24,218.65,389,216.75Z" style="fill:#010000"/><path d="M88.94,307.45h-5.2v26.9h-9.6v-62.2h16.6c12.6,0,18.6,4,18.6,17.2C109.24,305.55,101,307.45,88.94,307.45Zm-.4-28h-4.9v20.7h4.5c8,0,11.3-2.2,11.3-10.7C99.44,281.55,96,279.45,88.54,279.45Z" style="fill:#010000"/><path d="M131.14,335.35c-14.7,0-15.9-9.1-15.9-22.4,0-12.3,1.7-22.9,16.2-22.9s15.5,8.9,15.5,21.8C146.94,326.15,145.34,335.35,131.14,335.35Zm6.8-26c0-6,.1-13.2-6.6-13.2-7.1,0-7,8.3-7,13.4v7.5c0,5.1-.1,12.3,6.9,12.3,6.6,0,6.8-6.8,6.8-11.9v-8.1Z" style="fill:#010000"/><path d="M198.74,334.35v-29.3c0-4.2-.1-8.8-5.2-8.8s-6.4,5.4-6.4,9.7v28.4h-8.9V305c0-5.1-.3-8.7-5.1-8.7-5.5,0-6.6,6.9-6.6,10.6v27.5h-8.9v-36.7q0-3.3-.3-6.6h8.9v5.2a12.21,12.21,0,0,1,10.3-6.2c6.3,0,8.4,2.9,9.6,6.3,2.4-3.3,5.9-6.3,10.8-6.3,9.7,0,10.8,7.7,10.8,14.7v29.6Z" style="fill:#010000"/><path d="M238.54,335.15c-4.2,0-7.4-1.3-9.7-4.7V351h-8.9v-49.7c0-1.5-.2-8.7-.3-10.1h8.8l.1,4.8a12.27,12.27,0,0,1,10.8-5.8c11.6,0,12.1,10.5,12.1,22.2C251.34,323.75,250.64,335.15,238.54,335.15Zm-2.7-39c-7,0-7.1,9.5-7.1,17.1,0,7.8.5,15.8,7.1,15.8,6.4,0,6.5-10.7,6.5-17.2C242.34,304.15,242,296.15,235.84,296.15Z" style="fill:#010000"/><path d="M261.74,281.45v-8.4H271v8.4Zm.2,52.9v-43.3h8.9v43.3Z" style="fill:#010000"/><path d="M304.64,334.35l-.2-4.8c-2.5,3.9-5.6,5.6-10.1,5.6-11.9,0-12.9-11.6-12.9-22.5,0-11.8,1.4-22.6,12.5-22.6,4.6,0,7.6,1.5,10.1,5.1v-22.9h8.9v54.1c0,1.2.3,6.8.3,8Zm-7.4-38.2c-6.3,0-6.7,8.2-6.7,16.8,0,7.8.7,16.3,6.6,16.3,6.6,0,7-8.4,7-16C304,304.55,303.64,296.15,297.24,296.15Z" style="fill:#010000"/><path d="M339.44,335.35c-14.7,0-15.9-9.1-15.9-22.4,0-12.3,1.7-22.9,16.2-22.9s15.5,8.9,15.5,21.8C355.24,326.15,353.54,335.35,339.44,335.35Zm6.8-26c0-6,.1-13.2-6.6-13.2-7.1,0-7,8.3-7,13.4v7.5c0,5.1-.1,12.3,6.9,12.3,6.6,0,6.8-6.8,6.8-11.9v-8.1Z" style="fill:#010000"/><path d="M387.84,334.35l-.1-5a11.71,11.71,0,0,1-10.6,5.8c-8.2,0-11.4-4.6-11.4-12.7v-31.4h8.9v28.4c0,4.3.1,9.6,5.8,9.6s7-5.9,7-10.7v-27.3h8.9v35.2c0,3,.2,5.3.3,8.2h-8.8Z" style="fill:#010000"/><path d="M.34,19.15V.15h21v19Zm.4,119.5V40.85h20.2v97.8Z" style="fill:#010000"/><path d="M90.14,57.15c-15.5,0-21.5,9.7-21.5,24.1v57.4H48.44V58.55c0-2.5-.6-15.1-.8-17.7H67l.6,12.8C73.24,43,82.14,39,91.84,39a7.18,7.18,0,0,1,1.9.2v18.4A17.1,17.1,0,0,0,90.14,57.15Z" style="fill:#010000"/><path d="M141.14,140.75c-31.6,0-35.7-19.2-35.7-47.9,0-28.5,2.7-54.3,36.3-54.3,24.6,0,32.4,10.3,32.6,33.9h-19.4c0-9.9-1.2-20.2-13.4-20.2-16.5,0-15.7,20.4-15.7,37.1,0,22.1.6,37.8,15.1,37.8,12.8,0,14.2-11.1,14.4-21.3h19.4C174.54,122.55,170.44,140.75,141.14,140.75Z" style="fill:#010000"/><path d="M239.74,138.65l-.4-11.8c-6,9.3-13.8,13.6-25.2,13.6-17.7,0-24.6-12.8-24.6-28.9,0-31.4,23.3-33.8,48.7-33.8v-4.7c0-9.5.4-21.3-12.2-21.3-8.5,0-13.4,5.6-13.4,14V67h-20v-1.4c0-20.8,16.5-27,34.3-27,23.9,0,31,10.5,31,33.2v34.9c0,10.7-.2,21.3,1,32Zm-1.6-48.2H234c-14,0-24.1,4.1-24.1,19.2,0,8.1,2.3,17.1,12,17.1,13.4,0,16.1-14.7,16.1-25V90.45Z" style="fill:#010000"/><path d="M378,138.65V72.45c0-9.5-.2-19.8-11.8-19.8-11.2,0-14.5,12.2-14.5,21.9v64h-20.2V72.25c0-11.4-.6-19.6-11.4-19.6-12.4,0-14.9,15.5-14.9,23.9v62.1H285V55.85a124,124,0,0,0-.8-14.9h20.1v11.6c4.9-8.1,13.6-14,23.3-14,14.2,0,19,6.6,21.7,14.2,5.4-7.4,13.4-14.2,24.4-14.2,21.9,0,24.4,17.5,24.4,33.2v66.9Z" style="fill:#010000"/></svg>