<svg xmlns="http://www.w3.org/2000/svg" width="261.666" height="259.745" viewBox="0 0 261.666 259.745">
  <path id="Path_1" data-name="Path 1" d="M157.848,33.285A130.853,130.853,0,0,0,30.277,197.143c5.845-17.554,13.927-38.194,24.606-55.718A120.115,120.115,0,0,1,76.98,114.6c3.783-3.435,7.129-7.621,8.318-12.639,1.433-6.05,2.157-12.27,4.1-18.2,2.29-7,6.771-13.868,13.712-16.331.795-.282,2.114-.709,2.81-.1a26.931,26.931,0,0,1,6.4,9.607c2.857,6.514,4.877,13.119,7.382,19.749,6.529-1.87,12.854-1.367,19.436-.273,10.989,1.826,21.956,3.781,32.929,5.706a9.74,9.74,0,0,1,7.761,5.955c2.711,5.9,5.784,11.64,8.975,17.295a15.935,15.935,0,0,0,4.464,4.787c7.128,5.205,14.6,9.96,21.53,15.408,4.416,3.472,8.232,7.752,12.067,11.9,4.9,5.3-2.514,9.214-1.688,14.58.663,4.332-6.732,10.217-9.65,12.774-1.374,1.2-2.882,2.455-3.365,4.217a10.747,10.747,0,0,0-.218,2.679c-.089,5.137-1.947,9.93-4,14.564-1.135,2.564-2,9.3-4.982,10.295-1.711.573-4.26-1.22-6.4-2.092-3.435-1.4-6.832-2.9-10.244-4.355-28.035-11.972-42.14,13.853-44.361,38.1-2.287,24.957,10.62,50.282,42.562,43.757a130.828,130.828,0,0,0-26.669-258.7Z" transform="translate(-26.045 -33.281)"/>
</svg>
