<svg width="413" height="85" viewBox="0 0 413 85" fill="none" xmlns="http://www.w3.org/2000/svg">
<g clip-path="url(#clip0_201_9)">
<path d="M274.55 0.0351562H346.487V13.4938H317.95V84.2977H303.681V13.4938H274.55V0.0351562Z" fill="black"/>
<path d="M156.24 0.0351562V13.4938H98.5771V35.1445H144.949V48.6031H98.5771V70.8391H156.24V84.2977H84.3086V13.4938H84.3026V0.0351562H156.24Z" fill="black"/>
<path d="M192.16 0.0703125H173.487L240.37 84.3329H259.098L225.652 42.2306L259.044 0.134599L240.37 0.16385L216.303 30.4616L192.16 0.0703125Z" fill="black"/>
<path d="M211.322 60.2595L201.971 48.4744L173.434 84.3972H192.16L211.322 60.2595Z" fill="black"/>
<path fill-rule="evenodd" clip-rule="evenodd" d="M84.8086 84.2977L17.8356 0H0V84.2625H14.2685V18.0111L66.8837 84.2977H84.8086Z" fill="black"/>
<path d="M349.695 83.783C348.65 83.783 347.761 83.4161 347.016 82.6822C346.272 81.9484 345.904 81.0599 345.914 80.0074C345.904 78.9838 346.272 78.105 347.016 77.3711C347.761 76.6373 348.65 76.2703 349.695 76.2703C350.7 76.2703 351.579 76.6373 352.324 77.3711C353.078 78.105 353.455 78.9838 353.465 80.0074C353.455 80.7026 353.281 81.3399 352.933 81.9096C352.575 82.4891 352.121 82.943 351.55 83.2713C350.989 83.6093 350.371 83.783 349.695 83.783Z" fill="black"/>
<path d="M374.048 48.2856H380.371V72.9774C380.361 75.2467 379.877 77.1877 378.931 78.8197C377.974 80.4516 376.649 81.6971 374.947 82.5759C373.256 83.4449 371.273 83.8893 369.021 83.8893C366.961 83.8893 365.115 83.5126 363.471 82.7788C361.828 82.0449 360.523 80.944 359.566 79.4955C358.598 78.047 358.124 76.2413 358.124 74.0783H364.458C364.467 75.0246 364.68 75.8453 365.086 76.5309C365.491 77.2166 366.052 77.7379 366.768 78.1049C367.492 78.4719 368.325 78.6554 369.262 78.6554C370.277 78.6554 371.148 78.4429 371.853 78.0083C372.558 77.5834 373.1 76.9462 373.478 76.0964C373.845 75.2564 374.039 74.2134 374.048 72.9774V48.2856Z" fill="black"/>
<path d="M406.387 57.9422C406.233 56.4454 405.556 55.277 404.376 54.4465C403.187 53.6064 401.65 53.1912 399.764 53.1912C398.44 53.1912 397.3 53.394 396.352 53.7899C395.405 54.1955 394.67 54.7362 394.167 55.4218C393.664 56.1074 393.413 56.8896 393.393 57.7684C393.393 58.5023 393.567 59.1396 393.906 59.6707C394.244 60.2115 394.698 60.6653 395.288 61.0323C395.868 61.4089 396.516 61.7179 397.222 61.9689C397.937 62.22 398.653 62.4325 399.368 62.6063L402.665 63.4271C403.989 63.7361 405.276 64.1514 406.503 64.6824C407.731 65.2039 408.843 65.8702 409.819 66.6717C410.796 67.4732 411.569 68.4388 412.139 69.5687C412.71 70.6984 413 72.0213 413 73.5471C413 75.6039 412.478 77.4097 411.423 78.974C410.37 80.5287 408.852 81.7455 406.861 82.6242C404.878 83.4934 402.481 83.9375 399.658 83.9375C396.932 83.9375 394.553 83.5127 392.552 82.6629C390.542 81.8228 388.975 80.5867 387.844 78.9644C386.713 77.3421 386.104 75.3625 386.017 73.0353H392.282C392.369 74.252 392.756 75.266 393.413 76.0868C394.08 76.8979 394.95 77.4966 396.014 77.9022C397.087 78.2981 398.285 78.5009 399.61 78.5009C400.993 78.5009 402.211 78.2884 403.264 77.8732C404.308 77.4579 405.13 76.8787 405.72 76.1255C406.32 75.3818 406.619 74.5031 406.629 73.4989C406.619 72.5815 406.348 71.8185 405.826 71.2198C405.294 70.6212 404.56 70.119 403.622 69.7135C402.675 69.3079 401.572 68.9409 400.315 68.6223L396.313 67.5987C393.422 66.8552 391.131 65.7254 389.458 64.2093C387.777 62.6932 386.944 60.6847 386.944 58.1643C386.944 56.0979 387.505 54.2825 388.637 52.7277C389.758 51.1731 391.295 49.966 393.239 49.1065C395.192 48.2375 397.396 47.8125 399.851 47.8125C402.346 47.8125 404.53 48.2375 406.416 49.1065C408.301 49.966 409.781 51.1634 410.853 52.6891C411.927 54.2148 412.487 55.9626 412.517 57.9422H406.387Z" fill="black"/>
</g>
<defs>
<clipPath id="clip0_201_9">
<rect width="413" height="85" fill="white"/>
</clipPath>
</defs>
</svg>
