<svg width="413" height="101" viewBox="0 0 413 101" fill="none" xmlns="http://www.w3.org/2000/svg">
<path d="M83.9437 99.1779H138.975C140.723 99.1782 142.44 98.7281 143.954 97.8728C145.468 97.0174 146.724 95.7874 147.598 94.3059C148.472 92.8247 148.931 91.1443 148.931 89.4339C148.93 87.7235 148.469 86.0438 147.594 84.5629L110.636 21.9261C109.763 20.4451 108.506 19.2152 106.993 18.3601C105.479 17.505 103.762 17.0548 102.015 17.0548C100.267 17.0548 98.5505 17.505 97.0371 18.3601C95.5237 19.2152 94.2672 20.4451 93.3936 21.9261L83.9437 37.9526L65.4676 6.61323C64.5934 5.13232 63.3363 3.90261 61.8226 3.04765C60.3086 2.1927 58.5915 1.74261 56.8438 1.74261C55.096 1.74261 53.3789 2.1927 51.8649 3.04765C50.3512 3.90261 49.0941 5.13232 48.2199 6.61323L2.23073 84.5629C1.35582 86.0438 0.894804 87.7235 0.894044 89.4339C0.893284 91.1443 1.35281 92.8247 2.22639 94.3059C3.09998 95.7874 4.35684 97.0174 5.87052 97.8728C7.38422 98.7281 9.1014 99.1782 10.8493 99.1779H45.3933C59.0802 99.1779 69.1737 93.2953 76.119 81.8185L92.9806 53.2446L102.012 37.9526L129.118 83.8862H92.9806L83.9437 99.1779ZM44.8302 83.8704L20.7229 83.865L56.8597 22.6241L74.8909 53.2446L62.8182 73.7107C58.206 81.1573 52.9663 83.8704 44.8302 83.8704Z" fill="#00DC82"/>
<path d="M189.761 98.2607V61.7912C189.761 51.355 188.684 40.9189 188.684 40.9189C188.684 40.9189 192.777 50.4375 197.947 59.3829L220.03 98.2607H237.373V17.982H221.107V54.4513C221.107 64.8878 222.184 75.4385 222.184 75.4385C222.184 75.4385 218.091 65.805 213.028 56.8598L190.838 17.982H173.603V98.2607H189.761Z" fill="black"/>
<path d="M288.617 40.46V72.1127C288.617 79.4526 283.985 84.9574 277.415 84.9574C271.275 84.9574 266.966 79.9112 266.966 72.9154V40.46H251.993V76.4706C251.993 89.6593 259.964 99.1782 272.136 99.1782C279.569 99.1782 285.601 95.7376 288.617 90.2328V98.2607H303.698V40.46H288.617Z" fill="black"/>
<path d="M347.552 68.2135L365.758 40.46H349.276L339.367 55.7129L329.455 40.46H313.082L331.289 68.0989L311.683 98.2607H327.734L339.473 80.4847L351.106 98.2607H367.051L347.552 68.2135Z" fill="black"/>
<path d="M382.591 40.4599H372.141V53.7632H382.591V77.2735C382.591 90.6913 390.67 98.2606 403.166 98.2606H412.105V84.8425H405.212C400.366 84.8425 397.563 82.2048 397.563 76.5854V53.7632H412.105V40.4599H397.563V23.3721H382.591V40.4599Z" fill="black"/>
</svg>
