<svg width="200" height="200" viewBox="0 0 200 200" fill="none" xmlns="http://www.w3.org/2000/svg">
<mask id="mask0_212_8" style="mask-type:alpha" maskUnits="userSpaceOnUse" x="33" y="16" width="134" height="167">
<path d="M33.3335 39.8399C33.3334 36.0159 35.9359 32.6827 39.6457 31.7552L97.9788 17.1719C99.3059 16.8402 100.694 16.8402 102.021 17.1719L160.355 31.7553C164.064 32.6827 166.667 36.0158 166.667 39.8396L166.668 85.4204C166.668 151.196 115.386 176.911 102.776 182.24C100.993 182.993 99.0205 182.967 97.2559 182.171C84.7005 176.507 33.3335 149.422 33.3344 85.4204L33.3335 39.8399Z" fill="#C4C4C4"/>
</mask>
<g mask="url(#mask0_212_8)">
<path d="M195.833 -12.5H110.417H25V191.667H195.833V-12.5Z" fill="#DBF0FF"/>
<path d="M33.3334 33.3333L100 16.6666L166.667 33.3333L166.668 52.087L100.001 35.4203L33.3344 52.087L33.3334 33.3333Z" fill="#DBF0FF"/>
</g>
<path d="M168.186 166.53L173.478 154.932L185.076 149.64C189.95 147.415 189.95 140.492 185.076 138.268L173.478 132.975L168.186 121.378C165.962 116.503 159.038 116.503 156.814 121.378L151.522 132.975L139.924 138.268C135.05 140.491 135.05 147.415 139.924 149.64L151.522 154.932L156.814 166.53C159.038 171.403 165.962 171.403 168.186 166.53Z" fill="#F5B726" stroke="white" stroke-width="2"/>
<path d="M24.9662 43.9871L17.0137 40.3585C12.9521 38.5052 12.9521 32.7352 17.0137 30.8818L24.9662 27.253L28.595 19.3006M24.9662 43.9871L28.595 19.3006L24.9662 43.9871ZM24.9662 43.9871L28.595 51.9396C30.4483 56.0013 36.2183 56.0013 38.0716 51.9396L41.7004 43.9871L49.6529 40.3585C53.7146 38.5052 53.7146 32.7352 49.6529 30.8818L41.7004 27.253L38.0716 19.3006C36.2183 15.239 30.4483 15.239 28.595 19.3006M24.9662 43.9871L28.595 19.3006L24.9662 43.9871Z" fill="#08556C"/>
<path d="M24.9662 43.9871L17.0137 40.3585C12.9521 38.5052 12.9521 32.7352 17.0137 30.8818L24.9662 27.253L28.595 19.3006M24.9662 43.9871L28.595 19.3006M24.9662 43.9871L28.595 51.9396C30.4483 56.0013 36.2183 56.0013 38.0716 51.9396L41.7004 43.9871L49.6529 40.3585C53.7146 38.5052 53.7146 32.7352 49.6529 30.8818L41.7004 27.253L38.0716 19.3006C36.2183 15.239 30.4483 15.239 28.595 19.3006M24.9662 43.9871L28.595 19.3006" stroke="white" stroke-width="2"/>
<path d="M81.4236 90.4513V73.9583C81.4236 64.0624 88.0209 57.4652 97.9167 57.4652C107.813 57.4652 114.41 64.0624 114.41 73.9583V90.4513M97.9167 103.646V116.84M97.9167 130.035C104.041 130.035 109.914 127.602 114.244 123.272C118.574 118.941 121.007 113.068 121.007 106.944C121.007 100.82 118.574 94.9474 114.244 90.6171C109.914 86.2868 104.041 83.8541 97.9167 83.8541C91.7928 83.8541 85.9197 86.2868 81.5894 90.6171C77.2591 94.9474 74.8264 100.82 74.8264 106.944C74.8264 113.068 77.2591 118.941 81.5894 123.272C85.9197 127.602 91.7928 130.035 97.9167 130.035V130.035ZM97.9167 106.944C98.7915 106.944 99.6306 106.597 100.249 105.978C100.868 105.36 101.215 104.521 101.215 103.646C101.215 102.771 100.868 101.932 100.249 101.313C99.6306 100.695 98.7915 100.347 97.9167 100.347C97.0418 100.347 96.2028 100.695 95.5842 101.313C94.9656 101.932 94.6181 102.771 94.6181 103.646C94.6181 104.521 94.9656 105.36 95.5842 105.978C96.2028 106.597 97.0418 106.944 97.9167 106.944V106.944Z" stroke="#08556C" stroke-width="1.6"/>
</svg>
