<svg width="200" height="200" viewBox="0 0 200 200" fill="none" xmlns="http://www.w3.org/2000/svg">
<path fill-rule="evenodd" clip-rule="evenodd" d="M14.5402 104.952C15.6083 109.435 20.4361 111.656 24.8552 110.349C42.2183 105.213 63.9367 102.161 87.5017 102.161C111.065 102.161 132.783 105.212 150.145 110.347C154.564 111.655 159.392 109.434 160.46 104.951C161.794 99.3524 162.5 93.5108 162.5 87.5041C162.5 46.0824 128.921 12.504 87.5 12.504C46.0787 12.504 12.5 46.0824 12.5 87.5041C12.5 93.5112 13.2062 99.3533 14.5402 104.952Z" fill="#DBF0FF"/>
<path d="M123.53 178.444C120.327 187.416 131.451 195.549 138.851 188.405L187.732 141.217C192.745 136.377 190.879 128.027 184.452 125.642L170.234 120.365L180.562 91.4313C183.751 82.4992 172.742 74.3821 165.314 81.4017L115.425 128.549C110.327 133.366 112.167 141.793 118.633 144.193L133.754 149.804L123.53 178.444ZM167.377 119.305C167.378 119.305 167.379 119.306 167.38 119.306L167.377 119.305Z" fill="#3FA9F5" stroke="white" stroke-width="3"/>
<path d="M102.077 128.836H72.9104C68.3081 128.836 64.5771 132.567 64.5771 137.17C64.5771 141.772 68.3081 145.503 72.9104 145.503H102.077C106.679 145.503 110.41 141.772 110.41 137.17C110.41 132.567 106.679 128.836 102.077 128.836Z" fill="#DBF0FF"/>
<path d="M75.6425 104.684C79.0938 110.661 86.7383 112.709 92.7171 109.258C98.6958 105.805 100.745 98.1613 97.2933 92.1838C93.8421 86.2058 86.1975 84.1579 80.2188 87.61C74.24 91.0617 72.1913 98.7058 75.6425 104.684Z" fill="#08556C"/>
<path d="M142.504 63.08C143.625 62.6446 144.895 63.0917 145.497 64.133C146.095 65.1696 145.852 66.4871 144.924 67.2421L94.5212 108.22L82.0212 86.57L142.504 63.08Z" fill="#08556C"/>
</svg>
