<svg width="413" height="107" viewBox="0 0 413 107" fill="none" xmlns="http://www.w3.org/2000/svg">
<path fill-rule="evenodd" clip-rule="evenodd" d="M88.9688 16.3952H29.0614V46.3535H58.5388C59.0432 46.3538 59.5268 46.5537 59.8835 46.9094C60.2401 47.2651 60.4406 47.7475 60.4408 48.2506V77.2452H90.8708V18.2946C90.8713 18.0452 90.8224 17.7982 90.727 17.5677C90.6316 17.3371 90.4916 17.1276 90.3149 16.9511C90.1382 16.7746 89.9284 16.6346 89.6974 16.5391C89.4665 16.4435 89.2189 16.3943 88.9688 16.3943V16.3952Z" fill="#8E75FF"/>
<path opacity="0.405" fill-rule="evenodd" clip-rule="evenodd" d="M29.0582 16.3951V46.3535H0.955319C0.766341 46.3534 0.58164 46.2974 0.424707 46.1924C0.267773 46.0874 0.1457 45.9382 0.074012 45.7638C0.00232411 45.5894 -0.0157387 45.3977 0.022121 45.213C0.0599806 45.0283 0.152052 44.8591 0.286625 44.7268L29.059 16.3951H29.0582ZM62.0614 105.607C61.9276 105.739 61.758 105.827 61.5738 105.863C61.3896 105.898 61.1991 105.879 61.026 105.806C60.8529 105.734 60.7051 105.613 60.601 105.457C60.4969 105.301 60.4412 105.119 60.4409 104.932V77.2443H90.8709L62.0614 105.604V105.607V105.607Z" fill="#8E75FF"/>
<path opacity="0.405" fill-rule="evenodd" clip-rule="evenodd" d="M29.0582 46.3536H59.4923C60.0134 46.3536 60.4409 46.7767 60.4409 47.3005V77.2444H30.9643C30.7144 77.2445 30.467 77.1955 30.2362 77.1002C30.0053 77.0049 29.7955 76.8652 29.6188 76.689C29.4421 76.5129 29.3019 76.3037 29.2063 76.0735C29.1107 75.8433 29.0615 75.5965 29.0615 75.3473V46.3528H29.0582V46.3536Z" fill="#8E75FF"/>
<path fill-rule="evenodd" clip-rule="evenodd" d="M397.727 14.5054C399.428 16.1836 401.434 17.0195 403.75 17.0195C406.14 17.0195 408.184 16.1828 409.884 14.5046C411.585 12.8263 412.433 10.8497 412.433 8.56404C412.433 6.28165 411.585 4.28404 409.884 2.57043C409.094 1.74438 408.141 1.08981 407.086 0.647673C406.03 0.205532 404.895 -0.014674 403.75 0.000825982C401.434 0.000825982 399.428 0.857631 397.727 2.56722C396.027 4.28404 395.178 6.27843 395.178 8.56726C395.178 10.8497 396.027 12.8263 397.727 14.5046V14.5054ZM213.221 36.3961C213.22 36.481 213.185 36.5622 213.125 36.6219C213.064 36.6817 212.983 36.7153 212.897 36.7155H200.953V58.9812C200.953 60.8364 201.426 62.1928 202.364 63.0496C203.303 63.9056 204.68 64.3851 206.489 64.4921C208.144 64.5926 210.161 64.5854 212.543 64.4744L212.88 64.4575C212.923 64.4551 212.967 64.4615 213.007 64.4764C213.048 64.4914 213.086 64.5144 213.117 64.5442C213.149 64.5741 213.174 64.61 213.191 64.6498C213.209 64.6897 213.218 64.7326 213.218 64.7761V76.6756C213.218 76.7546 213.189 76.831 213.136 76.89C213.084 76.949 213.011 76.9864 212.932 76.995L212.714 77.0191C203.359 78.0006 196.742 77.0883 192.868 74.2862C188.924 71.4318 186.956 66.3296 186.956 58.9812V36.7155H177.833C177.748 36.7153 177.667 36.6815 177.607 36.6217C177.547 36.5618 177.513 36.4807 177.513 36.3961V23.7613C177.513 23.5883 177.656 23.4427 177.833 23.4427H186.954V14.6091C186.954 14.3517 187.107 14.1232 187.34 14.0194L200.504 8.3074C200.553 8.28532 200.607 8.27581 200.66 8.27974C200.714 8.28367 200.765 8.30092 200.81 8.3299C200.855 8.35888 200.892 8.39867 200.918 8.44562C200.944 8.49257 200.957 8.54519 200.957 8.59864V23.4419H212.898C213.072 23.4419 213.218 23.5843 213.218 23.7613V36.3961H213.222H213.221ZM238.605 32.6503C239.906 29.2231 242.058 26.6543 245.058 24.9407C248.019 23.2594 251.368 22.375 254.775 22.3743C254.861 22.3743 254.943 22.4082 255.003 22.4685C255.064 22.5289 255.098 22.6107 255.098 22.6961V37.2111C255.098 37.2836 255.082 37.3553 255.053 37.4216C255.023 37.4879 254.98 37.5473 254.926 37.5959C254.872 37.6446 254.809 37.6814 254.74 37.7041C254.671 37.7268 254.597 37.7348 254.525 37.7276C250.487 37.3672 246.86 38.2449 243.648 40.3567C240.285 42.5659 238.605 46.2425 238.605 51.3825V76.6442C238.605 76.6864 238.597 76.7282 238.581 76.7672C238.564 76.8061 238.541 76.8415 238.511 76.8712C238.48 76.9009 238.445 76.9243 238.406 76.9402C238.366 76.9561 238.324 76.964 238.282 76.9636H224.922C224.837 76.9634 224.756 76.9296 224.696 76.8698C224.636 76.8099 224.602 76.7288 224.602 76.6442V23.758C224.602 23.5843 224.744 23.4387 224.922 23.4387H238.282C238.455 23.4387 238.601 23.5811 238.601 23.758V32.6439L238.605 32.6503ZM304.8 23.4427C304.757 23.4422 304.716 23.4502 304.676 23.466C304.637 23.4818 304.602 23.5052 304.571 23.5348C304.541 23.5644 304.518 23.5997 304.501 23.6385C304.485 23.6774 304.476 23.7191 304.476 23.7613V29.7613C300.282 24.5481 294.385 21.9439 286.787 21.9439C279.554 21.9439 273.347 24.6736 268.176 30.1322C263.002 35.5916 260.415 42.2819 260.415 50.2031C260.415 58.1243 263.002 64.8147 268.176 70.2733C273.347 75.7327 279.554 78.4616 286.787 78.4616C294.385 78.4616 300.279 75.8574 304.476 70.6482V76.6442C304.476 76.818 304.622 76.9636 304.799 76.9636H318.157C318.242 76.9636 318.324 76.93 318.384 76.8702C318.444 76.8104 318.479 76.7291 318.479 76.6442V23.758C318.479 23.7159 318.471 23.6742 318.455 23.6353C318.438 23.5963 318.415 23.561 318.385 23.5313C318.355 23.5017 318.319 23.4782 318.28 23.4623C318.241 23.4464 318.199 23.4383 318.157 23.4387H304.799V23.4427H304.8ZM278.65 61.1212C281.47 63.9056 285.049 65.2966 289.395 65.2966C293.734 65.2966 297.334 63.8847 300.192 61.0648C303.05 58.2491 304.475 54.6287 304.475 50.2031C304.475 45.7783 303.05 42.1564 300.192 39.3374C297.334 36.5216 293.734 35.1097 289.392 35.1097C285.052 35.1097 281.47 36.5208 278.647 39.3406C275.83 42.1564 274.415 45.7775 274.415 50.2031C274.415 54.6279 275.826 58.2668 278.65 61.1204L278.65 61.1212ZM380.71 30.1322C375.535 24.6736 369.294 21.9439 361.988 21.9439C354.39 21.9439 348.53 24.5489 344.406 29.7581V23.7613C344.406 23.6768 344.372 23.5959 344.312 23.5362C344.252 23.4765 344.171 23.4429 344.087 23.4427H330.726C330.642 23.4429 330.561 23.4765 330.501 23.5362C330.441 23.5959 330.407 23.6768 330.407 23.7613V98.0498C330.407 98.2268 330.549 98.3724 330.726 98.3724H344.087C344.171 98.3712 344.252 98.3368 344.312 98.2766C344.372 98.2164 344.406 98.1353 344.406 98.0506V70.6482C348.53 75.8574 354.39 78.4616 361.988 78.4616C369.294 78.4616 375.535 75.7327 380.71 70.2733C385.88 64.8147 388.467 58.1243 388.467 50.2031C388.467 42.2819 385.88 35.5916 380.71 30.1322V30.1322ZM348.638 61.1212C351.462 63.9056 355.04 65.2966 359.383 65.2966C363.722 65.2966 367.322 63.8847 370.18 61.0648C373.039 58.2491 374.468 54.6287 374.468 50.2031C374.468 45.7783 373.039 42.1564 370.18 39.3374C367.322 36.5216 363.723 35.1097 359.383 35.1097C355.04 35.1097 351.462 36.5208 348.638 39.3406C345.818 42.1564 344.406 45.7775 344.406 50.2031C344.406 54.6279 345.818 58.2668 348.638 61.1204V61.1212ZM397.126 76.9636C397.041 76.9636 396.96 76.9299 396.9 76.87C396.84 76.8101 396.806 76.7289 396.806 76.6442V23.758C396.806 23.5843 396.949 23.4387 397.126 23.4387H410.486C410.663 23.4387 410.806 23.5811 410.806 23.758V76.6482C410.806 76.7328 410.772 76.8138 410.712 76.8736C410.652 76.9333 410.57 76.9668 410.486 76.9668H397.126V76.9636V76.9636ZM147.507 42.1218C145.587 41.2304 144.631 40.0687 144.631 38.6431C144.631 37.2875 145.225 36.2159 146.422 35.4323C147.614 34.6479 149.116 34.2529 150.924 34.2529C154.391 34.2529 157.01 35.5884 158.783 38.2553C158.842 38.3459 158.932 38.4129 159.035 38.4445C159.139 38.4761 159.25 38.4704 159.35 38.4283L171.166 33.2714C171.207 33.2531 171.243 33.2264 171.273 33.1932C171.303 33.16 171.325 33.1209 171.339 33.0784C171.353 33.036 171.357 32.9911 171.353 32.9468C171.348 32.9024 171.334 32.8595 171.312 32.8209C171.176 32.594 171.038 32.3703 170.895 32.1475C168.874 29.0091 166.257 26.668 162.97 24.8884C159.354 22.9254 155.337 21.9439 150.924 21.9439C145.062 21.9439 140.162 23.4596 136.215 26.4942C132.276 29.5256 130.304 33.6841 130.304 38.9625C130.304 42.4621 131.264 45.368 133.18 47.6882C135.032 49.9598 137.444 51.712 140.18 52.7727C142.874 53.8254 145.628 54.7184 148.428 55.4469C151.175 56.1613 153.512 56.9659 155.428 57.8573C157.343 58.7487 158.303 59.9071 158.303 61.336C158.303 64.4052 155.807 65.9378 150.817 65.9378C146.064 65.9378 142.77 64.204 140.937 60.743C140.864 60.5972 140.737 60.4849 140.583 60.4288C140.43 60.3728 140.26 60.3773 140.11 60.4413L128.329 65.591C128.29 65.6083 128.254 65.6332 128.225 65.6644C128.195 65.6956 128.173 65.7323 128.158 65.7725C128.143 65.8126 128.136 65.8554 128.138 65.8981C128.14 65.9409 128.151 65.9828 128.169 66.0214L128.301 66.2885C132.419 74.4044 139.923 78.4616 150.817 78.4616C157.038 78.4616 162.229 76.9813 166.388 74.0223C170.55 71.0577 172.63 66.83 172.63 61.3352C172.63 57.6939 171.67 54.6633 169.754 52.2353C167.948 49.8923 165.524 48.0958 162.754 47.0462C160.058 46.028 157.304 45.17 154.506 44.4766C151.756 43.7976 149.422 43.0132 147.507 42.1186V42.1218V42.1218Z" fill="#2F2E8B"/>
</svg>
