<svg width="103" height="95" viewBox="0 0 103 95" fill="none" xmlns="http://www.w3.org/2000/svg">
<path d="M8.18061 91.6767C8.2993 90.8459 8.83339 90.3712 9.60485 90.3712C10.3763 90.3712 10.8511 90.9053 10.8511 91.6767H8.18061ZM9.60485 87.1073L8.77404 88.8876H9.42682L10.7917 87.1073H9.60485ZM11.8599 93.3384C11.2071 93.7538 10.6137 93.9911 9.96091 93.9911C8.95207 93.9911 8.2993 93.457 8.12127 92.3889H11.9192C11.9192 90.3712 11.0291 89.4217 9.60485 89.4217C8.12127 89.4217 7.11243 90.5492 7.11243 92.1515C7.11243 93.6351 8.06192 95 9.72354 95C10.6137 95 11.2071 94.8219 11.8599 94.3472V93.3384Z" fill="#004996"/>
<path d="M23.8472 94.0505H22.779C21.5328 94.0505 21.1174 93.279 21.1174 92.2702C21.1174 91.1426 21.8295 90.3712 22.8383 90.3712C23.1944 90.3712 23.4911 90.4305 23.8472 90.5492V94.0505ZM24.9154 86.7512H23.8472V89.659C23.4318 89.481 23.0757 89.4217 22.7196 89.4217C21.1767 89.4217 20.0492 90.5492 20.0492 92.0921C20.0492 93.8131 21.058 94.8813 22.6603 94.8813H24.9154V86.7512Z" fill="#004996"/>
<path d="M34.7071 94.9406H33.639V89.5403H34.7071V94.9406ZM34.173 88.5315C33.817 88.5315 33.5203 88.2348 33.5203 87.8787C33.5203 87.5227 33.817 87.226 34.173 87.226C34.5291 87.226 34.8258 87.5227 34.8258 87.8787C34.7665 88.2348 34.4698 88.5315 34.173 88.5315Z" fill="#004996"/>
<path d="M44.6768 89.5404H46.3977V90.4899H44.6768V93.2197C44.6768 93.8725 45.1515 94.0505 45.4482 94.0505C45.8043 94.0505 46.2197 93.9318 46.6351 93.6351V94.644C46.279 94.822 45.6856 95 45.3295 95C44.1427 95 43.5492 94.2879 43.5492 93.3384V90.4899H42.5997V90.3712L44.6174 88.4129V89.5404H44.6768Z" fill="#004996"/>
<path d="M55.7146 94.9406H54.6464V89.5403H55.7146V94.9406ZM55.1805 88.5315C54.8244 88.5315 54.5277 88.2348 54.5277 87.8787C54.5277 87.5227 54.8244 87.226 55.1805 87.226C55.5365 87.226 55.8333 87.5227 55.8333 87.8787C55.7739 88.2348 55.5365 88.5315 55.1805 88.5315Z" fill="#004996"/>
<path d="M66.9306 90.3712C67.9988 90.3712 68.7703 91.1427 68.7703 92.1515C68.7703 93.3384 68.0582 94.0505 66.9306 94.0505C65.9218 94.0505 65.2097 93.279 65.2097 92.1515C65.2097 91.1427 65.9218 90.3712 66.9306 90.3712ZM66.9306 89.4217C65.3284 89.4217 64.0822 90.6086 64.0822 92.1515C64.0822 93.8131 65.269 95 66.9306 95C68.6516 95 69.8385 93.8725 69.8385 92.1515C69.8385 90.6086 68.6516 89.4217 66.9306 89.4217Z" fill="#004996"/>
<path d="M79.274 90.2525C79.6894 89.7184 80.2828 89.4217 80.8763 89.4217C81.8851 89.4217 82.7159 90.1338 82.7159 91.6174V94.9406H81.6477V91.6174C81.6477 90.8459 81.2323 90.3118 80.5795 90.3118C80.1048 90.3118 79.7487 90.5492 79.2146 91.0833V94.9406H78.2058V89.5404H79.274V90.2525Z" fill="#004996"/>
<path d="M94.5846 90.9053C93.9912 90.4899 93.3977 90.3119 93.0417 90.3119C92.6263 90.3119 92.3296 90.4899 92.3296 90.7866C92.3296 91.024 92.6856 91.3207 93.6351 91.8548C94.5253 92.4482 94.822 92.8043 94.822 93.3384C94.822 94.2879 94.0505 94.9407 93.0417 94.9407C92.3889 94.9407 91.8548 94.822 91.1427 94.4659V93.3384C91.8548 93.8131 92.4483 94.0505 92.923 94.0505C93.3384 94.0505 93.6945 93.8131 93.6945 93.4571C93.6945 92.6856 91.202 92.3295 91.202 90.846C91.202 89.9558 91.9142 89.3624 92.9823 89.3624C93.4571 89.3624 93.9912 89.4811 94.5846 89.7778V90.9053Z" fill="#004996"/>
<path d="M102.181 87.1667C95 84.1401 75.1793 82.0038 51.798 82.0038C28.476 82.0038 8.6553 84.1401 1.41541 87.1667C3.3144 86.3952 15.1237 82.3598 51.798 82.3598C88.4722 82.3598 100.341 86.4545 102.181 87.1667Z" fill="#004996" stroke="#004996" stroke-width="0.3677"/>
<path d="M26.043 76.366C26.043 77.1374 26.043 77.6122 26.9332 77.6715C27.3486 77.6715 27.5859 77.7309 27.5859 77.9682C27.5859 78.2056 27.3486 78.2056 27.2299 78.2056C26.8738 78.2056 26.2804 78.1463 25.0342 78.1463C24.0253 78.1463 23.0758 78.2056 22.8978 78.2056C22.7791 78.2056 22.5417 78.2056 22.5417 77.9089C22.5417 77.6715 22.8385 77.6122 23.1945 77.6122C24.0847 77.5528 24.0847 77.0781 24.0847 76.3066V68.6513C24.0847 67.8799 24.0847 67.4051 23.1945 67.3458C22.7791 67.3458 22.5417 67.2864 22.5417 67.0491C22.5417 66.8117 22.7791 66.8117 22.8978 66.8117C23.2539 66.8117 23.9066 66.871 25.0342 66.871C26.3397 66.871 26.9332 66.8117 27.1705 66.8117C27.2892 66.8117 27.5266 66.8117 27.5266 67.1084C27.5266 67.3458 27.2299 67.4051 26.8738 67.4051C25.9837 67.4645 25.9837 67.9392 25.9837 68.6513V76.366H26.043Z" fill="#004996" stroke="#004996" stroke-width="0.5786"/>
<path d="M39.5734 78.3244C38.1491 78.3244 37.0216 77.8497 36.6655 77.6123C36.4875 77.4936 36.4282 77.1969 36.4282 76.7815C36.4282 76.7222 36.4282 75.832 36.4875 75.1199C36.4875 75.0606 36.4875 74.7638 36.7249 74.7638C36.9029 74.7638 36.9623 74.8825 36.9623 75.0606C37.3183 76.6628 38.5645 77.7904 39.8107 77.7904C40.5822 77.7904 41.9471 77.2563 41.9471 75.7727C41.9471 74.3484 40.7009 73.6957 39.3953 73.0429C37.9117 72.3901 36.4875 71.678 36.4875 69.779C36.4875 68.1174 37.7337 66.6338 40.0481 66.6338C41.1163 66.6338 42.1845 66.9305 42.4218 67.0492C42.6592 67.1679 42.6592 67.3459 42.6592 68.9482C42.6592 69.3636 42.6592 69.4823 42.4218 69.4823C42.2438 69.4823 42.1845 69.3636 42.0064 68.8295C41.7691 68.1174 41.4724 67.1085 39.9294 67.1085C38.4458 67.1085 37.9711 68.1174 37.9711 68.8295C37.9711 70.1351 39.0393 70.5505 40.4635 71.1439C41.4724 71.5593 43.3713 72.4494 43.3713 74.5265C43.49 76.6035 42.0064 78.3244 39.5734 78.3244Z" fill="#004996" stroke="#004996" stroke-width="0.5786"/>
<path d="M55.7147 78.3244C54.2905 78.3244 53.1629 77.8497 52.8069 77.6123C52.6289 77.4936 52.5695 77.1969 52.5695 76.7815C52.5695 76.7222 52.5695 75.832 52.6289 75.1199C52.6289 75.0606 52.6289 74.7638 52.8662 74.7638C53.0443 74.7638 53.1036 74.8825 53.1036 75.0606C53.4597 76.6628 54.7059 77.7904 55.9521 77.7904C56.7236 77.7904 58.0885 77.2563 58.0885 75.7727C58.0885 74.3484 56.8422 73.6957 55.5367 73.0429C54.0531 72.3901 52.6289 71.678 52.6289 69.779C52.6289 68.1174 53.8751 66.6338 56.1895 66.6338C57.2576 66.6338 58.3258 66.9305 58.5632 67.0492C58.8006 67.1679 58.8006 67.3459 58.8006 68.9482C58.8006 69.3636 58.8006 69.4823 58.5632 69.4823C58.3852 69.4823 58.3258 69.3636 58.1478 68.8295C57.9104 68.1174 57.6137 67.1085 56.0708 67.1085C54.5872 67.1085 54.1124 68.1174 54.1124 68.8295C54.1124 70.1351 55.1806 70.5505 56.6049 71.1439C57.6137 71.5593 59.5127 72.4494 59.5127 74.5265C59.6314 76.6035 58.1478 78.3244 55.7147 78.3244Z" fill="#004996" stroke="#004996" stroke-width="0.5786"/>
<path d="M78.8587 72.3901C78.8587 75.0012 77.5532 77.8497 75.0014 77.8497C72.5683 77.8497 70.8474 75.0606 70.8474 72.0934C70.8474 69.5416 72.1529 67.1679 74.7047 67.1679C77.5532 67.2272 78.8587 70.2537 78.8587 72.3901ZM81.0544 72.3308C81.0544 69.1855 78.3246 66.7525 74.9421 66.7525C71.4408 66.7525 68.711 69.2449 68.711 72.5088C68.711 75.9507 71.7375 78.3244 74.8827 78.3244C77.9092 78.3244 81.0544 75.832 81.0544 72.3308Z" fill="#004996" stroke="#004996" stroke-width="0.5786"/>
<path d="M14.4116 63.014C14.2336 62.3612 14.1149 62.2425 13.8775 62.2425C13.2841 62.2425 14.1149 63.2513 11.7412 63.2513H4.61995C2.30556 63.2513 3.07702 62.2425 2.48359 62.2425C2.24621 62.2425 2.18687 62.3612 1.9495 63.014C1.53409 64.3789 1 65.9811 1 66.6339C1 66.8119 1.05934 66.9306 1.29672 66.9306C2.00884 66.9306 2.06818 64.0821 5.21338 64.2008C6.63763 64.2602 6.875 64.3195 6.875 65.269V75.4167C6.875 75.5948 6.875 75.7728 6.875 75.9508C6.81566 76.3662 6.63763 76.9003 6.4596 77.0784C6.40025 77.1377 6.28157 77.1377 6.16288 77.1377C4.91667 77.1377 4.50126 77.3157 4.50126 77.6718C4.50126 77.7905 4.56061 77.8498 4.61995 77.9092C4.61995 78.0279 4.73864 78.1465 5.0947 78.1465C6.10354 78.1465 7.11237 77.9685 8.12121 77.9685C9.13005 77.9685 10.1389 78.1465 11.1477 78.1465C11.5038 78.1465 11.5631 78.0872 11.6225 77.9092C11.6818 77.8498 11.7412 77.7905 11.7412 77.6718C11.7412 77.3751 11.3851 77.1377 10.0795 77.1377C9.96086 77.1377 9.84217 77.1377 9.78283 77.0784C9.6048 76.9003 9.42677 76.3069 9.36742 75.9508C9.36742 75.7728 9.36742 75.5948 9.36742 75.4167V65.269C9.36742 64.3195 9.6048 64.2602 11.029 64.2008C14.1742 64.0821 14.2336 66.9306 14.9457 66.9306C15.1831 66.9306 15.2424 66.8119 15.2424 66.6339C15.4205 65.9811 14.827 64.3789 14.4116 63.014Z" fill="#004996" stroke="#004996" stroke-width="0.1736"/>
<path d="M99.7476 63.014C99.5695 62.3612 99.4508 62.2425 99.2135 62.2425C98.62 62.2425 99.4508 63.2513 97.0771 63.2513H89.9559C87.6415 63.2513 88.413 62.2425 87.8195 62.2425C87.5821 62.2425 87.5228 62.3612 87.2854 63.014C86.87 64.3789 86.3359 65.9811 86.3359 66.6339C86.3359 66.8119 86.3953 66.9306 86.6327 66.9306C87.3448 66.9306 87.4041 64.0821 90.5493 64.2008C91.9736 64.2602 92.2109 64.3195 92.2109 65.269V75.4167C92.2109 75.5948 92.2109 75.7728 92.2109 75.9508C92.1516 76.3662 91.9736 76.9003 91.7955 77.0784C91.7362 77.1377 91.6175 77.1377 91.4988 77.1377C90.2526 77.1377 89.8372 77.3157 89.8372 77.6718C89.8372 77.7905 89.8965 77.8498 89.9559 77.9092C89.9559 78.0279 90.0746 78.1465 90.4306 78.1465C91.4395 78.1465 92.4483 77.9685 93.4572 77.9685C94.466 77.9685 95.4748 78.1465 96.4837 78.1465C96.8397 78.1465 96.8991 78.0872 96.9584 77.9092C97.0178 77.8498 97.0771 77.7905 97.0771 77.6718C97.0771 77.3751 96.721 77.1377 95.4155 77.1377C95.2968 77.1377 95.1781 77.1377 95.1188 77.0784C94.9407 76.9003 94.7627 76.3069 94.7034 75.9508C94.7034 75.7728 94.7034 75.5948 94.7034 75.4167V65.269C94.7034 64.3195 94.9407 64.2602 96.365 64.2008C99.5102 64.0821 99.5695 66.9306 100.282 66.9306C100.519 66.9306 100.578 66.8119 100.578 66.6339C100.697 65.9811 100.104 64.3789 99.7476 63.014Z" fill="#004996" stroke="#004996" stroke-width="0.1736"/>
<path d="M33.6982 10.4356V45.3889H68.6515V10.4356H33.6982ZM63.4886 21.7109C63.0732 21.7109 62.8952 21.5328 62.4798 20.8207C60.2248 16.6073 57.3169 16.6073 54.7058 16.6073C53.8157 16.6073 53.4596 16.6073 53.4596 17.7349V38.2083C53.4596 39.9293 53.4596 41.1162 55.6553 41.2349C56.6048 41.2942 57.1982 41.3535 57.1982 42.0063C57.1982 42.6591 56.6048 42.6591 56.2488 42.6591C55.4179 42.6591 51.8573 42.4811 51.0859 42.4811C50.3144 42.4811 46.7538 42.6591 45.923 42.6591C45.5669 42.6591 44.9735 42.6591 44.9735 42.0063C44.9735 41.4129 45.5669 41.3535 46.5164 41.2349C48.7121 41.1162 48.7121 39.9293 48.7121 38.2083V17.7942C48.7121 16.6667 48.3561 16.6667 47.4659 16.6667C44.7955 16.6667 41.8876 16.6667 39.6326 20.8801C39.2172 21.5922 39.0392 21.7702 38.6237 21.7702C38.2677 21.7702 38.0303 21.4735 38.0303 21.1768C38.0303 20.9394 38.0897 20.702 38.149 20.4647L39.9293 14.2336C40.048 13.6995 40.1667 13.4621 40.5821 13.4621C40.9381 13.4621 41.0568 13.6995 41.1162 14.0556C41.3535 15.2424 42.125 15.3018 43.0745 15.3018H50.9078H58.7412C59.6907 15.3018 60.5215 15.2424 60.6995 14.0556C60.7589 13.6402 60.8775 13.4621 61.2336 13.4621C61.649 13.4621 61.7677 13.6995 61.8864 14.2336L63.6667 20.4647C63.726 20.702 63.7854 20.9394 63.7854 21.1768C64.0821 21.4141 63.8447 21.7109 63.4886 21.7109Z" fill="#004996"/>
<path d="M79.3334 1H23.788V55.0619H79.3334V1Z" stroke="#004996"/>
</svg>
