<svg xmlns="http://www.w3.org/2000/svg" width="273.134" height="110.447" viewBox="13.425 114.895 273.134 110.447" preserveAspectRatio="xMinYMin meet"><g><g fill="#c31622"><path d="M16.25 118.77v21.54h22.42v54.64h25.47V140.3h22.4v-21.53zM170 118.77h25.48v76.17H170zM242.7 117.14c-23.5 0-41.67 17.63-41.67 39.72v.2c0 22.1 17.95 39.5 41.46 39.5 23.5 0 41.67-17.6 41.67-39.7v-.22c0-22.1-17.96-39.5-41.47-39.5m15.78 39.93c0 8.93-6.1 16.98-15.78 16.98-9.8 0-16-8.16-16-17.2v-.2c0-8.94 6.1-17 15.8-17 9.78 0 15.98 8.17 15.98 17.2v.22zM156.62 163.32c2.27-2.26 6.86-7.47 6.86-17.57v-.2c0-7.85-2.4-13.5-6.97-18.08-5.32-5.33-13.92-8.7-27.4-8.7H91.86v76.17h25.46v-21.76h10.03l10.1 21.76h27.8l-13.44-27.83c1.74-1.1 3.38-2.35 4.8-3.78m-39.3-23.22h11.12c5.87 0 9.68 2.4 9.68 7.3v.2c0 4.7-3.7 7.4-9.8 7.4h-11v-14.9z"/></g><path d="M33.4 215.76h16v1.1h-16v-1.1zM67.8 207.82h4.92c4.64 0 7.84 3.18 7.84 7.33v.04c0 4.14-3.2 7.37-7.84 7.37h-4.9v-14.75zm1.1 1v12.74h3.82c4.1 0 6.7-2.8 6.7-6.33v-.04c0-3.5-2.6-6.37-6.7-6.37h-3.8zM88.5 207.82H99v1h-9.4v5.8h8.44v1.02H89.6v5.92h9.5v1H88.5v-14.74zM106.83 207.82h5.35c3.25 0 5.48 1.66 5.48 4.5v.05c0 3.1-2.67 4.7-5.75 4.7h-3.97v5.5h-1.1v-14.75zm5.14 8.24c2.74 0 4.6-1.44 4.6-3.63v-.04c0-2.35-1.82-3.57-4.47-3.57h-4.17v7.23h4.04zM124.88 216.44v-8.62h1.1v8.5c0 3.5 1.87 5.5 4.98 5.5 3 0 4.92-1.82 4.92-5.38v-8.62h1.1v8.5c0 4.23-2.47 6.48-6.06 6.48-3.54 0-6.04-2.23-6.04-6.36zM145.47 207.82h1.1v14.75h-1.1v-14.75zM154.36 220.42l.72-.82c1.62 1.5 3.12 2.2 5.3 2.2 2.2 0 3.72-1.25 3.72-2.94v-.04c0-1.56-.82-2.47-4.17-3.14-3.54-.72-4.98-1.92-4.98-4.15v-.05c0-2.2 2-3.87 4.74-3.87 2.14 0 3.56.6 5.05 1.8l-.7.86c-1.38-1.2-2.77-1.66-4.4-1.66-2.17 0-3.6 1.24-3.6 2.78v.04c0 1.56.8 2.5 4.3 3.22 3.4.7 4.85 1.92 4.85 4.07v.05c0 2.4-2.05 4.03-4.9 4.03-2.36 0-4.17-.78-5.94-2.36zM185.2 208.85l-2.84.97-.3-.86 3.37-1.25h.85v14.87h-1.08v-13.72zM203.8 214.8v-.56c-1 1.73-2.5 2.83-4.6 2.83-2.97 0-5.1-1.98-5.1-4.5v-.05c0-2.72 2.1-4.96 5.18-4.96 1.58 0 2.87.6 3.75 1.5 1.14 1.14 1.86 2.8 1.86 5.75v.06c0 4.63-2.58 7.96-6.02 7.96-1.83 0-3.23-.8-4.45-1.83l.7-.85c1.24 1.1 2.42 1.68 3.77 1.68 2.95 0 4.9-3.1 4.9-7.02zm-.45-2.45v-.04c0-2.08-1.75-3.75-4.2-3.75-2.42 0-3.9 1.88-3.9 3.93v.04c0 2.06 1.65 3.58 4 3.58 2.5 0 4.1-1.9 4.1-3.75zM211.38 220.17l.85-.7c1.18 1.5 2.65 2.36 4.6 2.36 1.97 0 3.64-1.33 3.64-3.27v-.04c0-2.06-1.94-3.2-4.6-3.2h-.8l-.27-.6 5.08-5.87h-7.74v-1.03h9.23v.78l-5 5.7c2.8.18 5.24 1.5 5.24 4.18v.04c0 2.58-2.25 4.3-4.8 4.3-2.4 0-4.22-1.1-5.42-2.65zM231.1 208.85l-2.85.97-.3-.86 3.37-1.25h.85v14.87h-1.08v-13.72zM250.6 215.76h16v1.1h-16v-1.1z"/></g></svg>
