<svg width="200" height="88" viewBox="0 0 774 372" fill="none" xmlns="http://www.w3.org/2000/svg">
<path d="M235.82 365.105V343.305C235.82 339.93 235.637 337.876 232.538 337.876V337.605H254.835L255.429 344.444H255.155C252.831 339.246 251.325 338.332 246.355 338.332H239.833V353.152H244.941C249.045 353.152 249.957 352.06 250.731 348.684H251.005V358.671H250.731C249.957 355.434 249.045 353.882 244.941 353.882H239.833V367.929C239.833 369.297 240.245 370.073 241.657 370.073H247.038C251.872 370.073 253.604 369.25 256.296 363.141H256.571L255.519 370.803H232.538V370.529C235.638 370.53 235.82 368.478 235.82 365.105Z" fill="#A2A186"/>
<path d="M276.078 341.117V363.007C276.078 367.384 276.807 370.53 280.135 370.53V370.804H271.244V370.53C274.435 370.53 275.258 367.384 275.258 363.007V342.759C275.258 339.613 273.981 338.244 271.244 337.881V337.607H278.542L295.23 363.325V345.86C295.23 341.024 294.545 337.881 291.081 337.881V337.607H299.607V337.881C296.507 337.881 296.052 341.025 296.052 345.86V371.256H295.777L276.078 341.117Z" fill="#A2A186"/>
<path d="M338.492 369.346L338.217 362.367H338.492C340.316 367.975 343.6 370.712 347.612 370.712C351.304 370.712 354.773 368.203 354.773 363.826C354.773 359.585 351.487 357.806 347.568 355.847L345.288 354.707C342.049 353.108 338.905 351.012 338.905 346.133C338.905 340.936 342.733 337.06 348.16 337.06C350.667 337.06 354.043 337.881 356.231 339.019V344.444H355.959C354.18 339.706 351.353 337.696 347.978 337.696C344.148 337.696 341.595 340.297 341.595 344.128C341.595 348.14 344.602 349.601 347.297 350.969L349.577 352.109C353.586 354.113 357.465 356.258 357.465 361.731C357.465 367.247 353.269 371.349 347.067 371.349C344.419 371.348 340.592 370.53 338.492 369.346Z" fill="#A2A186"/>
<path d="M375.741 362.002L384.542 337.15H384.906L394.71 364.966C396.078 368.796 396.944 370.346 398.859 370.528V370.8H388.462V370.528C391.018 370.346 391.837 368.84 390.881 366.056L388.462 359.174H377.701L376.606 362.274C374.736 367.658 374.691 370.253 377.976 370.528V370.8H370.45V370.528C372.64 370.302 373.827 367.52 375.741 362.002ZM388.099 358.081L383.082 343.717L378.066 358.081H388.099Z" fill="#A2A186"/>
<path d="M406.058 337.881V337.607H416.5V337.881C413.946 338.063 413.125 339.427 414.13 342.349L421.838 364.695L428.312 346.132C430.227 340.753 430.272 338.154 426.943 337.882V337.608H434.468V337.882C432.283 338.154 431.139 340.891 429.18 346.408L420.424 371.26H420.06L410.21 343.446C408.888 339.61 408.021 338.062 406.058 337.881Z" fill="#A2A186"/>
<path d="M447.046 354.297C447.046 344.082 453.02 337.056 461.866 337.056C470.804 337.056 476.642 343.717 476.642 354.114C476.642 364.33 470.621 371.352 461.777 371.352C452.838 371.352 447.046 364.694 447.046 354.297ZM461.866 370.712C468.525 370.712 472.128 363.688 472.128 354.206C472.128 344.994 468.438 337.695 461.777 337.695C455.118 337.695 451.514 344.721 451.514 354.206C451.515 363.417 455.254 370.712 461.866 370.712Z" fill="#A2A186"/>
<path d="M495.009 365.105V343.305C495.009 339.93 494.824 337.876 491.725 337.876V337.605H502.306V337.876C499.203 337.876 499.021 339.93 499.021 343.305V365.105C499.021 368.477 499.204 370.53 502.306 370.53V370.804H491.725V370.53C494.824 370.53 495.009 368.478 495.009 365.105Z" fill="#A2A186"/>
<path d="M520.995 365.105V343.305C520.995 339.93 520.811 337.876 517.712 337.876V337.605H540.009L540.606 344.444H540.331C538.004 339.246 536.5 338.332 531.53 338.332H525.007V353.152H530.115C534.219 353.152 535.131 352.06 535.906 348.684H536.18V358.671H535.906C535.131 355.434 534.218 353.882 530.115 353.882H525.007V367.929C525.007 369.297 525.42 370.073 526.832 370.073H532.213C537.048 370.073 538.779 369.25 541.47 363.141H541.743L540.697 370.803H517.713V370.529C520.812 370.53 520.995 368.478 520.995 365.105Z" fill="#A2A186"/>
<path d="M773.918 86.757L772.525 82.65H762.114H705.263H694.854L693.461 86.757C693.461 86.757 693.138 87.973 694.342 88.058C706.406 88.058 711.195 95.906 705.87 109.779L672.754 192.551C664.997 177.772 644.575 136.81 644.575 114.984C644.575 88.038 651.566 88.058 651.566 88.058C652.77 87.974 652.448 86.757 652.448 86.757L651.052 82.65H640.646H624.658H623.852H613.442H573.396H554.125H523.506L522.111 86.757C522.111 86.757 521.788 87.973 522.993 88.058C533.331 88.058 539.15 96.097 542.126 105.298C541.017 106.431 540.156 107.351 539.829 107.708C539.517 108.052 519.796 130.033 502.952 165.606L502.939 165.61C491.084 187.905 483.901 211.656 479.533 232.259V137.28V117.582V113.31C479.533 106.993 483.409 88.058 495.474 88.058C496.678 87.974 496.357 86.757 496.357 86.757L494.961 82.65H484.552H467.76H457.351L455.958 86.757C455.958 86.757 455.635 87.973 456.84 88.058C468.904 88.058 472.78 106.993 472.78 113.31V117.582V130.221C451.658 94.542 397.024 82.65 370.762 82.65H355.524L354.129 86.757C354.129 86.757 353.808 87.973 355.012 88.058C369.273 88.058 376.889 100.489 376.889 115.851V225.807C376.889 248.002 366.036 259.554 344.756 259.554C319.789 259.554 294.176 227.558 295.745 185.991C295.978 180.603 296.557 175.676 297.335 171.335C305.317 188.776 328.732 184.589 334.602 183.171C350.51 179.514 366.561 158.53 366.561 133.194C366.561 105.279 348.719 82.65 322.208 82.65H277.724H230.084L228.689 86.757C228.689 86.757 228.367 87.973 229.572 88.058C241.637 88.058 240.932 97.515 240.932 103.835V259.059H239.192C213.002 259.059 169.793 211.703 167.306 165.244C170.927 165.69 174.899 167.888 176.508 169.492C184.609 177.57 187.161 183.739 195.338 183.739C201.793 183.739 206.86 180.27 210.164 174.305L217.762 160.55C219.063 158.217 216.019 157.079 215.223 158.217C211.32 163.792 202.398 163.298 191.127 159.876C181.425 156.934 172.008 158.741 167.15 160.12C166.78 118.026 189.2 88.037 214.91 88.037L214.95 88.015H219.433C220.915 88.015 222.117 86.812 222.117 85.33C222.117 83.851 220.916 82.649 219.433 82.649H205H193.603H98.811L97.577 86.63C97.203 87.375 97.069 87.801 97.736 88.037C98.636 88.354 119.803 93.055 119.803 135.236C119.803 164.151 113.187 193.39 109.026 208.927C109.026 208.927 68.6 108.344 66.621 103.734C64.643 99.125 65.524 88.012 78.687 88.012C78.687 88.012 79.708 87.966 79.337 86.944L77.807 82.649H1.432L0.0390009 86.756C0.0390009 86.756 -0.282999 87.972 0.922001 88.057C20.295 88.149 35.489 127.43 35.489 127.43L77.196 230.907C82.416 242.537 88.858 282.426 86.379 307.451C86.379 307.451 86.293 309.682 88.261 309.682C90.148 309.682 90.443 307.869 90.443 307.869C90.816 306.567 130.303 163.669 135.878 142.113C141.452 120.558 141.824 115.292 141.824 98.198C141.824 89.091 145.603 88.101 150.745 88.101H197.124C164.849 101.661 141.647 139.205 141.647 184.72C141.647 240.611 196.126 295.349 240.937 298.074V298.207H244.398H252.328H288.575L289.968 294.099C289.968 294.099 290.291 292.884 289.085 292.797C277.022 292.797 277.729 283.341 277.729 277.023V88.016H292.43L292.339 88.038C303.486 88.038 331.422 104.702 331.422 137.281C331.422 160.768 323.296 175.189 312.149 175.189C302.562 175.189 298.002 160.782 303.452 153.348C304.606 151.901 304.366 149.791 302.919 148.637C301.475 147.486 299.364 147.721 298.21 149.168C293.053 155.64 288.017 174.581 289.152 197.625C290.109 220.987 296.915 298.206 350.213 298.206C381.363 298.206 383.649 274.234 383.649 246.176V125.14C383.649 124.028 384.551 123.929 385.033 123.905C407.927 122.715 472.786 156.643 472.786 211.489V287.475C472.779 287.823 472.779 288.044 472.779 288.044V294.098L474.173 298.206H484.585H501.375H514.02L515.415 294.098C515.534 293.719 515.534 293.719 514.531 292.796C514.531 292.796 497.62 277.71 494.869 244.007C499.598 244.124 507.492 248.329 515.861 258.545C524.621 269.24 530.082 272.321 539.202 272.321C549.719 272.321 560.884 261.121 564.57 254.469L570.802 243.187L577.542 275.409C577.542 275.409 582.541 292.796 570.477 292.796C569.273 292.883 569.594 294.098 569.594 294.098L570.99 298.206H646.061H650.485H656.472H673.264H683.673L685.069 294.098C685.069 294.098 685.389 292.883 684.184 292.796C672.122 292.796 676.886 280.313 680.539 272.146L700.968 221.098L742.647 117.044C751.152 94.542 760.976 88.058 773.039 88.058C774.239 87.973 773.918 86.757 773.918 86.757ZM534.5 245.708C510.186 236.631 498.915 238.241 494.618 239.757C493.755 220.061 497.7 194.526 511.907 162.489C525.107 134.764 540.389 117.081 543.987 113.097L547.823 133.385L569.58 237.364C564.804 243.615 553.317 252.73 534.5 245.708ZM650.48 248.229C641.075 271.741 634.16 282.263 630.064 288.058C627.714 291.146 626.645 292.722 624.414 292.722C622.184 292.722 621.547 290.66 620.254 287.762C617.223 280.965 614.939 269.589 614.939 269.589L576.119 90.066C576.119 90.066 575.671 88.016 577.962 88.016H610.852C605.462 105.692 652.607 166.878 669.361 201.045L650.48 248.229Z" fill="#6F6720"/>
<path d="M423.349 63.03C423.054 63.03 422.552 62.482 422.552 61.229L422.557 48.047C422.557 47.637 422.445 47.355 421.895 47.355C421.457 47.355 421.195 47.895 421.195 47.895C421.195 47.895 420.466 49.13 419.492 49.13H418.519C410.802 49.13 397.461 42.5 396.874 25.727C396.861 25.347 399.158 25.036 400.895 26.612C403.406 28.894 404.494 30.396 406.957 30.396C408.902 30.396 410.43 29.384 411.422 27.643L413.715 23.627C414.105 22.947 413.186 22.614 412.947 22.947C411.772 24.573 407.903 22.969 404.795 21.27C401.822 19.643 398.433 21.136 396.809 24.058C396.809 11.143 404.992 2.03398 411.201 2.03398L411.214 2.02798H412.566C413.01 2.02798 413.373 1.67699 413.373 1.24599C413.373 0.814985 413.011 0.46398 412.566 0.46398C406.27 -0.26302 389.127 6.48298 389.127 30.254C389.127 49.01 405.542 62.546 419.043 63.342H423.495C423.492 63.341 423.495 63.03 423.349 63.03Z" fill="#6F6720"/>
<path d="M398.001 53.74C397.53 53.74 397.361 54.239 397.361 54.239C395.565 58.202 390.842 60.536 388.367 60.536H383.271C379.634 60.536 379.849 57.84 379.849 56.04V51.416V12.308V7.189C379.849 5.391 379.634 2.69399 383.271 2.69399C383.633 2.66899 383.538 2.32299 383.538 2.32299L383.118 1.15399H364.874L364.454 2.32299C364.454 2.32299 364.358 2.66899 364.72 2.69399C368.354 2.69399 368.14 5.39 368.14 7.189V12.308V51.416V56.535C368.14 58.333 368.353 61.027 364.72 61.027C364.358 61.052 364.454 61.398 364.454 61.398L364.874 62.57H370.931H382.51H393.476H394.953H398.588V54.239C398.588 54.239 398.568 53.74 398.001 53.74Z" fill="#6F6720"/>
</svg>
