<svg width="164" height="164" viewBox="0 0 164 164" fill="none" xmlns="http://www.w3.org/2000/svg">
<path d="M11.6555 81.9977C11.6555 109.842 27.8359 133.905 51.3 145.308L17.7457 53.3699C13.7233 62.3775 11.648 72.1328 11.6555 81.9977V81.9977ZM129.485 78.4477C129.485 69.7547 126.362 63.7338 123.684 59.048C120.118 53.2535 116.776 48.3465 116.776 42.552C116.776 36.0854 121.68 30.0658 128.588 30.0658C128.9 30.0658 129.195 30.1044 129.5 30.1224C116.985 18.6563 100.311 11.6559 81.9984 11.6559C57.4236 11.6559 35.8033 24.2649 23.2255 43.363C24.8757 43.4125 26.4307 43.4466 27.7523 43.4466C35.1094 43.4466 46.4987 42.5546 46.4987 42.5546C50.291 42.3308 50.738 47.9002 46.9501 48.3491C46.9501 48.3491 43.1391 48.7973 38.8985 49.0192L64.5157 125.215L79.9096 79.0458L68.9499 49.0173C65.162 48.7954 61.5736 48.3472 61.5736 48.3472C57.7831 48.1246 58.2275 42.3288 62.0179 42.5526C62.0179 42.5526 73.6349 43.4453 80.5463 43.4453C87.9033 43.4453 99.2933 42.5526 99.2933 42.5526C103.088 42.3288 103.534 47.8983 99.7447 48.3472C99.7447 48.3472 95.926 48.7954 91.6931 49.0173L117.114 124.636L124.13 101.189C127.171 91.4593 129.485 84.4712 129.485 78.4484L129.485 78.4477ZM83.2325 88.1511L62.1273 149.481C68.5799 151.381 75.2717 152.347 81.9984 152.347C90.1895 152.347 98.045 150.931 105.358 148.359C105.162 148.052 104.995 147.727 104.857 147.39L83.2325 88.1511ZM143.721 48.2488C144.041 50.6465 144.199 53.063 144.195 55.4819C144.195 62.6206 142.862 70.6448 138.846 80.6781L117.36 142.803C138.272 130.608 152.338 107.951 152.338 81.9997C152.339 69.7695 149.215 58.2686 143.721 48.2488H143.721ZM81.9984 0C36.7853 0 0 36.7839 0 81.9977C0 127.217 36.7853 164 81.9984 164C127.21 164 164 127.217 164 81.9977C163.999 36.7839 127.21 0 81.999 0H81.9984ZM81.9984 160.242C38.8593 160.242 3.75956 125.141 3.75956 81.9977C3.75956 38.8573 38.8574 3.75968 81.9984 3.75968C125.136 3.75968 160.233 38.8573 160.233 81.9977C160.233 125.141 125.136 160.242 81.9984 160.242V160.242Z" fill="#08556C"/>
</svg>
