<svg width="157" height="93" viewBox="0 0 157 93" fill="none" xmlns="http://www.w3.org/2000/svg">
<path d="M84.98 11.8V9.64H86.78V4.96H83.9V6.04H85.34V6.76H83.18V4.24H87.5V10.36H85.7V11.8H84.98ZM92.18 17.56V10.36H91.1V13.96H86.78V11.8H87.5V13.24H90.38V9.64H92.9V16.84H93.98V8.56H90.38V6.76H88.58V4.24H92.9V6.04H94.34V6.76H92.18V4.96H89.3V6.04H91.1V7.84H94.7V17.56H92.18ZM79.58 28.36V24.04H81.38V22.96H79.58V20.44H83.9V22.24H84.98V20.44H87.5V22.24H88.58V20.44H92.18V19.36H86.78V15.76H84.98V13.96H83.18V12.16H82.1V13.96H78.5V15.76H70.58V11.44H75.98V9.64H79.58V6.04H82.1V8.2H81.38V6.76H80.3V10.36H76.7V12.16H71.3V15.04H77.78V13.24H81.38V11.44H83.9V13.24H85.7V15.04H87.5V18.64H92.9V21.16H89.3V22.96H86.78V21.16H85.7V22.96H83.18V21.16H80.3V22.24H82.1V24.76H80.3V27.64H81.38V25.84H84.98V24.76H83.54V24.04H85.7V26.56H82.1V28.36H79.58ZM76.34 8.56V7.84H77.78V6.4H78.5V8.56H76.34ZM83.54 8.56V7.84H85.34V8.56H83.54ZM88.58 11.8V8.2H89.3V11.8H88.58ZM81.74 10.36V9.64H83.54V10.36H81.74ZM78.14 12.16V11.44H79.94V12.16H78.14ZM72.74 13.96V13.24H74.54V13.96H72.74ZM67.34 17.56V16.84H68.78V15.76H67.34V15.04H69.5V17.56H67.34ZM81.74 15.76V15.04H83.54V15.76H81.74ZM88.58 17.56V15.4H89.3V16.84H90.38V15.4H91.1V17.56H88.58ZM77.78 20.8V18.64H79.58V16.84H83.9V19.36H81.74V18.64H83.18V17.56H80.3V19.36H78.5V20.8H77.78ZM66.98 22.96V18.64H69.5V20.44H70.58V16.84H73.1V20.44H75.98V16.84H78.14V17.56H76.7V21.16H72.38V17.56H71.3V21.16H68.78V19.36H67.7V22.24H72.74V22.96H66.98ZM84.98 19V17.2H85.7V19H84.98ZM74.18 19V17.2H74.9V19H74.18ZM65.18 19V17.2H65.9V19H65.18ZM93.98 20.8V19H94.7V20.8H93.98ZM69.14 24.76V24.04H74.18V22.24H76.34V22.96H74.9V24.76H69.14ZM88.58 46.36V38.44H90.38V36.64H92.9V38.44H93.98V31.96H92.9V33.76H91.1V35.56H88.58V33.76H86.78V31.24H88.58V30.16H86.78V25.84H88.58V24.04H91.1V25.84H93.98V22.96H90.74V22.24H94.7V26.56H90.38V24.76H89.3V26.56H87.5V29.44H89.3V31.96H87.5V33.04H89.3V34.84H90.38V33.04H92.18V31.24H94.7V39.16H92.18V37.36H91.1V39.16H89.3V45.64H92.18V44.56H90.38V40.24H94.7V42.4H93.98V40.96H91.1V43.84H92.9V46.36H88.58ZM70.94 26.56V25.84H72.74V26.56H70.94ZM92.18 29.8V27.64H94.7V29.8H93.98V28.36H92.9V29.8H92.18ZM90.38 31.6V28.36H88.94V27.64H91.1V31.6H90.38ZM79.58 40.96V36.64H81.38V35.56H79.58V29.44H84.98V28.36H83.54V27.64H85.7V30.16H80.3V34.84H82.1V37.36H80.3V40.24H81.38V38.44H83.18V33.76H81.38V31.24H83.54V31.96H82.1V33.04H83.9V39.16H82.1V40.96H79.58ZM84.98 33.4V31.6H85.7V33.4H84.98ZM85.34 35.56V34.84H87.14V35.56H85.34ZM85.34 46.36V45.64H86.78V36.64H88.94V37.36H87.5V46.36H85.34ZM84.98 38.8V37H85.7V38.8H84.98ZM83.54 42.76V42.04H84.98V40.96H83.54V40.24H85.7V42.76H83.54ZM79.58 46.36V42.04H82.1V44.2H81.38V42.76H80.3V45.64H83.18V43.84H85.34V44.56H83.9V46.36H79.58ZM93.98 46V44.2H94.7V46H93.98ZM109.798 10.96V4.84H114.118V7.36H111.958V6.64H113.398V5.56H110.518V10.24H115.198V9.16H111.958V8.44H115.918V10.96H109.798ZM118.798 12.4V8.44H122.398V5.56H117.718V7.36H115.198V5.2H115.918V6.64H116.998V4.84H123.118V9.16H119.518V12.4H118.798ZM104.398 9.16V7H105.118V8.44H107.998V5.2H108.718V9.16H104.398ZM119.158 7.36V6.64H120.958V7.36H119.158ZM124.198 9.16V7H124.918V8.44H125.998V7H126.718V9.16H124.198ZM125.998 32.56V30.4H126.718V31.84H127.798V28.96H122.398V27.16H118.798V22.84H122.398V19.24H124.198V17.44H128.518V21.76H126.718V22.84H131.398V21.76H129.598V19.24H133.198V18.16H129.598V12.04H131.398V10.96H129.598V9.16H128.518V16.36H125.998V14.56H124.918V16.36H122.398V14.56H119.518V16.36H111.598V12.76H107.998V10.96H105.118V12.04H106.918V14.56H105.118V16.36H100.798V13.84H102.598V12.76H99.7184V14.56H97.9184V15.64H99.3584V16.36H97.1984V13.84H98.9984V12.04H103.318V14.56H101.518V15.64H104.398V13.84H106.198V12.76H104.398V10.24H108.718V12.04H112.318V15.64H118.798V13.84H123.118V15.64H124.198V13.84H126.718V15.64H127.798V8.44H130.318V10.24H132.118V12.76H130.318V17.44H133.918V19.96H130.318V21.04H132.118V23.56H125.998V21.04H127.798V18.16H124.918V19.96H123.118V23.56H119.518V26.44H123.118V28.24H128.518V32.56H125.998ZM116.998 10.6V8.8H117.718V10.6H116.998ZM101.158 10.96V10.24H102.598V8.8H103.318V10.96H101.158ZM120.958 12.76V12.04H124.198V10.96H120.958V10.24H124.918V12.76H120.958ZM125.998 12.4V10.6H126.718V12.4H125.998ZM115.558 14.56V13.84H116.998V12.76H114.118V14.2H113.398V12.04H117.718V14.56H115.558ZM106.198 32.56V30.04H107.998V28.96H104.398V26.44H107.998V25H108.718V27.16H105.118V28.24H108.718V30.76H106.918V31.84H109.798V21.76H108.718V23.56H106.198V21.76H104.398V19.24H111.598V18.16H109.798V14.56H108.718V16.36H106.918V17.44H108.358V18.16H106.198V15.64H107.998V13.84H110.518V17.44H112.318V19.96H105.118V21.04H106.918V22.84H107.998V21.04H110.518V32.56H106.198ZM131.398 16.36V13.84H133.558V14.56H132.118V15.64H133.558V16.36H131.398ZM118.798 21.76V17.8H119.518V21.04H120.598V16H121.318V21.76H118.798ZM102.598 19.6V17.44H104.758V18.16H103.318V19.6H102.598ZM97.1984 36.16V30.4H97.9184V35.44H102.598V31.84H104.398V30.76H98.9984V28.96H97.1984V26.44H102.598V21.76H100.798V19.96H97.1984V17.44H101.158V18.16H97.9184V19.24H101.518V21.04H103.318V27.16H97.9184V28.24H99.7184V30.04H105.118V32.56H103.318V36.16H97.1984ZM98.9984 25V23.56H97.1984V21.04H99.3584V21.76H97.9184V22.84H99.7184V25H98.9984ZM129.598 28.96V25.36H128.518V27.16H124.198V21.4H124.918V26.44H127.798V24.64H130.318V28.24H133.198V27.16H131.398V24.64H133.198V23.2H133.918V25.36H132.118V26.44H133.918V28.96H129.598ZM116.998 46.96V45.16H115.198V42.64H116.998V41.56H111.598V39.04H113.398V36.16H112.318V37.96H109.798V33.64H111.598V21.4H112.318V34.36H110.518V37.24H111.598V35.44H114.118V39.76H112.318V40.84H117.718V43.36H115.918V44.44H117.718V46.24H118.798V39.76H116.998V37.24H121.318V39.04H122.398V32.56H121.318V34.36H118.798V28.24H121.318V30.04H124.558V30.76H120.598V28.96H119.518V33.64H120.598V31.84H123.118V39.76H120.598V37.96H117.718V39.04H119.518V46.96H116.998ZM100.798 25V23.2H101.518V25H100.798ZM120.958 25.36V24.64H122.758V25.36H120.958ZM104.758 25.36V24.64H106.558V25.36H104.758ZM101.158 28.96V28.24H102.958V28.96H101.158ZM124.198 35.8V33.64H129.598V30.04H133.558V30.76H130.318V34.36H124.918V35.8H124.198ZM99.3584 34.36V33.64H100.798V32.56H99.3584V31.84H101.518V34.36H99.3584ZM131.758 32.56V31.84H133.558V32.56H131.758ZM104.398 35.8V33.64H108.358V34.36H105.118V35.8H104.398ZM122.398 43.36V41.56H120.958V40.84H123.118V42.64H125.998V41.56H124.198V37.24H125.998V35.44H131.398V33.64H133.918V37.96H132.118V39.76H129.598V37.96H128.518V42.64H129.598V41.2H130.318V43.36H127.798V37.24H130.318V39.04H131.398V37.24H133.198V34.36H132.118V36.16H126.718V37.96H124.918V40.84H126.718V43.36H122.398ZM107.998 45.16V41.56H104.398V37.96H101.518V39.76H98.9984V37.6H99.7184V39.04H100.798V37.24H105.118V40.84H108.718V44.44H109.798V39.76H107.998V36.16H106.918V39.4H106.198V35.44H108.718V39.04H110.518V45.16H107.998ZM115.198 39.4V35.44H120.958V36.16H115.918V39.4H115.198ZM101.158 41.56V40.84H102.958V41.56H101.158ZM104.758 45.16V44.44H106.198V43.36H104.758V42.64H106.918V45.16H104.758ZM111.958 43.36V42.64H113.758V43.36H111.958ZM120.598 45.16V43H121.318V44.44H126.358V45.16H120.598ZM108.358 46.96V46.24H111.598V44.44H114.118V46.24H115.558V46.96H113.398V45.16H112.318V46.96H108.358ZM120.958 46.96V46.24H122.758V46.96H120.958Z" fill="url(#paint0_linear_15_2)"/>
<path d="M137.971 12.736C137.59 13 137.157 13.132 136.673 13.132C136.182 13.132 135.797 12.9927 135.518 12.714C135.247 12.428 135.111 12.0173 135.111 11.482V7.984H134.099V7.203H135.111V5.894L136.123 5.773V7.203H137.498L137.388 7.984H136.123V11.438C136.123 11.7387 136.174 11.9587 136.277 12.098C136.387 12.23 136.567 12.296 136.816 12.296C137.043 12.296 137.3 12.219 137.586 12.065L137.971 12.736ZM141.143 7.071C141.671 7.071 142.081 7.22867 142.375 7.544C142.675 7.85933 142.826 8.292 142.826 8.842V13H141.814V8.985C141.814 8.57433 141.733 8.28467 141.572 8.116C141.418 7.94733 141.19 7.863 140.89 7.863C140.589 7.863 140.321 7.951 140.087 8.127C139.852 8.303 139.632 8.55233 139.427 8.875V13H138.415V4.882L139.427 4.772V8.006C139.881 7.38267 140.453 7.071 141.143 7.071Z" fill="#F5B726"/>
<path d="M74.3642 59L73.6362 56.578H69.9822L69.2542 59H67.9102L71.0042 49.354H72.6842L75.7642 59H74.3642ZM70.3042 55.5H73.3142L71.8162 50.46L70.3042 55.5ZM80.6536 51.454C81.3256 51.454 81.8482 51.6547 82.2216 52.056C82.6042 52.4573 82.7956 53.008 82.7956 53.708V59H81.5076V53.89C81.5076 53.3673 81.4096 52.9987 81.2136 52.784C81.0176 52.5693 80.7282 52.462 80.3456 52.462C79.9536 52.462 79.6082 52.574 79.3096 52.798C79.0109 53.022 78.7309 53.344 78.4696 53.764V59H77.1816V51.622H78.2876L78.3996 52.714C78.6609 52.322 78.9829 52.014 79.3656 51.79C79.7576 51.566 80.1869 51.454 80.6536 51.454ZM88.8567 51.454C89.5287 51.454 90.0514 51.6547 90.4247 52.056C90.8074 52.4573 90.9987 53.008 90.9987 53.708V59H89.7107V53.89C89.7107 53.3673 89.6127 52.9987 89.4167 52.784C89.2207 52.5693 88.9314 52.462 88.5487 52.462C88.1567 52.462 87.8114 52.574 87.5127 52.798C87.214 53.022 86.934 53.344 86.6727 53.764V59H85.3847V51.622H86.4907L86.6027 52.714C86.864 52.322 87.186 52.014 87.5687 51.79C87.9607 51.566 88.39 51.454 88.8567 51.454ZM94.8758 51.622V59H93.5878V51.622H94.8758ZM94.2178 48.08C94.4885 48.08 94.7078 48.164 94.8758 48.332C95.0438 48.5 95.1278 48.71 95.1278 48.962C95.1278 49.214 95.0438 49.424 94.8758 49.592C94.7078 49.7507 94.4885 49.83 94.2178 49.83C93.9565 49.83 93.7418 49.7507 93.5738 49.592C93.4058 49.424 93.3218 49.214 93.3218 48.962C93.3218 48.71 93.4058 48.5 93.5738 48.332C93.7418 48.164 93.9565 48.08 94.2178 48.08ZM102.957 51.622L100.451 59H98.897L96.349 51.622H97.749L99.681 57.852L101.599 51.622H102.957ZM109.947 55.094C109.947 55.3087 109.938 55.528 109.919 55.752H105.215C105.271 56.564 105.476 57.1613 105.831 57.544C106.186 57.9267 106.643 58.118 107.203 58.118C107.558 58.118 107.884 58.0667 108.183 57.964C108.482 57.8613 108.794 57.698 109.121 57.474L109.681 58.244C108.897 58.86 108.038 59.168 107.105 59.168C106.078 59.168 105.276 58.832 104.697 58.16C104.128 57.488 103.843 56.564 103.843 55.388C103.843 54.6227 103.964 53.946 104.207 53.358C104.459 52.7607 104.814 52.294 105.271 51.958C105.738 51.622 106.284 51.454 106.909 51.454C107.889 51.454 108.64 51.776 109.163 52.42C109.686 53.064 109.947 53.9553 109.947 55.094ZM108.673 54.716C108.673 53.988 108.528 53.4327 108.239 53.05C107.95 52.6673 107.516 52.476 106.937 52.476C105.882 52.476 105.308 53.2507 105.215 54.8H108.673V54.716ZM115.21 51.454C115.471 51.454 115.714 51.482 115.938 51.538L115.7 52.798C115.476 52.742 115.261 52.714 115.056 52.714C114.598 52.714 114.23 52.882 113.95 53.218C113.67 53.554 113.45 54.0767 113.292 54.786V59H112.004V51.622H113.11L113.236 53.12C113.432 52.5693 113.698 52.154 114.034 51.874C114.37 51.594 114.762 51.454 115.21 51.454ZM119.201 51.454C119.705 51.454 120.158 51.524 120.559 51.664C120.96 51.804 121.343 52.014 121.707 52.294L121.161 53.106C120.825 52.8913 120.503 52.7327 120.195 52.63C119.896 52.5273 119.579 52.476 119.243 52.476C118.823 52.476 118.492 52.5647 118.249 52.742C118.006 52.91 117.885 53.1433 117.885 53.442C117.885 53.7407 117.997 53.974 118.221 54.142C118.454 54.31 118.87 54.4733 119.467 54.632C120.288 54.8373 120.9 55.1173 121.301 55.472C121.712 55.8267 121.917 56.312 121.917 56.928C121.917 57.656 121.632 58.2113 121.063 58.594C120.503 58.9767 119.817 59.168 119.005 59.168C117.885 59.168 116.956 58.846 116.219 58.202L116.905 57.418C117.53 57.894 118.221 58.132 118.977 58.132C119.462 58.132 119.845 58.034 120.125 57.838C120.414 57.6327 120.559 57.3573 120.559 57.012C120.559 56.76 120.508 56.5593 120.405 56.41C120.302 56.2513 120.125 56.116 119.873 56.004C119.621 55.8827 119.252 55.7567 118.767 55.626C117.983 55.4207 117.414 55.1453 117.059 54.8C116.714 54.4547 116.541 54.016 116.541 53.484C116.541 53.1013 116.653 52.756 116.877 52.448C117.11 52.1307 117.428 51.888 117.829 51.72C118.24 51.5427 118.697 51.454 119.201 51.454ZM128.568 57.278C128.568 57.5767 128.619 57.8007 128.722 57.95C128.824 58.09 128.978 58.1973 129.184 58.272L128.89 59.168C128.507 59.1213 128.199 59.014 127.966 58.846C127.732 58.678 127.56 58.4167 127.448 58.062C126.953 58.7993 126.22 59.168 125.25 59.168C124.522 59.168 123.948 58.9627 123.528 58.552C123.108 58.1413 122.898 57.6047 122.898 56.942C122.898 56.158 123.178 55.556 123.738 55.136C124.307 54.716 125.11 54.506 126.146 54.506H127.28V53.96C127.28 53.4373 127.154 53.064 126.902 52.84C126.65 52.616 126.262 52.504 125.74 52.504C125.198 52.504 124.536 52.6347 123.752 52.896L123.43 51.958C124.344 51.622 125.194 51.454 125.978 51.454C126.846 51.454 127.494 51.6687 127.924 52.098C128.353 52.518 128.568 53.12 128.568 53.904V57.278ZM125.544 58.202C126.281 58.202 126.86 57.8193 127.28 57.054V55.36H126.314C124.951 55.36 124.27 55.864 124.27 56.872C124.27 57.3107 124.377 57.642 124.592 57.866C124.806 58.09 125.124 58.202 125.544 58.202ZM134.419 51.454C134.68 51.454 134.923 51.482 135.147 51.538L134.909 52.798C134.685 52.742 134.47 52.714 134.265 52.714C133.807 52.714 133.439 52.882 133.159 53.218C132.879 53.554 132.659 54.0767 132.501 54.786V59H131.213V51.622H132.319L132.445 53.12C132.641 52.5693 132.907 52.154 133.243 51.874C133.579 51.594 133.971 51.454 134.419 51.454ZM139.567 59.042C139.278 59.9007 138.872 60.5773 138.349 61.072C137.836 61.576 137.099 61.8793 136.137 61.982L135.997 60.974C136.483 60.89 136.87 60.7687 137.159 60.61C137.449 60.4513 137.677 60.246 137.845 59.994C138.023 59.7513 138.186 59.42 138.335 59H137.901L135.423 51.622H136.795L138.769 58.062L140.701 51.622H142.031L139.567 59.042Z" fill="#E71B72"/>
<rect x="16.7769" y="15.0747" width="11.1028" height="11.1028" transform="rotate(44.462 16.7769 15.0747)" fill="#E71B72"/>
<rect x="16.7769" y="31.2242" width="11.1028" height="11.1028" transform="rotate(44.462 16.7769 31.2242)" fill="#F5B726"/>
<rect x="24.8516" y="39.299" width="11.1028" height="11.1028" transform="rotate(44.462 24.8516 39.299)" fill="#F5B726"/>
<rect x="32.9263" y="31.2242" width="11.1028" height="11.1028" transform="rotate(44.462 32.9263 31.2242)" fill="#F5B726"/>
<rect x="49.0757" y="31.2242" width="11.1028" height="11.1028" transform="rotate(44.462 49.0757 31.2242)" fill="#4BBCA0"/>
<rect x="49.0757" y="15.0747" width="11.1028" height="11.1028" transform="rotate(44.462 49.0757 15.0747)" fill="#58CFEF"/>
<rect x="41.001" y="7" width="11.1028" height="11.1028" transform="rotate(44.462 41.001 7)" fill="#58CFEF"/>
<rect x="32.9263" y="15.0747" width="11.1028" height="11.1028" transform="rotate(44.462 32.9263 15.0747)" fill="#58CFEF"/>
<path d="M134 28C134 28 117.5 20.5 108 5.5L114.5 4.5C114.5 4.5 124 17.5 134 21.5V28Z" fill="#E71B72"/>
<path d="M137.388 30.1039L133.154 24.1934L130.832 23.8838L135.222 30.8431L135.383 29.6309L137.388 30.1039Z" fill="#E71B72" stroke="#AB1052"/>
<path d="M126.649 32.0138L129.62 24.9293L132.018 23.8799L129.156 32.0291L128.666 30.9089L126.649 32.0138Z" fill="#E71B72" stroke="#AB1052"/>
<path d="M129.483 22.6197L124.871 22.4843L124.983 23.463L125.317 26.399L129.854 25.882L129.483 22.6197Z" fill="#E71B72" stroke="#AB1052"/>
<path d="M137.505 21.0165L132.923 22.2043L132.96 22.5328L133.297 25.4898L137.954 24.9591L137.505 21.0165Z" fill="#E71B72" stroke="#AB1052"/>
<path d="M132.651 21.6167L130.018 21.9167L129.411 21.9859L129.878 26.0845L133.118 25.7153L132.651 21.6167Z" fill="#E71B72" stroke="#AB1052"/>
<path d="M13.2147 69.084V71.614L6.75171 82.332H13.3297L12.9847 85H3.02571V82.493L9.55772 71.683H3.66971V69.084H13.2147ZM29.3496 85H26.1526L25.8996 78.491C25.8076 76.835 25.7616 75.225 25.7616 73.661C25.7616 72.925 25.7692 72.3883 25.7846 72.051L23.4846 83.298H20.3566L17.9416 72.028C17.9876 72.994 18.0106 73.9447 18.0106 74.88C18.0106 75.662 17.9799 76.8963 17.9186 78.583L17.6656 85H14.4916L15.5956 69.084H19.7586L21.9896 80.101L24.0366 69.084H28.2456L29.3496 85ZM31.5984 85V69.084H40.1084L39.7404 71.499H34.9104V76.076H39.1194V78.491H34.9104V85H31.5984ZM51.4301 78.721H50.0041V85H46.6921V69.084H51.1081C55.1868 69.084 57.2261 70.6633 57.2261 73.822C57.2261 75.892 56.2984 77.318 54.4431 78.1L58.1001 85H54.4431L51.4301 78.721ZM51.2691 76.398C52.1431 76.398 52.7794 76.191 53.1781 75.777C53.5921 75.363 53.7991 74.7113 53.7991 73.822C53.7991 73.0093 53.5768 72.4113 53.1321 72.028C52.7028 71.6447 52.0204 71.453 51.0851 71.453H50.0041V76.398H51.2691ZM68.6794 78.629C68.6794 79.1043 68.6564 79.5183 68.6104 79.871H61.7564C61.8484 81.021 62.1014 81.826 62.5154 82.286C62.9294 82.746 63.5044 82.976 64.2404 82.976C64.7311 82.976 65.1834 82.8993 65.5974 82.746C66.0267 82.5773 66.4791 82.309 66.9544 81.941L68.2654 83.735C67.0234 84.8237 65.6051 85.368 64.0104 85.368C62.2317 85.368 60.8747 84.8083 59.9394 83.689C59.0041 82.5543 58.5364 80.9827 58.5364 78.974C58.5364 77.0113 58.9811 75.432 59.8704 74.236C60.7751 73.04 62.0401 72.442 63.6654 72.442C65.2447 72.442 66.4714 72.9787 67.3454 74.052C68.2347 75.11 68.6794 76.6357 68.6794 78.629ZM65.5514 77.709C65.5514 76.6817 65.4057 75.915 65.1144 75.409C64.8231 74.8877 64.3554 74.627 63.7114 74.627C63.1134 74.627 62.6534 74.8723 62.3314 75.363C62.0094 75.8537 61.8177 76.6893 61.7564 77.87H65.5514V77.709ZM74.4962 72.442C75.2782 72.442 76.0142 72.5723 76.7042 72.833C77.3942 73.0783 77.9999 73.4387 78.5212 73.914L77.3252 75.685C76.3899 75.0717 75.5082 74.765 74.6802 74.765C74.2049 74.765 73.8369 74.8723 73.5762 75.087C73.3309 75.2863 73.2082 75.5623 73.2082 75.915C73.2082 76.1757 73.2696 76.3903 73.3922 76.559C73.5149 76.7277 73.7372 76.8963 74.0592 77.065C74.3812 77.2337 74.8642 77.4253 75.5082 77.64C76.6582 78.0233 77.5092 78.5063 78.0612 79.089C78.6286 79.6717 78.9122 80.4613 78.9122 81.458C78.9122 82.6693 78.4522 83.6277 77.5322 84.333C76.6122 85.023 75.4546 85.368 74.0592 85.368C73.1392 85.368 72.2882 85.2147 71.5062 84.908C70.7396 84.586 70.0726 84.1567 69.5052 83.62L71.0462 81.895C72.0276 82.6617 72.9936 83.045 73.9442 83.045C74.4656 83.045 74.8796 82.93 75.1862 82.7C75.4929 82.4547 75.6462 82.1173 75.6462 81.688C75.6462 81.366 75.5849 81.1053 75.4622 80.906C75.3396 80.7067 75.1096 80.5227 74.7722 80.354C74.4502 80.1853 73.9519 79.986 73.2772 79.756C72.1426 79.3727 71.3146 78.8897 70.7932 78.307C70.2872 77.7243 70.0342 76.9883 70.0342 76.099C70.0342 75.409 70.2106 74.788 70.5632 74.236C70.9312 73.684 71.4526 73.247 72.1272 72.925C72.8019 72.603 73.5916 72.442 74.4962 72.442ZM85.4804 72.442C87.1517 72.442 88.455 73.0017 89.3904 74.121C90.341 75.225 90.8164 76.8197 90.8164 78.905C90.8164 80.9137 90.341 82.493 89.3904 83.643C88.4397 84.793 87.1287 85.368 85.4574 85.368C83.786 85.368 82.475 84.8083 81.5244 83.689C80.589 82.5697 80.1214 80.975 80.1214 78.905C80.1214 76.8657 80.589 75.2787 81.5244 74.144C82.475 73.0093 83.7937 72.442 85.4804 72.442ZM85.4804 74.834C84.7904 74.834 84.2767 75.156 83.9394 75.8C83.602 76.444 83.4334 77.479 83.4334 78.905C83.4334 80.3617 83.5944 81.4043 83.9164 82.033C84.2537 82.6617 84.7674 82.976 85.4574 82.976C86.1474 82.976 86.661 82.654 86.9984 82.01C87.3357 81.366 87.5044 80.331 87.5044 78.905C87.5044 77.4637 87.3357 76.4287 86.9984 75.8C86.6764 75.156 86.1704 74.834 85.4804 74.834ZM102.206 85H99.4L99.262 83.459C98.848 84.0877 98.3727 84.563 97.836 84.885C97.2994 85.207 96.6784 85.368 95.973 85.368C94.9917 85.368 94.225 85.046 93.673 84.402C93.1364 83.7427 92.868 82.861 92.868 81.757V72.81H96.065V81.481C96.065 82.0023 96.1494 82.3857 96.318 82.631C96.502 82.861 96.7704 82.976 97.123 82.976C97.8284 82.976 98.457 82.47 99.009 81.458V72.81H102.206V85ZM110.843 72.488C111.242 72.488 111.602 72.5417 111.924 72.649L111.395 75.731C111.073 75.639 110.751 75.593 110.429 75.593C109.785 75.593 109.287 75.8383 108.934 76.329C108.582 76.8043 108.306 77.5327 108.106 78.514V85H104.909V72.81H107.692L107.945 75.018C108.237 74.2053 108.628 73.5843 109.118 73.155C109.609 72.7103 110.184 72.488 110.843 72.488ZM117.398 72.442C118.134 72.442 118.801 72.5647 119.399 72.81C119.997 73.04 120.564 73.4003 121.101 73.891L119.721 75.731C119.016 75.1943 118.318 74.926 117.628 74.926C116.877 74.926 116.309 75.2403 115.926 75.869C115.558 76.4823 115.374 77.5173 115.374 78.974C115.374 80.3847 115.566 81.3813 115.949 81.964C116.332 82.5313 116.884 82.815 117.605 82.815C117.973 82.815 118.31 82.7537 118.617 82.631C118.939 82.5083 119.299 82.309 119.698 82.033L121.101 83.942C120.028 84.8927 118.809 85.368 117.444 85.368C115.742 85.368 114.408 84.816 113.442 83.712C112.491 82.608 112.016 81.0363 112.016 78.997C112.016 77.6783 112.231 76.5283 112.66 75.547C113.105 74.5503 113.733 73.7837 114.546 73.247C115.359 72.7103 116.309 72.442 117.398 72.442ZM131.682 78.629C131.682 79.1043 131.659 79.5183 131.613 79.871H124.759C124.851 81.021 125.104 81.826 125.518 82.286C125.932 82.746 126.507 82.976 127.243 82.976C127.734 82.976 128.186 82.8993 128.6 82.746C129.03 82.5773 129.482 82.309 129.957 81.941L131.268 83.735C130.026 84.8237 128.608 85.368 127.013 85.368C125.235 85.368 123.878 84.8083 122.942 83.689C122.007 82.5543 121.539 80.9827 121.539 78.974C121.539 77.0113 121.984 75.432 122.873 74.236C123.778 73.04 125.043 72.442 126.668 72.442C128.248 72.442 129.474 72.9787 130.348 74.052C131.238 75.11 131.682 76.6357 131.682 78.629ZM128.554 77.709C128.554 76.6817 128.409 75.915 128.117 75.409C127.826 74.8877 127.358 74.627 126.714 74.627C126.116 74.627 125.656 74.8723 125.334 75.363C125.012 75.8537 124.821 76.6893 124.759 77.87H128.554V77.709ZM137.499 72.442C138.281 72.442 139.017 72.5723 139.707 72.833C140.397 73.0783 141.003 73.4387 141.524 73.914L140.328 75.685C139.393 75.0717 138.511 74.765 137.683 74.765C137.208 74.765 136.84 74.8723 136.579 75.087C136.334 75.2863 136.211 75.5623 136.211 75.915C136.211 76.1757 136.273 76.3903 136.395 76.559C136.518 76.7277 136.74 76.8963 137.062 77.065C137.384 77.2337 137.867 77.4253 138.511 77.64C139.661 78.0233 140.512 78.5063 141.064 79.089C141.632 79.6717 141.915 80.4613 141.915 81.458C141.915 82.6693 141.455 83.6277 140.535 84.333C139.615 85.023 138.458 85.368 137.062 85.368C136.142 85.368 135.291 85.2147 134.509 84.908C133.743 84.586 133.076 84.1567 132.508 83.62L134.049 81.895C135.031 82.6617 135.997 83.045 136.947 83.045C137.469 83.045 137.883 82.93 138.189 82.7C138.496 82.4547 138.649 82.1173 138.649 81.688C138.649 81.366 138.588 81.1053 138.465 80.906C138.343 80.7067 138.113 80.5227 137.775 80.354C137.453 80.1853 136.955 79.986 136.28 79.756C135.146 79.3727 134.318 78.8897 133.796 78.307C133.29 77.7243 133.037 76.9883 133.037 76.099C133.037 75.409 133.214 74.788 133.566 74.236C133.934 73.684 134.456 73.247 135.13 72.925C135.805 72.603 136.595 72.442 137.499 72.442Z" fill="#E71B72"/>
<defs>
<linearGradient id="paint0_linear_15_2" x1="111" y1="0" x2="111" y2="51" gradientUnits="userSpaceOnUse">
<stop stop-color="#F5B726"/>
<stop offset="0.5" stop-color="#EF9105"/>
<stop offset="1" stop-color="#E71B72"/>
</linearGradient>
</defs>
</svg>
